SplineFontDB: 3.0
FontName: Untitled8
FullName: Untitled8
FamilyName: Untitled8
Weight: Medium
Copyright: Created by aristath,,, with FontForge 2.0 (http://fontforge.sf.net)
UComments: "2012-12-22: Created." 
Version: 001.000
ItalicAngle: 0
UnderlinePosition: -100
UnderlineWidth: 50
Ascent: 800
Descent: 200
LayerCount: 2
Layer: 0 0 "Back"  1
Layer: 1 0 "Fore"  0
XUID: [1021 543 1907945524 5996003]
OS2Version: 0
OS2_WeightWidthSlopeOnly: 0
OS2_UseTypoMetrics: 1
CreationTime: 1356148774
ModificationTime: 1356154487
OS2TypoAscent: 0
OS2TypoAOffset: 1
OS2TypoDescent: 0
OS2TypoDOffset: 1
OS2TypoLinegap: 0
OS2WinAscent: 0
OS2WinAOffset: 1
OS2WinDescent: 0
OS2WinDOffset: 1
HheadAscent: 0
HheadAOffset: 1
HheadDescent: 0
HheadDOffset: 1
OS2Vendor: 'PfEd'
DEI: 91125
Encoding: UnicodeBmp
UnicodeInterp: none
NameList: Adobe Glyph List
DisplaySize: -24
AntiAlias: 1
FitToEm: 1
WinInfo: 61424 16 18
BeginChars: 65536 195

StartChar: uniF000
Encoding: 61440 61440 0
Width: 1000
VWidth: 0
Flags: H
LayerCount: 2
Fore
SplineSet
500 159 m 0
 519.333 159 537.667 162.667 555 170 c 0
 572.333 177.333 587.333 187.333 600 200 c 0
 612.667 212.667 622.667 227.667 630 245 c 0
 637.333 262.334 641 280.667 641 300 c 0
 641 319.334 637.333 337.667 630 355 c 0
 622.667 372.333 612.667 387.333 600 400 c 0
 587.333 412.667 572.333 422.667 555 430 c 0
 537.666 437.333 519.332 441 500 441 c 0
 480.667 441 462.333 437.333 445 430 c 0
 427.667 422.667 412.667 412.667 400 400 c 0
 387.333 387.333 377.333 372.333 370 355 c 0
 362.667 337.667 359 319.333 359 300 c 0
 359 280.667 362.667 262.333 370 245 c 0
 377.333 227.667 387.333 212.667 400 200 c 0
 412.667 187.333 427.667 177.333 445 170 c 0
 462.334 162.667 480.668 159 500 159 c 0
954 377 m 1
 960.667 376.328 966.167 373.661 970.5 369 c 0
 974.833 364.331 977 358.664 977 352 c 2
 977 248 l 2
 977 241.333 974.833 235.667 970.5 231 c 0
 966.167 226.333 960.667 223.667 954 223 c 2
 833 211 l 1
 825 182.333 813.333 154.667 798 128 c 1
 875 34 l 2
 879.694 28.6667 881.86 22.8333 881.5 16.5 c 0
 881.167 10.1667 878.667 4.66667 874 0 c 2
 800 -74 l 2
 795.333 -78.6667 789.333 -81 782 -81 c 0
 776 -81 770.667 -79 766 -75 c 2
 672 2 l 1
 645.333 -13.3333 617.667 -25 589 -33 c 1
 577 -154 l 2
 576.333 -160.667 573.667 -166.167 569 -170.5 c 0
 564.333 -174.833 558.667 -177 552 -177 c 2
 448 -177 l 2
 441.33 -177 435.663 -174.833 431 -170.5 c 0
 426.327 -166.167 423.66 -160.667 423 -154 c 2
 411 -33 l 1
 382.333 -25 354.666 -13.3333 328 2 c 1
 234 -75 l 2
 228.666 -79 223.332 -81 218 -81 c 0
 210.667 -81 204.667 -78.6667 200 -74 c 2
 126 0 l 2
 121.333 4.66667 118.833 10.1667 118.5 16.5 c 0
 118.167 22.8333 120.333 28.6667 125 34 c 2
 202 128 l 1
 186.667 154.667 175 182.333 167 211 c 1
 46 223 l 2
 39.3333 223.668 33.8333 226.335 29.5 231 c 0
 25.1667 235.668 23 241.334 23 248 c 2
 23 352 l 2
 23 358.667 25.1667 364.333 29.5 369 c 0
 33.8333 373.667 39.3333 376.333 46 377 c 2
 167 389 l 1
 175 417.667 186.667 445.333 202 472 c 1
 125 566 l 2
 120.333 571.333 118.166 577.167 118.5 583.5 c 0
 118.833 589.833 121.333 595.333 126 600 c 2
 200 674 l 2
 204.667 678.667 210.667 681 218 681 c 0
 223.333 681 228.667 679 234 675 c 2
 328 598 l 1
 354.667 613.333 382.333 625 411 633 c 1
 423 754 l 2
 423.667 760.667 426.333 766.167 431 770.5 c 0
 435.667 774.833 441.333 777 448 777 c 2
 552 777 l 2
 558.675 777 564.342 774.833 569 770.5 c 0
 573.684 766.167 576.351 760.667 577 754 c 2
 589 633 l 1
 617.669 625 645.336 613.333 672 598 c 1
 766 675 l 2
 770.667 679 776 681 782 681 c 0
 789.333 681 795.333 678.667 800 674 c 2
 874 600 l 2
 878.667 595.333 881.167 589.833 881.5 583.5 c 0
 881.833 577.158 879.667 571.325 875 566 c 2
 798 472 l 1
 813.333 445.333 825 417.666 833 389 c 1
 954 377 l 1
 954 377 l 1
EndSplineSet
EndChar

StartChar: uniF002
Encoding: 61442 61442 1
Width: 1000
VWidth: 0
Flags: H
LayerCount: 2
Fore
SplineSet
708 731 m 0
 744 731 777.833 724.167 809.5 710.5 c 0
 841.167 696.833 869 678 893 654 c 0
 917 630 936 602 950 570 c 0
 964 538 971 504 971 468 c 0
 971 428.667 966.833 393.167 958.5 361.5 c 0
 950.165 329.833 939.332 301 926 275 c 0
 912.667 249 898 225.5 882 204.5 c 0
 866 183.5 850.333 163.667 835 145 c 2
 822 130 l 2
 810 115.333 794.333 99 775 81 c 0
 755.667 63 735 44.6667 713 26 c 0
 691 7.33334 668.833 -10.8333 646.5 -28.5 c 0
 624.167 -46.1667 603.667 -61.8333 585 -75.5 c 0
 566.333 -89.1667 550.833 -100.5 538.5 -109.5 c 0
 526.163 -118.5 519.329 -123.667 518 -125 c 0
 512.663 -129 506.663 -131 500 -131 c 0
 492.667 -131 486.667 -129 482 -125 c 0
 480 -123.667 473 -118.5 461 -109.5 c 0
 449 -100.5 433.667 -89.1667 415 -75.5 c 0
 396.333 -61.8333 375.833 -46.1667 353.5 -28.5 c 0
 331.167 -10.8333 309 7.33333 287 26 c 0
 265 44.6667 244.333 63 225 81 c 0
 205.667 99 190 115.333 178 130 c 2
 165 145 l 2
 149.667 163.667 134 183.5 118 204.5 c 0
 102 225.5 87.3333 249 74 275 c 0
 60.6667 301 49.8333 329.833 41.5 361.5 c 0
 33.1667 393.167 29 428.667 29 468 c 0
 29 504 36 538 50 570 c 0
 64 602 83 630 107 654 c 0
 131 678 158.833 696.833 190.5 710.5 c 0
 222.167 724.167 256 731 292 731 c 0
 334 731 373 721.833 409 703.5 c 0
 445 685.167 475.333 660 500 628 c 1
 524.667 660 555 685.167 591 703.5 c 0
 627 721.833 666 731 708 731 c 0
EndSplineSet
EndChar

StartChar: uniF004
Encoding: 61444 61444 2
Width: 1000
VWidth: 0
Flags: H
LayerCount: 2
Fore
SplineSet
987 419 m 1
 990.333 408.332 987.667 399.665 979 393 c 2
 721 189 l 1
 837 -137 l 2
 840.333 -147.667 837.667 -156.333 829 -163 c 1
 825 -167 820.333 -169 815 -169 c 0
 811 -169 807 -167.667 803 -165 c 2
 500 16 l 1
 197 -165 l 2
 193 -167.667 188.5 -168.833 183.5 -168.5 c 0
 178.5 -168.167 174.333 -166.333 171 -163 c 0
 162.333 -156.333 159.667 -147.667 163 -137 c 2
 279 189 l 1
 21 393 l 2
 12.3333 399.667 9.66667 408.333 13 419 c 1
 17.6667 429.667 25 435 35 435 c 2
 365 435 l 1
 478 753 l 2
 481.335 763.667 488.669 769 500 769 c 0
 511.333 769 518.667 763.667 522 753 c 2
 635 435 l 1
 965 435 l 2
 975 435 982.333 429.667 987 419 c 1
987 419 m 1
 982.333 429.667 975 435 965 435 c 2
 635 435 l 1
 522 753 l 2
 518.667 763.667 511.333 769 500 769 c 0
 488.667 769 481.333 763.667 478 753 c 2
 365 435 l 1
 35 435 l 2
 25 435 17.6667 429.667 13 419 c 1
 9.66667 408.332 12.3333 399.665 21 393 c 2
 279 189 l 1
 163 -137 l 2
 159.668 -147.667 162.335 -156.333 171 -163 c 0
 174.333 -166.332 178.5 -168.165 183.5 -168.5 c 0
 188.5 -168.836 193 -167.669 197 -165 c 2
 500 16 l 1
 803 -165 l 2
 807 -167.667 811 -169 815 -169 c 0
 820.333 -169 825 -167 829 -163 c 1
 837.692 -156.333 840.359 -147.667 837 -137 c 2
 721 189 l 1
 979 393 l 2
 987.697 399.667 990.364 408.333 987 419 c 1
EndSplineSet
EndChar

StartChar: uniF006
Encoding: 61446 61446 3
Width: 1000
VWidth: 0
Flags: H
LayerCount: 2
Fore
SplineSet
945 433 m 1
 951.681 433 957.348 430.667 962 426 c 0
 966.667 421.33 969 415.663 969 409 c 2
 969 191 l 2
 969 184.333 966.667 178.667 962 174 c 0
 957.333 169.333 951.667 167 945 167 c 2
 633 167 l 1
 633 -145 l 2
 633 -151.667 630.667 -157.333 626 -162 c 0
 621.333 -166.667 615.667 -169 609 -169 c 2
 391 -169 l 2
 384.33 -169 378.664 -166.667 374 -162 c 0
 369.333 -157.334 367 -151.667 367 -145 c 2
 367 167 l 1
 55 167 l 2
 48.3333 167 42.6667 169.333 38 174 c 0
 33.3333 178.667 31 184.334 31 191 c 2
 31 409 l 2
 31 415.667 33.3333 421.333 38 426 c 0
 42.6667 430.667 48.3334 433 55 433 c 2
 367 433 l 1
 367 745 l 2
 367 751.678 369.333 757.345 374 762 c 0
 378.667 766.667 384.333 769 391 769 c 2
 609 769 l 2
 615.676 769 621.343 766.667 626 762 c 0
 630.667 757.333 633 751.667 633 745 c 2
 633 433 l 1
 945 433 l 1
 945 433 l 1
EndSplineSet
EndChar

StartChar: uniF008
Encoding: 61448 61448 4
Width: 1000
VWidth: 0
Flags: H
LayerCount: 2
Fore
SplineSet
945 433 m 1
 951.667 433 957.167 430.667 961.5 426 c 0
 965.833 421.33 968 415.663 968 409 c 2
 968 191 l 2
 968 184.333 965.833 178.667 961.5 174 c 0
 957.167 169.333 951.667 167 945 167 c 2
 55 167 l 2
 48.3333 167 42.6667 169.333 38 174 c 0
 33.3333 178.667 31 184.334 31 191 c 2
 31 409 l 2
 31 415.667 33.3333 421.333 38 426 c 0
 42.6667 430.667 48.3334 433 55 433 c 2
 945 433 l 1
 945 433 l 1
EndSplineSet
EndChar

StartChar: uniF00A
Encoding: 61450 61450 5
Width: 1000
VWidth: 0
Flags: H
LayerCount: 2
Fore
SplineSet
978 569 m 1
 982.667 564.333 985 558.833 985 552.5 c 0
 985 546.167 982.667 540.667 978 536 c 2
 348 -94 l 2
 344 -98.6667 338.667 -101 332 -101 c 2
 331 -101 l 1
 330 -101 l 2
 324 -101 318.667 -98.6667 314 -94 c 2
 22 197 l 1
 17.3333 203 15 208.667 15 214 c 0
 15 219.333 17.3333 225 22 231 c 1
 147 356 l 1
 158.333 366 169.667 366 181 356 c 1
 331 205 l 1
 819 694 l 1
 825 698.667 830.667 701 836 701 c 0
 841.333 701 847 698.667 853 694 c 1
 978 569 l 1
 978 569 l 1
EndSplineSet
EndChar

StartChar: uniF00C
Encoding: 61452 61452 6
Width: 1000
VWidth: 0
Flags: H
LayerCount: 2
Fore
SplineSet
914 79 m 1
 918.667 74.3333 921 68.8333 921 62.5 c 0
 921 56.1667 918.667 50.6667 914 46 c 2
 759 -109 l 2
 754.333 -113.667 749 -116 743 -116 c 0
 737.667 -116 732 -113.667 726 -109 c 1
 505 112 l 1
 284 -109 l 2
 279.333 -113.667 274 -116 268 -116 c 0
 262.667 -116 257 -113.667 251 -109 c 1
 96 46 l 2
 92 50 90 55.6667 90 63 c 0
 90 69.6667 92 75 96 79 c 2
 317 300 l 1
 97 521 l 2
 92.3333 525 90 530.333 90 537 c 0
 90 544.333 92.3333 550 97 554 c 2
 251 709 l 2
 255.667 713.667 261.333 716 268 716 c 0
 274.667 716 280 713.667 284 709 c 2
 505 488 l 1
 726 709 l 2
 730.667 713.667 736.167 716 742.5 716 c 0
 748.833 716 754.333 713.667 759 709 c 2
 914 554 l 2
 918.667 549.333 921 543.833 921 537.5 c 0
 921 531.167 918.667 525.667 914 521 c 2
 693 300 l 1
 914 79 l 1
 914 79 l 1
EndSplineSet
EndChar

StartChar: uniF00E
Encoding: 61454 61454 7
Width: 1000
VWidth: 0
Flags: H
LayerCount: 2
Fore
SplineSet
46 40 m 2
 45.3333 38.6667 43.6667 38 41 38 c 2
 38 38 l 1
 34.6667 40 33 42.3333 33 45 c 2
 33 444 l 2
 33 447.34 34.3333 449.674 37 451 c 0
 39.6667 451.667 42.3334 451.667 45 451 c 1
 311 299 l 2
 313.667 297.667 315 295.667 315 293 c 0
 315 289.667 314 287.667 312 287 c 1
 46 40 l 2
940 -70 m 2
 942 -72.6665 942.667 -75.3332 942 -78 c 1
 940 -81.3333 937.333 -83 934 -83 c 2
 64 -83 l 2
 59.3333 -83 54.3333 -81.3333 49 -78 c 0
 46.3333 -76.6667 45 -74.6667 45 -72 c 0
 45 -69.3333 46 -67.3333 48 -66 c 2
 387 249 l 2
 389.667 251.667 392.667 252 396 250 c 2
 486 199 l 2
 498.667 191.667 511.667 191.667 525 199 c 2
 627 259 l 2
 631 261.667 634 261.333 636 258 c 1
 940 -70 l 2
971 457 m 0
 973.667 455.667 975 453.333 975 450 c 2
 975 28 l 2
 975 24.6667 973.333 22.3333 970 21 c 0
 969.333 20.3333 968.333 20 967 20 c 0
 965 20 963 21 961 23 c 2
 708 296 l 2
 706 298 705.333 300 706 302 c 1
 706 304.667 707 306.667 709 308 c 2
 963 457 l 1
 965 459 967.667 459 971 457 c 0
943 683 m 1
 952.333 683 960 680 966 674 c 0
 972 668 975 660.667 975 652 c 2
 975 556 l 2
 975 551.333 972.667 549 968 549 c 1
 964 548.333 960.333 546.667 957 544 c 2
 509 281 l 2
 508.333 280.333 507 280 505 280 c 0
 503 280 501.667 280.333 501 281 c 2
 39 544 l 2
 35 546.671 33 549.338 33 552 c 2
 33 652 l 2
 33 660.667 36 668 42 674 c 0
 48 680 55.3333 683 64 683 c 2
 943 683 l 1
 943 683 l 1
EndSplineSet
EndChar

StartChar: uniF010
Encoding: 61456 61456 8
Width: 1000
VWidth: 0
Flags: H
LayerCount: 2
Fore
SplineSet
695 571 m 0
 683 571 674.5 573.333 669.5 578 c 0
 664.5 582.671 662 590.338 662 601 c 2
 662 636 l 1
 662 671 l 2
 662 682.333 664.5 690.167 669.5 694.5 c 0
 674.5 698.833 683 701 695 701 c 0
 707.667 701 716.5 698.833 721.5 694.5 c 0
 726.5 690.161 729 682.328 729 671 c 2
 729 636 l 1
 729 601 l 2
 729 590.333 726.5 582.667 721.5 578 c 0
 716.5 573.333 707.667 571 695 571 c 0
305 571 m 0
 293 571 284.5 573.333 279.5 578 c 0
 274.5 582.671 272 590.338 272 601 c 2
 272 636 l 1
 272 671 l 2
 272 682.333 274.5 690.167 279.5 694.5 c 0
 284.5 698.833 293 701 305 701 c 0
 317.667 701 326.5 698.833 331.5 694.5 c 0
 336.5 690.161 339 682.328 339 671 c 2
 339 636 l 1
 339 601 l 2
 339 590.333 336.5 582.667 331.5 578 c 0
 326.5 573.333 317.667 571 305 571 c 0
851 636 m 1
 855 636 858.5 634.667 861.5 632 c 0
 864.5 629.333 866 626 866 622 c 2
 866 474 l 2
 866 470 864.5 466.667 861.5 464 c 0
 858.5 461.333 855 460 851 460 c 2
 149 460 l 2
 145 460 141.5 461.333 138.5 464 c 0
 135.5 466.667 134 470 134 474 c 2
 134 622 l 2
 134 626 135.5 629.333 138.5 632 c 0
 141.5 634.667 145 636 149 636 c 2
 225 636 l 1
 225 601 l 2
 225 591.667 226.333 582.5 229 573.5 c 0
 231.667 564.5 236.167 556.333 242.5 549 c 0
 248.833 541.667 257.167 535.667 267.5 531 c 0
 277.833 526.333 290.333 524 305 524 c 0
 319.667 524 332.167 526.333 342.5 531 c 0
 352.833 535.667 361.333 541.667 368 549 c 0
 374.667 556.333 379.333 564.5 382 573.5 c 0
 384.667 582.5 386 591.667 386 601 c 2
 386 636 l 1
 615 636 l 1
 615 601 l 2
 615 591.667 616.333 582.5 619 573.5 c 0
 621.667 564.5 626.167 556.333 632.5 549 c 0
 638.833 541.667 647.167 535.667 657.5 531 c 0
 667.833 526.333 680.333 524 695 524 c 0
 709.667 524 722.167 526.333 732.5 531 c 0
 742.833 535.667 751.333 541.667 758 549 c 0
 764.678 556.333 769.345 564.5 772 573.5 c 0
 774.667 582.5 776 591.667 776 601 c 2
 776 636 l 1
 851 636 l 1
 851 636 l 1
685 276 m 2
 685 280.667 682.333 283 677 283 c 2
 647 283 l 2
 645.667 283 644.667 282.667 644 282 c 2
 558 240 l 2
 555.333 238 554 235.333 554 232 c 2
 561 183 l 2
 561 181.667 561.333 180.667 562 180 c 0
 562.684 179.333 563.351 178.333 564 177 c 1
 566 175.667 568.333 175.667 571 177 c 2
 610 192 l 1
 610 -6 l 2
 610 -10.6667 612.333 -13 617 -13 c 2
 677 -13 l 2
 682.333 -13 685 -10.6667 685 -6 c 2
 685 276 l 2
378 -17 m 0
 416 -17 446.5 -8.33333 469.5 9 c 0
 492.5 26.3333 504 49.6667 504 79 c 0
 504 100.333 498 116.333 486 127 c 0
 474 137.667 461.333 145.667 448 151 c 1
 480 165.667 496 188.333 496 219 c 0
 496 239.667 487 256.167 469 268.5 c 0
 451 280.833 427 287 397 287 c 0
 363.667 287 336 282 314 272 c 1
 310.667 269.332 309.333 266.666 310 264 c 2
 317 215 l 2
 317 212.333 318 210.667 320 210 c 1
 322 208 324.333 207.667 327 209 c 0
 345.667 219 364 224 382 224 c 0
 398.667 224 408.333 221.5 411 216.5 c 0
 413.667 211.5 415 207.333 415 204 c 0
 415 198.666 412 192.833 406 186.5 c 0
 400 180.166 385 176.333 361 175 c 0
 356.333 175 354 172.667 354 168 c 2
 354 118 l 2
 354 113.333 356.333 111 361 111 c 0
 389 109.667 407 106.167 415 100.5 c 0
 423 94.8333 427 86.3333 427 75 c 0
 427 66.3333 423 59.3333 415 54 c 0
 407 48.6667 396.667 46 384 46 c 0
 372 46 360.833 47 350.5 49 c 0
 340.167 51 329.333 54 318 58 c 0
 316 58.6667 314 58.6667 312 58 c 0
 310 56.6667 309 55 309 53 c 2
 302 3 l 1
 300.667 -0.333333 302 -2.66667 306 -4 c 0
 316.667 -8.66666 328.333 -12 341 -14 c 0
 353.667 -16 366 -17 378 -17 c 0
851 409 m 1
 855 409 858.5 407.667 861.5 405 c 0
 864.5 402.333 866 399 866 395 c 2
 866 -109 l 2
 866 -113 864.5 -116.5 861.5 -119.5 c 0
 858.5 -122.5 855 -124 851 -124 c 2
 149 -124 l 2
 145 -124 141.5 -122.5 138.5 -119.5 c 0
 135.5 -116.5 134 -113 134 -109 c 2
 134 395 l 2
 134 399 135.5 402.333 138.5 405 c 0
 141.5 407.667 145 409 149 409 c 2
 851 409 l 1
 851 409 l 1
EndSplineSet
EndChar

StartChar: uniF012
Encoding: 61458 61458 9
Width: 1000
VWidth: 0
Flags: H
LayerCount: 2
Fore
SplineSet
765 730 m 1
 771.678 730 777.345 727.833 782 723.5 c 0
 786.667 719.161 789 713.328 789 706 c 2
 789 -117 l 2
 789 -123.667 786.667 -129.333 782 -134 c 0
 777.333 -138.667 771.667 -141 765 -141 c 2
 198 -141 l 2
 190.667 -141 184.667 -138.667 180 -134 c 0
 175.333 -129.333 173 -123.667 173 -117 c 2
 173 422 l 2
 173 428.667 175.333 434.333 180 439 c 0
 184.667 443.667 190.667 446 198 446 c 2
 426 446 l 2
 435.335 446 443.168 449.167 449.5 455.5 c 0
 455.833 461.835 459 469.668 459 479 c 2
 459 706 l 2
 459 713.333 461.333 719.167 466 723.5 c 0
 470.667 727.833 476.333 730 483 730 c 2
 765 730 l 1
 765 730 l 1
177 517 m 2
 171.667 517 169 519.667 169 525 c 2
 169 567 l 2
 169 569 170 571 172 573 c 2
 332 730 l 2
 334 732 336 733 338 733 c 2
 378 733 l 2
 383.333 733 386 730 386 724 c 2
 386 525 l 2
 386 519.667 383.333 517 378 517 c 2
 177 517 l 2
EndSplineSet
EndChar

StartChar: uniF014
Encoding: 61460 61460 10
Width: 1000
VWidth: 0
Flags: H
LayerCount: 2
Fore
SplineSet
184 -21 m 0
 193.333 -30.3333 204.167 -35 216.5 -35 c 0
 228.833 -35 239.667 -30.3333 249 -21 c 0
 258.333 -11.6667 263 -0.833333 263 11.5 c 0
 263 23.8333 258.333 34.6667 249 44 c 0
 239.666 53.3333 228.833 58 216.5 58 c 0
 204.166 58 193.333 53.3333 184 44 c 0
 174.667 34.6667 170 23.8333 170 11.5 c 0
 170 -0.833333 174.667 -11.6667 184 -21 c 0
852 316 m 0
 826.667 290 798.167 270 766.5 256 c 0
 734.833 242 703 235 671 235 c 0
 649.667 235 627.667 240 605 250 c 1
 336 -56 l 2
 334.667 -58 331 -62.8333 325 -70.5 c 0
 319 -78.1666 311.167 -86.3333 301.5 -95 c 0
 291.833 -103.667 280.5 -111.833 267.5 -119.5 c 0
 254.5 -127.167 240 -132 224 -134 c 0
 186.667 -139.333 150.667 -125.333 116 -92 c 1
 115 -91 l 1
 114 -91 l 1
 114 -90.3333 113.833 -90 113.5 -90 c 0
 113.167 -90 113 -89.6667 113 -89 c 0
 80.3333 -53.6667 66.3333 -17.6667 71 19 c 0
 73 35 77.8333 49.5 85.5 62.5 c 0
 93.1667 75.5 101.333 86.8333 110 96.5 c 0
 118.667 106.167 126.833 114 134.5 120 c 0
 142.167 126 147 129.667 149 131 c 2
 455 400 l 1
 445 422.667 440 444.667 440 466 c 0
 440 498 447 529.833 461 561.5 c 0
 475 593.167 495 621.667 521 647 c 0
 546.333 672.333 574.333 691.667 605 705 c 0
 635.667 718.333 666.667 724.667 698 724 c 0
 701.333 724 704 723.333 706 722 c 0
 708 720.667 712 717 718 711 c 2
 731 698 l 2
 737.667 690.667 737.667 683.667 731 677 c 2
 700 646 l 1
 667 613 l 1
 650 592.5 l 1
 644.5 576.5 l 1
 644 556 l 1
 644 543 l 2
 644 533.667 647.167 523 653.5 511 c 0
 659.833 499 669 487 681 475 c 0
 692.333 463.667 704 454.833 716 448.5 c 0
 728 442.167 738.667 439 748 439 c 2
 761 439 l 2
 769.667 439 776.5 439.167 781.5 439.5 c 0
 786.5 439.84 791.833 441.673 797.5 445 c 0
 803.167 448.333 810 454 818 462 c 2
 851 495 l 1
 882 526 l 2
 888.667 532.667 895.667 532.667 903 526 c 2
 916 513 l 2
 922 507 925.667 503 927 501 c 0
 928.333 499 929 496.333 929 493 c 0
 929.653 461.667 923.319 430.667 910 400 c 0
 896.663 369.333 877.33 341.333 852 316 c 0
EndSplineSet
EndChar

StartChar: uniF016
Encoding: 61462 61462 11
Width: 1000
VWidth: 0
Flags: H
LayerCount: 2
Fore
SplineSet
768 51 m 1
 800 85 824.167 123.167 840.5 165.5 c 0
 856.833 207.833 865.667 251.667 867 297 c 1
 831 275 l 1
 826.333 275.667 822.333 276 819 276 c 0
 811.667 276 808 273.667 808 269 c 1
 823 263 l 2
 825.692 261.667 827.359 260.333 828 259 c 0
 830 253 828.667 246 824 238 c 2
 816 226 l 2
 814 223.333 812 221 810 219 c 2
 803 212 l 1
 796 205 l 1
 796 203 795.833 200.833 795.5 198.5 c 0
 795.167 196.167 795 193.667 795 191 c 0
 795 185.666 793.833 179.833 791.5 173.5 c 0
 789.161 167.167 786.327 160.667 783 154 c 1
 783 141 l 1
 781.667 136.333 780.167 132.167 778.5 128.5 c 0
 776.833 124.833 775.333 121 774 117 c 0
 772.667 113.667 771.167 110.333 769.5 107 c 0
 767.833 103.667 766.667 100 766 96 c 0
 764 78.6667 756.333 62.6667 743 48 c 1
 725 30 710 22 698 24 c 0
 692 25.3333 687.5 29 684.5 35 c 0
 681.5 41 679.333 46.6667 678 52 c 0
 677.333 52.6667 677 54 677 56 c 1
 673 64 l 1
 669 73 l 2
 665.664 81 662.331 89.1667 659 97.5 c 0
 655.667 105.833 654.667 114.667 656 124 c 0
 656 125.333 656.167 127 656.5 129 c 0
 656.833 131 657 133 657 135 c 0
 658.333 142.333 659.167 149.5 659.5 156.5 c 0
 659.833 163.5 658.333 170.667 655 178 c 2
 652 184 l 2
 649.333 189.333 647.5 194.333 646.5 199 c 0
 645.5 203.667 646.667 210 650 218 c 0
 650 218.667 647.167 219.667 641.5 221 c 0
 635.833 222.333 626 223 612 223 c 2
 604 223 l 1
 601 223 l 2
 572.333 223 554.333 240.333 547 275 c 0
 543 297 547.333 318 560 338 c 0
 560.667 339.333 561 341 561 343 c 0
 561 347.667 561.333 351 562 353 c 1
 565.333 353.667 567.833 354.833 569.5 356.5 c 0
 571.167 358.167 572.667 360 574 362 c 2
 578 370 l 1
 585.333 370.667 594 371.833 604 373.5 c 0
 614 375.167 624.333 376.5 635 377.5 c 0
 645.667 378.5 655.5 378.833 664.5 378.5 c 0
 673.5 378.167 680.667 376.667 686 374 c 1
 690.677 370.667 695.344 367.667 700 365 c 0
 709.333 359 717.333 355 724 353 c 1
 752 372 l 1
 746 382.667 740.333 390.667 735 396 c 0
 729.656 401.333 725.322 405.333 722 408 c 0
 718 410.667 714.333 412.333 711 413 c 1
 707 412.333 703.333 411.333 700 410 c 0
 693.333 408 687 403.333 681 396 c 1
 615 402 l 1
 611.667 398.667 607.667 396.5 603 395.5 c 0
 598.333 394.5 594.333 393.667 591 393 c 0
 586.333 392.333 582 392 578 392 c 1
 576.667 398.667 575 404.333 573 409 c 0
 569 417 566.833 423.167 566.5 427.5 c 0
 566.167 431.833 567 435.333 569 438 c 0
 571 440.667 573.5 443 576.5 445 c 0
 579.5 447 582 450 584 454 c 0
 586 458 587.167 462 587.5 466 c 0
 587.833 470 588.5 475 589.5 481 c 0
 590.5 487 592.5 494.167 595.5 502.5 c 0
 598.5 510.833 603.667 521 611 533 c 0
 615.667 541 623 547.667 633 553 c 0
 643 558.333 654 562.667 666 566 c 0
 678 569.333 690.333 571.833 703 573.5 c 0
 715.667 575.167 727.667 576.334 739 577 c 1
 715.667 597 691.667 613.667 667 627 c 1
 661.667 627 656.5 627.5 651.5 628.5 c 0
 646.5 629.5 641.667 630.667 637 632 c 0
 627.662 634 618.329 635.5 609 636.5 c 0
 599.667 637.5 590.667 636.333 582 633 c 0
 578.667 631.667 575.5 630.167 572.5 628.5 c 0
 569.5 626.833 566.333 625 563 623 c 0
 558.333 619.657 553.5 616.824 548.5 614.5 c 0
 543.5 612.167 538.333 610.667 533 610 c 0
 529.667 609.333 526.5 608.833 523.5 608.5 c 0
 520.5 608.167 517.333 608 514 608 c 0
 490.667 608 467.167 612.167 443.5 620.5 c 0
 419.833 628.833 399.333 637.667 382 647 c 1
 342 633.665 305 613.332 271 586 c 1
 282.333 587.333 293.833 587.5 305.5 586.5 c 0
 317.167 585.5 325 580.333 329 571 c 0
 333 562.333 339 554.167 347 546.5 c 0
 355 538.833 363.667 532 373 526 c 0
 375.667 524.667 379.667 523.667 385 523 c 0
 386.333 522.333 390 519.667 396 515 c 0
 396.667 515 397.333 514.667 398 514 c 0
 398.667 513.333 399.667 512.667 401 512 c 2
 410 509 l 1
 418 511.667 424.333 510 429 504 c 1
 433 502 437 499.667 441 497 c 0
 444.337 494.333 448.17 491 452.5 487 c 0
 456.837 483 460.67 478.333 464 473 c 1
 460 466.332 455.333 459.665 450 453 c 2
 442 443 l 2
 440.667 441.667 439 440.333 437 439 c 0
 435 437.667 432.667 436.333 430 435 c 0
 430 434.333 430.167 434 430.5 434 c 0
 430.833 434 431 433.667 431 433 c 0
 433.667 429 432.667 425.667 428 423 c 0
 422.667 420.333 416.667 419 410 419 c 1
 400 417 l 1
 393 413 l 2
 393 412.332 392 411.665 390 411 c 0
 387.333 410.321 385 408.654 383 406 c 0
 379 402 376 394.667 374 384 c 0
 373.333 381.332 372 378.665 370 376 c 1
 372 358.667 372.5 343.333 371.5 330 c 0
 370.5 316.667 366.333 309.333 359 308 c 0
 355.667 307.333 351.667 308 347 310 c 0
 342.332 311.333 336.665 313.833 330 317.5 c 0
 323.333 321.167 315.333 326.667 306 334 c 1
 306.667 330.667 307.5 327.5 308.5 324.5 c 0
 309.5 321.5 310.667 318.667 312 316 c 0
 313.333 313.333 314.333 310.333 315 307 c 1
 317 307 318.833 307.167 320.5 307.5 c 0
 322.167 307.833 323.667 308 325 308 c 0
 328.338 308 330.672 306.667 332 304 c 0
 333.333 300.667 333 298 331 296 c 1
 328.5 291 l 1
 328 289 l 1
 334 286 l 2
 338 283.333 340.667 281 342 279 c 1
 343.333 279 344.333 278.833 345 278.5 c 0
 345.667 278.167 346.667 278 348 278 c 0
 355.333 278 363.833 278.5 373.5 279.5 c 0
 383.167 280.5 393.167 280.667 403.5 280 c 0
 413.835 279.333 424.168 277 434.5 273 c 0
 444.835 269 454.668 261.667 464 251 c 0
 473.333 241 483 232.667 493 226 c 0
 503 219.333 512 213.5 520 208.5 c 0
 528 203.5 534.5 198.5 539.5 193.5 c 0
 544.5 188.5 547 182.667 547 176 c 0
 547 162.667 546.167 149.5 544.5 136.5 c 0
 542.833 123.5 541 114.333 539 109 c 1
 537.667 103 532 94.8333 522 84.5 c 0
 512 74.1667 500.333 64.6667 487 56 c 1
 482.333 52 478 47.3333 474 42 c 0
 470.667 37.3333 467.5 31.5 464.5 24.5 c 0
 461.5 17.5 460 9 460 -1 c 1
 454.667 -9.66667 450.333 -17.6667 447 -25 c 0
 443.667 -32.3333 440.667 -38.6666 438 -44 c 0
 435.33 -50.6667 432.663 -56.3333 430 -61 c 1
 493.333 -73 554.833 -69 614.5 -49 c 0
 674.167 -29 725.334 4.33333 768 51 c 1
361 -40 m 1
 361.667 -29.3333 362.667 -17 364 -3 c 0
 365.336 11 366.669 24.8333 368 38.5 c 0
 369.333 52.1667 370.5 64.3333 371.5 75 c 0
 372.5 85.6667 373.333 93 374 97 c 0
 374.667 104.333 371.667 113 365 123 c 2
 359 132 l 2
 353.667 140.667 348.167 150.334 342.5 161 c 0
 336.828 171.667 333.662 184.334 333 199 c 0
 332.333 212.333 332.5 222 333.5 228 c 0
 334.5 234 335 238.667 335 242 c 1
 333.667 243.333 332.5 244.333 331.5 245 c 0
 330.5 245.668 329.333 246.334 328 247 c 0
 323.331 251.667 319.664 255 317 257 c 0
 312.331 261.667 308.664 265 306 267 c 0
 294 273 281.333 277.5 268 280.5 c 0
 254.666 283.5 242.333 287.667 231 293 c 0
 226.333 295 220 298 212 302 c 0
 204 306 195.667 311 187 317 c 0
 178.333 323 169.667 330 161 338 c 0
 152.333 346 145 355 139 365 c 1
 133.663 331 132.829 296.833 136.5 262.5 c 0
 140.167 228.167 148.667 194.333 162 161 c 0
 180.667 115 207.167 74.6667 241.5 40 c 0
 275.834 5.33333 315.667 -21.3333 361 -40 c 1
500 776 m 0
 565.333 776 627 763.5 685 738.5 c 0
 743 713.5 793.5 679.5 836.5 636.5 c 0
 879.5 593.5 913.5 543 938.5 485 c 0
 963.5 427 976 365.333 976 300 c 0
 976 234.667 963.5 173 938.5 115 c 0
 913.5 57 879.5 6.5 836.5 -36.5 c 0
 793.5 -79.5 743 -113.5 685 -138.5 c 0
 627 -163.5 565.333 -176 500 -176 c 0
 434.667 -176 373 -163.5 315 -138.5 c 0
 257 -113.5 206.5 -79.5 163.5 -36.5 c 0
 120.5 6.5 86.5 57 61.5 115 c 0
 36.5 173 24 234.667 24 300 c 0
 24 365.333 36.5 427 61.5 485 c 0
 86.5 543 120.5 593.5 163.5 636.5 c 0
 206.5 679.5 257 713.5 315 738.5 c 0
 373 763.5 434.667 776 500 776 c 0
EndSplineSet
EndChar

StartChar: uniF018
Encoding: 61464 61464 12
Width: 1000
VWidth: 0
Flags: H
LayerCount: 2
Fore
SplineSet
923 455 m 1
 931 449.667 935 441.667 935 431 c 2
 935 -137 l 2
 935 -145.667 932 -153 926 -159 c 0
 920 -165 912.667 -168 904 -168 c 2
 671 -168 l 2
 662.333 -168 655 -165 649 -159 c 0
 643 -153 640 -145.667 640 -137 c 2
 640 211 l 1
 371 211 l 1
 371 -137 l 2
 371 -145.667 368 -153 362 -159 c 0
 356 -165 348.667 -168 340 -168 c 2
 106 -168 l 2
 97.3333 -168 90 -165 84 -159 c 0
 78 -153 75 -145.667 75 -137 c 2
 75 431 l 2
 75 441 79 449 87 455 c 2
 479 769 l 2
 484.334 773.667 490.668 776 498 776 c 0
 505.333 776 512 773.667 518 769 c 2
 923 455 l 1
 923 455 l 1
EndSplineSet
EndChar

StartChar: uniF01A
Encoding: 61466 61466 13
Width: 1000
VWidth: 0
Flags: H
LayerCount: 2
Fore
SplineSet
975 497 m 1
 977 489.667 975.667 482.667 971 476 c 0
 966.333 469.333 960 465.333 952 464 c 0
 838 448 780.333 394.667 779 304 c 1
 882 304 l 2
 889.333 304 895.667 301.333 901 296 c 0
 906.333 290.667 909 284.333 909 277 c 2
 909 -109 l 2
 909 -117 906.333 -123.667 901 -129 c 0
 895.66 -134.333 889.327 -137 882 -137 c 2
 559 -137 l 2
 551.667 -137 545.167 -134.333 539.5 -129 c 0
 533.833 -123.667 531 -117 531 -109 c 2
 531 225 l 2
 531 357 563.333 457.667 628 527 c 0
 692.667 596.333 790 634.333 920 641 c 0
 926.667 641.667 932.667 640 938 636 c 0
 943.333 632 946.667 626.667 948 620 c 2
 975 497 l 1
 975 497 l 1
476 497 m 2
 478 489.667 476.667 482.667 472 476 c 0
 466.667 468.667 460.333 464.667 453 464 c 0
 339 448 281.333 394.667 280 304 c 1
 383 304 l 2
 390.336 304 396.67 301.333 402 296 c 0
 407.333 290.667 410 284.333 410 277 c 2
 410 -109 l 2
 410 -117 407.333 -123.667 402 -129 c 0
 396.667 -134.333 390.333 -137 383 -137 c 2
 60 -137 l 2
 52.6667 -137 46.1667 -134.333 40.5 -129 c 0
 34.8333 -123.667 32 -117 32 -109 c 2
 32 225 l 2
 32 357 64.3333 457.667 129 527 c 0
 193.667 596.333 291 634.333 421 641 c 0
 427.667 641.667 433.667 640 439 636 c 0
 444.337 632 447.67 626.667 449 620 c 2
 476 497 l 2
EndSplineSet
EndChar

StartChar: uniF01C
Encoding: 61468 61468 14
Width: 1000
VWidth: 0
Flags: H
LayerCount: 2
Fore
SplineSet
755 211 m 1
 768.333 204.333 775 193 775 177 c 2
 775 48 l 1
 775 25 l 2
 775 15 772 6.33333 766 -1 c 0
 760 -8.33333 752.333 -12 743 -12 c 2
 252 -12 l 2
 243.333 -12 236 -8.33334 230 -1 c 0
 224 6.33333 221 15 221 25 c 2
 221 48 l 1
 221 177 l 2
 221 193 227.667 204.333 241 211 c 2
 379 275 l 1
 433 300 l 1
 407.667 315.333 388.333 337.333 375 366 c 1
 362.333 391.333 356 418.333 356 447 c 0
 356 455.667 356.667 464 358 472 c 0
 359.333 480 361 487.667 363 495 c 0
 372.334 529 389.167 557 413.5 579 c 0
 437.833 601 466 612 498 612 c 0
 530.667 612 559.334 600.667 584 578 c 0
 608.669 555.333 625.336 526.667 634 492 c 1
 637.333 475.333 639 460.333 639 447 c 0
 639 420.333 633.667 394.666 623 370 c 0
 609.664 340 590.331 317.333 565 302 c 1
 622 275 l 1
 755 211 l 1
 755 211 l 1
221 253 m 2
 206.333 246.333 194.833 236.167 186.5 222.5 c 0
 178.167 208.833 174 193.667 174 177 c 2
 174 48 l 1
 71 48 l 2
 63.6667 48 57.6667 50.8333 53 56.5 c 0
 48.3333 62.1667 46 69.3333 46 78 c 2
 46 200 l 2
 46 214.667 51.3333 224 62 228 c 1
 217 300 l 1
 198.333 311.333 183.333 327.5 172 348.5 c 0
 160.667 369.5 155 393 155 419 c 0
 155 437 158 454.167 164 470.5 c 0
 170 486.833 178.167 501 188.5 513 c 0
 198.833 525 210.833 534.5 224.5 541.5 c 0
 238.167 548.5 253 552 269 552 c 0
 279.667 552 289.667 550.333 299 547 c 0
 308.333 543.658 317.333 539.325 326 534 c 1
 314.667 506 309 477 309 447 c 0
 309 423.667 312.333 401.167 319 379.5 c 0
 325.667 357.833 335 338.333 347 321 c 1
 339.667 313 332 306.667 324 302 c 1
 221 253 l 2
937 228 m 1
 947.667 222.666 953 213.333 953 200 c 2
 953 78 l 2
 953 69.3333 950.667 62.1667 946 56.5 c 0
 941.333 50.8333 935.333 48 928 48 c 2
 822 48 l 1
 822 177 l 2
 822 193.667 817.833 208.834 809.5 222.5 c 0
 801.167 236.167 790 246.334 776 253 c 2
 677 300 l 1
 667.667 305.333 658.667 313 650 323 c 1
 661.333 340.333 670.167 359.5 676.5 380.5 c 0
 682.833 401.5 686 423.667 686 447 c 0
 686 462.333 684.667 477 682 491 c 0
 679.333 505 675.333 518.667 670 532 c 1
 678.667 538 688 542.833 698 546.5 c 0
 708 550.167 718.333 552 729 552 c 0
 745 552 760 548.5 774 541.5 c 0
 788 534.5 800.167 525 810.5 513 c 0
 820.833 501 829 486.833 835 470.5 c 0
 841 454.167 844 437 844 419 c 0
 844 393.667 838.333 370.5 827 349.5 c 0
 815.664 328.5 801.33 312.333 784 301 c 1
 937 228 l 1
 937 228 l 1
EndSplineSet
EndChar

StartChar: uniF01E
Encoding: 61470 61470 15
Width: 1000
VWidth: 0
Flags: H
LayerCount: 2
Fore
SplineSet
840 558 m 1
 168 558 l 1
 168 191 l 1
 840 191 l 1
 840 558 l 1
895 668 m 1
 910.333 668 923.167 662.667 933.5 652 c 0
 943.833 641.333 949 628.333 949 613 c 2
 949 136 l 2
 949 120.667 943.833 107.833 933.5 97.5 c 0
 923.16 87.1667 910.326 82 895 82 c 2
 620 82 l 1
 620 -1 l 1
 684 -1 l 2
 688 -1 691.5 -2.5 694.5 -5.5 c 0
 697.5 -8.5 699 -12.3333 699 -17 c 2
 699 -52 l 2
 699 -56.6667 697.5 -60.3333 694.5 -63 c 0
 691.5 -65.6667 688 -67 684 -67 c 2
 316 -67 l 2
 312 -67 308.5 -65.6667 305.5 -63 c 0
 302.5 -60.3334 301 -56.6667 301 -52 c 2
 301 -17 l 2
 301 -12.3333 302.5 -8.5 305.5 -5.5 c 0
 308.5 -2.5 312 -1 316 -1 c 2
 380 -1 l 1
 380 82 l 1
 113 82 l 2
 97.6667 82 84.8333 87.1667 74.5 97.5 c 0
 64.1667 107.833 59 120.667 59 136 c 2
 59 613 l 2
 59.0001 628.333 64.1667 641.333 74.5 652 c 0
 84.8334 662.667 97.6668 668 113 668 c 2
 895 668 l 1
 895 668 l 1
EndSplineSet
EndChar

StartChar: uniF020
Encoding: 61472 61472 16
Width: 1000
VWidth: 0
Flags: H
LayerCount: 2
Fore
SplineSet
588 52 m 2
 588 55.3333 587.667 58.1667 587 60.5 c 0
 586.333 62.8333 585.333 64 584 64 c 2
 415 64 l 2
 413.667 64 412.667 62.8333 412 60.5 c 0
 411.333 58.1666 411 55.3332 411 52 c 2
 411 -3 l 2
 411 -6.33333 411.333 -9.16667 412 -11.5 c 0
 412.667 -13.8333 413.667 -15 415 -15 c 2
 584 -15 l 2
 585.333 -15 586.333 -13.8333 587 -11.5 c 0
 587.667 -9.16667 588 -6.33333 588 -3 c 2
 588 52 l 2
963 94 m 1
 969.667 94 975.167 91.8333 979.5 87.5 c 0
 983.833 83.1667 986 77.6667 986 71 c 2
 986 14 l 2
 986 7.33333 984 2 980 -2 c 2
 944 -38 l 2
 940 -42.6667 934.333 -45 927 -45 c 2
 70 -45 l 2
 62.6667 -45 57 -42.6667 53 -38 c 2
 19 -2 l 2
 15 2.66667 13 8 13 14 c 2
 13 71 l 2
 13 77.6667 15.3333 83.1667 20 87.5 c 0
 24.6667 91.8333 30.3333 94 37 94 c 2
 963 94 l 1
 963 94 l 1
208 232 m 1
 792 232 l 1
 792 553 l 1
 208 553 l 1
 208 232 l 1
161 138 m 1
 147.667 138 136.5 142.5 127.5 151.5 c 0
 118.5 160.5 114 171.667 114 185 c 2
 114 600 l 2
 114 613.333 118.5 624.5 127.5 633.5 c 0
 136.5 642.5 147.667 647 161 647 c 2
 839 647 l 2
 852.333 647 863.5 642.5 872.5 633.5 c 0
 881.5 624.5 886 613.333 886 600 c 2
 886 185 l 2
 886 171.667 881.5 160.5 872.5 151.5 c 0
 863.5 142.5 852.333 138 839 138 c 2
 161 138 l 1
 161 138 l 1
EndSplineSet
EndChar

StartChar: uniF022
Encoding: 61474 61474 17
Width: 1000
VWidth: 0
Flags: H
LayerCount: 2
Fore
SplineSet
976 44 m 1
 978 28.6667 973.333 15.3333 962 4 c 2
 829 -128 l 2
 823 -134.667 815.167 -140.333 805.5 -145 c 0
 795.833 -149.667 786.333 -152.667 777 -154 c 0
 776.333 -154 774.333 -154.167 771 -154.5 c 0
 767.655 -154.833 763.322 -155 758 -155 c 0
 745.333 -155 724.833 -152.833 696.5 -148.5 c 0
 668.167 -144.167 633.5 -133.5 592.5 -116.5 c 0
 551.5 -99.5 505 -74 453 -40 c 0
 401 -6 345.667 40.6667 287 100 c 1
 240.333 146 201.667 190 171 232 c 0
 140.333 274 115.667 312.833 97 348.5 c 0
 78.3333 384.167 64.3333 416.5 55 445.5 c 0
 45.6666 474.5 39.3333 499.5 36 520.5 c 0
 32.6667 541.5 31.3333 558 32 570 c 0
 32.6667 582 33 588.667 33 590 c 0
 34.3333 599.333 37.3333 608.833 42 618.5 c 0
 46.6667 628.167 52.3334 636 59 642 c 2
 192 775 l 2
 201.333 784.333 212 789 224 789 c 0
 232.667 789 240.334 786.5 247 781.5 c 0
 253.667 776.5 259.333 770.333 264 763 c 1
 371 560 l 2
 377 549.333 378.667 537.667 376 525 c 0
 373.331 512.333 367.664 501.667 359 493 c 2
 310 444 l 2
 308.667 442.667 307.5 440.5 306.5 437.5 c 0
 305.5 434.5 305 432 305 430 c 0
 307.667 416 313.667 400 323 382 c 0
 331 366 343.333 346.5 360 323.5 c 0
 376.667 300.5 400.333 274 431 244 c 1
 461 213.333 487.667 189.5 511 172.5 c 0
 534.333 155.5 553.833 143 569.5 135 c 0
 585.167 127 597.167 122.167 605.5 120.5 c 2
 618 118 l 2
 619.333 118 621.5 118.5 624.5 119.5 c 0
 627.5 120.5 629.667 121.667 631 123 c 2
 688 181 l 1
 700 191.667 714 197 730 197 c 0
 741.333 197 750.333 195 757 191 c 1
 758 191 l 1
 951 77 l 2
 965 68.3333 973.333 57.3333 976 44 c 1
EndSplineSet
EndChar

StartChar: uniF024
Encoding: 61476 61476 18
Width: 1000
VWidth: 0
Flags: H
LayerCount: 2
Fore
SplineSet
807 367 m 1
 830.333 369.667 852.667 367.167 874 359.5 c 0
 895.333 351.832 914 340.165 930 324.5 c 0
 946 308.833 958.667 290 968 268 c 0
 977.333 246 982 222.333 982 197 c 0
 982 159.667 971.667 125.667 951 95 c 0
 945 85.6667 936.667 81 926 81 c 2
 82 81 l 2
 70 81 61.3333 86 56 96 c 1
 30.6667 137.333 18 182.667 18 232 c 0
 18 266 23.8333 298 35.5 328 c 0
 47.1667 358 63.3333 384 84 406 c 0
 104.667 428 128.5 445.5 155.5 458.5 c 0
 182.5 471.5 211.667 478 243 478 c 0
 259 478 274.667 476 290 472 c 1
 318 512 352.5 543 393.5 565 c 0
 434.5 587 478 598 524 598 c 0
 556.667 598 588.167 592.333 618.5 581 c 0
 648.833 569.664 676.5 553.831 701.5 533.5 c 0
 726.5 513.167 748 488.833 766 460.5 c 0
 784 432.167 797.667 401 807 367 c 1
EndSplineSet
EndChar

StartChar: uniF026
Encoding: 61478 61478 19
Width: 1000
VWidth: 0
Flags: H
LayerCount: 2
Fore
SplineSet
750 370 m 2
 750 230 l 2
 750 223.333 747.833 217.667 743.5 213 c 0
 739.167 208.333 733.667 206 727 206 c 2
 281 206 l 2
 274.333 206 268.666 208.333 264 213 c 0
 259.333 217.667 257 223.334 257 230 c 2
 257 370 l 2
 257 376.667 259.333 382.333 264 387 c 0
 268.667 391.667 274.333 394 281 394 c 2
 727 394 l 2
 733.667 394 739.167 391.667 743.5 387 c 0
 747.833 382.332 750 376.665 750 370 c 2
504 772 m 0
 568.667 772 629.667 759.667 687 735 c 0
 744.333 710.333 794.5 676.5 837.5 633.5 c 0
 880.5 590.5 914.333 540.333 939 483 c 0
 963.667 425.667 976 364.667 976 300 c 0
 976 234.667 963.667 173.5 939 116.5 c 0
 914.333 59.5 880.5 9.5 837.5 -33.5 c 0
 794.5 -76.5 744.333 -110.333 687 -135 c 0
 629.667 -159.667 568.667 -172 504 -172 c 0
 438.667 -172 377.333 -159.667 320 -135 c 0
 262.667 -110.333 212.667 -76.5 170 -33.5 c 0
 127.333 9.5 93.6667 59.5 69 116.5 c 0
 44.3333 173.5 32 234.667 32 300 c 0
 32 364.667 44.3333 425.667 69 483 c 0
 93.6667 540.333 127.333 590.5 170 633.5 c 0
 212.667 676.5 262.667 710.333 320 735 c 0
 377.334 759.667 438.667 772 504 772 c 0
504 647 m 0
 456 647 411 637.833 369 619.5 c 0
 327 601.166 290.333 576.332 259 545 c 0
 227.666 513.666 202.833 477 184.5 435 c 0
 166.167 393 157 348 157 300 c 0
 157 252 166.167 207 184.5 165 c 0
 202.833 123 227.667 86.3333 259 55 c 0
 290.333 23.6667 327 -1.16667 369 -19.5 c 0
 411 -37.8333 456 -47 504 -47 c 0
 552 -47 597 -37.8334 639 -19.5 c 0
 681 -1.16667 717.667 23.6667 749 55 c 0
 780.333 86.3333 805.167 123 823.5 165 c 0
 841.833 207 851 252 851 300 c 0
 851 348 841.833 393 823.5 435 c 0
 805.164 477 780.33 513.667 749 545 c 0
 717.667 576.333 681 601.167 639 619.5 c 0
 597 637.833 552 647 504 647 c 0
EndSplineSet
EndChar

StartChar: uniF028
Encoding: 61480 61480 20
Width: 1000
VWidth: 0
Flags: H
LayerCount: 2
Fore
SplineSet
511 -41 m 1
 501 -47.6667 490.333 -48.3333 479 -43 c 0
 467.667 -37.6667 462 -28.3333 462 -15 c 2
 462 136 l 1
 56 136 l 2
 46.6667 136 39 139 33 145 c 0
 27 151 24 158.333 24 167 c 2
 24 447 l 2
 24 456.333 27 464 33 470 c 0
 39 476 46.6667 479 56 479 c 2
 462 479 l 1
 462 630 l 2
 462 642.667 467.667 652 479 658 c 0
 490.333 664 501 663 511 655 c 1
 964 334 l 2
 972.667 327.333 977 319 977 309 c 2
 977 308 l 2
 977 298 972.667 289.667 964 283 c 2
 511 -41 l 1
 511 -41 l 1
EndSplineSet
EndChar

StartChar: uniF02A
Encoding: 61482 61482 21
Width: 1000
VWidth: 0
Flags: H
LayerCount: 2
Fore
SplineSet
489 655 m 1
 499.667 662.333 510.667 663.333 522 658 c 1
 533.333 651.333 539 642 539 630 c 2
 539 479 l 1
 945 479 l 2
 953.667 479 961 476 967 470 c 0
 973 464 976 456.333 976 447 c 2
 976 167 l 2
 976 158.333 973 151 967 145 c 0
 961 139 953.667 136 945 136 c 2
 539 136 l 1
 539 -15 l 2
 539 -28.3333 533.333 -37.6667 522 -43 c 0
 510.667 -48.3333 499.667 -47.6667 489 -41 c 1
 37 281 l 2
 28.3333 287.667 24 296 24 306 c 0
 24 316.667 28.3333 325.333 37 332 c 2
 489 655 l 1
 489 655 l 1
EndSplineSet
EndChar

StartChar: uniF02C
Encoding: 61484 61484 22
Width: 1000
VWidth: 0
Flags: H
LayerCount: 2
Fore
SplineSet
848 318 m 1
 856 308 856.667 297.333 850 286 c 1
 844.667 274.667 835.667 269 823 269 c 2
 671 269 l 1
 671 -137 l 2
 671 -146.333 668 -154 662 -160 c 0
 656 -166 648.667 -169 640 -169 c 2
 360 -169 l 2
 351.333 -169 344 -166 338 -160 c 0
 332 -154 329 -146.333 329 -137 c 2
 329 269 l 1
 177 269 l 2
 164.333 269 155.333 274.667 150 286 c 1
 143.333 297.333 144 308 152 318 c 1
 474 770 l 1
 479.335 779.333 487.669 784 499 784 c 0
 510.333 784 518.667 779.667 524 771 c 1
 848 318 l 1
 848 318 l 1
EndSplineSet
EndChar

StartChar: uniF02E
Encoding: 61486 61486 23
Width: 1000
VWidth: 0
Flags: H
LayerCount: 2
Fore
SplineSet
156 297 m 1
 148 307 147.333 317.667 154 329 c 1
 159.333 340.333 168.333 346 181 346 c 2
 333 346 l 1
 333 752 l 2
 333 761.333 336 769 342 775 c 0
 348 781 355.333 784 364 784 c 2
 644 784 l 2
 652.667 784 660 781 666 775 c 0
 672 769 675 761.333 675 752 c 2
 675 346 l 1
 827 346 l 2
 839.667 346 848.667 340.333 854 329 c 1
 860.667 317.667 860 307 852 297 c 1
 530 -156 l 1
 524.663 -164.667 516.329 -169 505 -169 c 0
 493.667 -169 485.333 -164.667 480 -156 c 1
 156 297 l 1
 156 297 l 1
EndSplineSet
EndChar

StartChar: uniF030
Encoding: 61488 61488 24
Width: 1000
VWidth: 0
Flags: H
LayerCount: 2
Fore
SplineSet
853 697 m 1
 861 697 867.833 694.167 873.5 688.5 c 0
 879.167 682.833 882 676 882 668 c 2
 882 584 l 2
 882 576 879.167 569.167 873.5 563.5 c 0
 867.833 557.833 861 555 853 555 c 2
 147 555 l 2
 139 555 132.167 557.833 126.5 563.5 c 0
 120.833 569.167 118 576 118 584 c 2
 118 668 l 2
 118 676 120.833 682.833 126.5 688.5 c 0
 132.167 694.167 139 697 147 697 c 2
 386 697 l 1
 386 734 l 2
 386 742 388.833 748.833 394.5 754.5 c 0
 400.167 760.167 406.667 763 414 763 c 2
 586 763 l 2
 593.333 763 599.833 760.167 605.5 754.5 c 0
 611.167 748.833 614 742 614 734 c 2
 614 697 l 1
 853 697 l 1
 853 697 l 1
814 502 m 1
 822 502 828.833 499.167 834.5 493.5 c 0
 840.167 487.833 843 481 843 473 c 2
 843 -134 l 2
 843 -142 840.167 -148.833 834.5 -154.5 c 0
 828.833 -160.167 822 -163 814 -163 c 2
 186 -163 l 2
 178 -163 171.167 -160.167 165.5 -154.5 c 0
 159.833 -148.833 157 -142 157 -134 c 2
 157 473 l 2
 157 481 159.833 487.833 165.5 493.5 c 0
 171.167 499.167 178 502 186 502 c 2
 814 502 l 1
 814 502 l 1
EndSplineSet
EndChar

StartChar: uniF032
Encoding: 61490 61490 25
Width: 1000
VWidth: 0
Flags: H
LayerCount: 2
Fore
SplineSet
722 769 m 1
 729.333 769 735.333 766.667 740 762 c 0
 744.667 757.333 747 751.333 747 744 c 2
 747 466 l 1
 666 466 l 1
 666 688 l 1
 361 688 l 1
 361 525 l 2
 361 518.333 358 515 352 515 c 2
 186 515 l 1
 186 -58 l 1
 546 -58 l 1
 546 -140 l 1
 130 -140 l 2
 122.667 -140 116.667 -137.5 112 -132.5 c 0
 107.333 -127.5 105 -121.333 105 -114 c 2
 105 525 l 1
 105 574 l 1
 105 577 l 1
 106 577 l 1
 106 578.333 106.667 579.667 108 581 c 2
 296 766 l 1
 296 769 l 1
 302 769 l 1
 302.667 769.667 303.333 770 304 770 c 2
 352 770 l 1
 354 769 l 1
 722 769 l 1
 722 769 l 1
956 193 m 1
 964.667 193 969 188.667 969 180 c 2
 969 59 l 2
 969 50.3333 964.667 46 956 46 c 2
 784 46 l 1
 784 -127 l 2
 784 -135.667 779.667 -140 771 -140 c 2
 650 -140 l 2
 641.333 -140 637 -135.667 637 -127 c 2
 637 46 l 1
 464 46 l 2
 455.333 46 451 50.3333 451 59 c 2
 451 180 l 2
 451 188.667 455.333 193 464 193 c 2
 637 193 l 1
 637 366 l 2
 637 374.667 641.333 379 650 379 c 2
 771 379 l 2
 779.667 379 784 374.667 784 366 c 2
 784 193 l 1
 956 193 l 1
 956 193 l 1
EndSplineSet
EndChar

StartChar: uniF034
Encoding: 61492 61492 26
Width: 1000
VWidth: 0
Flags: H
LayerCount: 2
Fore
SplineSet
569 119 m 1
 500 188 l 1
 467 85 l 1
 569 119 l 1
944 438 m 2
 947.333 434.667 949 430.667 949 426 c 0
 949 421.333 947.333 417.333 944 414 c 2
 610 80 l 2
 609.333 79.3333 607.333 78 604 76 c 1
 419 16 l 2
 418.33 16 417.663 15.8333 417 15.5 c 0
 416.333 15.1667 415.333 15 414 15 c 0
 409.333 15 405.333 16.6667 402 20 c 0
 396.667 24.6667 395.333 30.6667 398 38 c 2
 457 221 l 2
 457.667 223.667 459.667 226.667 463 230 c 2
 702 469 l 1
 702 688 l 1
 397 688 l 1
 397 525 l 2
 397 518.333 394 515 388 515 c 2
 223 515 l 1
 223 -58 l 1
 343 -58 l 1
 582 -58 l 1
 702 -58 l 1
 702 70 l 1
 716.667 84 728.167 95.1667 736.5 103.5 c 0
 744.833 111.833 751.667 118.333 757 123 c 2
 769 135 l 2
 774.333 140.333 778.167 141.667 780.5 139 c 0
 782.833 136.333 784 132.667 784 128 c 2
 784 -112 l 2
 784 -120 781.5 -126.667 776.5 -132 c 0
 771.5 -137.333 765.333 -140 758 -140 c 2
 582 -140 l 1
 343 -140 l 1
 166 -140 l 2
 158.667 -140 152.667 -137.5 148 -132.5 c 0
 143.333 -127.5 141 -121.333 141 -114 c 2
 141 525 l 1
 141 574 l 1
 141 577 l 1
 142 577 l 1
 142 578.333 142.667 579.667 144 581 c 2
 332 766 l 1
 332 769 l 1
 338 769 l 1
 338.667 769.667 339.333 770 340 770 c 2
 388 770 l 1
 390 769 l 1
 758 769 l 2
 765.333 769 771.5 766.667 776.5 762 c 0
 781.5 757.333 784 751.333 784 744 c 2
 784 551 l 1
 796 563 l 2
 799.333 566.333 803.333 568 808 568 c 0
 812.667 568 816.667 566.333 820 563 c 2
 944 438 l 2
EndSplineSet
EndChar

StartChar: uniF036
Encoding: 61494 61494 27
Width: 1000
VWidth: 0
Flags: H
LayerCount: 2
Fore
SplineSet
378 373 m 1
 611 373 l 1
 611 475 l 1
 611 476 l 2
 611 492 607.833 507 601.5 521 c 0
 595.167 535 586.667 547.167 576 557.5 c 0
 565.333 567.833 553 576 539 582 c 0
 525 588 510 591 494 591 c 0
 478 591 463 588 449 582 c 0
 435 576 422.667 567.667 412 557 c 0
 401.333 546.333 393 534 387 520 c 0
 381 506 378 491 378 475 c 2
 378 373 l 1
883 373 m 1
 891.667 373 899 370 905 364 c 0
 911 358 914 350.667 914 342 c 2
 914 -118 l 2
 914 -126.667 911 -134 905 -140 c 0
 899 -146 891.667 -149 883 -149 c 2
 117 -149 l 2
 108.333 -149 101 -146 95 -140 c 0
 89 -134 86 -126.667 86 -118 c 2
 86 342 l 2
 86 350.667 89 358 95 364 c 0
 101 370 108.333 373 117 373 c 2
 161 373 l 1
 212 373 l 1
 212 475 l 2
 212 513.668 219.5 550.334 234.5 585 c 0
 249.5 619.667 269.667 649.667 295 675 c 0
 320.334 700.333 350.167 720.5 384.5 735.5 c 0
 418.833 750.5 455.333 758 494 758 c 0
 532.668 758 569.334 750.5 604 735.5 c 0
 638.667 720.5 668.667 700.333 694 675 c 0
 719.333 649.667 739.5 619.667 754.5 585 c 0
 769.5 550.333 777 513.667 777 475 c 2
 777 474 l 1
 777 373 l 1
 839 373 l 1
 883 373 l 1
 883 373 l 1
EndSplineSet
EndChar

StartChar: uniF038
Encoding: 61496 61496 28
Width: 1000
VWidth: 0
Flags: H
LayerCount: 2
Fore
SplineSet
883 356 m 1
 891.667 356 899 353 905 347 c 0
 911 341 914 333.667 914 325 c 2
 914 -135 l 2
 914 -144.333 911 -151.833 905 -157.5 c 0
 899 -163.167 891.667 -166 883 -166 c 2
 117 -166 l 2
 108.333 -166 101 -163.167 95 -157.5 c 0
 89 -151.833 86 -144.333 86 -135 c 2
 86 325 l 2
 86 333.667 89 341 95 347 c 0
 101 353 108.333 356 117 356 c 2
 161 356 l 1
 229 356 l 1
 229 487 l 2
 229 525.667 236.5 562.334 251.5 597 c 0
 266.5 631.667 286.667 661.667 312 687 c 0
 337.333 712.333 367.167 732.5 401.5 747.5 c 0
 435.834 762.5 472.667 770 512 770 c 0
 550.668 770 586.834 762.667 620.5 748 c 0
 654.168 733.333 683.835 713.5 709.5 688.5 c 0
 735.167 663.5 755.5 634.167 770.5 600.5 c 0
 785.5 566.833 793.333 530.667 794 492 c 0
 794.667 491.318 795 489.652 795 487 c 0
 795 480.33 792.833 474.663 788.5 470 c 0
 784.167 465.333 778.667 463 772 463 c 2
 771 463 l 1
 651 463 l 2
 644.333 463 638.833 465.333 634.5 470 c 0
 630.167 474.667 628 480.333 628 487 c 0
 628 503 625 518 619 532 c 0
 613 546 604.667 558.333 594 569 c 0
 583.333 579.667 571 588 557 594 c 0
 543 600 528 603 512 603 c 0
 496 603 481 600 467 594 c 0
 453 588 440.667 579.667 430 569 c 0
 419.333 558.333 411 546 405 532 c 0
 399 518 396 503 396 487 c 2
 396 356 l 1
 682 356 l 1
 839 356 l 1
 883 356 l 1
 883 356 l 1
EndSplineSet
EndChar

StartChar: uniF03A
Encoding: 61498 61498 29
Width: 1000
VWidth: 0
Flags: H
LayerCount: 2
Fore
SplineSet
948 321 m 2
 948 314.333 945.333 309 940 305 c 0
 934 301 927.667 300 921 302 c 2
 585 417 l 2
 577 419.667 572.333 425 571 433 c 0
 569.684 441 572.351 447.333 579 452 c 2
 658 508 l 1
 671 518 l 1
 647.667 536.667 621.5 551.167 592.5 561.5 c 0
 563.5 571.833 532.667 577 500 577 c 0
 462 577 426.167 569.667 392.5 555 c 0
 358.833 540.333 329.5 520.5 304.5 495.5 c 0
 279.5 470.5 259.667 441.167 245 407.5 c 0
 230.333 373.833 223 338 223 300 c 0
 223 262 230.333 226.167 245 192.5 c 0
 259.667 158.833 279.5 129.5 304.5 104.5 c 0
 329.5 79.5 358.833 59.6667 392.5 45 c 0
 426.167 30.3333 462 23 500 23 c 0
 546.668 23 590.334 33.6667 631 55 c 0
 671.667 76.3334 704.667 106.333 730 145 c 0
 734 151 739.5 154.667 746.5 156 c 0
 753.5 157.333 759.667 156 765 152 c 2
 883 70 l 2
 887.667 67.3333 890.667 62.3333 892 55 c 1
 894 49.6667 893 44 889 38 c 0
 867 5.33333 841.667 -23.8333 813 -49.5 c 0
 784.333 -75.1666 753.333 -96.8333 720 -114.5 c 0
 686.665 -132.167 651.332 -145.667 614 -155 c 0
 576.667 -164.333 538.667 -169 500 -169 c 0
 435.333 -169 374.5 -156.667 317.5 -132 c 0
 260.5 -107.333 210.833 -73.8333 168.5 -31.5 c 0
 126.167 10.8333 92.6666 60.5 68 117.5 c 0
 43.3333 174.5 31 235.333 31 300 c 0
 31 364.667 43.3333 425.5 68 482.5 c 0
 92.6667 539.5 126.167 589.167 168.5 631.5 c 0
 210.833 673.833 260.5 707.333 317.5 732 c 0
 374.5 756.667 435.333 769 500 769 c 0
 564.667 769 625.167 756.667 681.5 732 c 0
 737.833 707.333 787.333 673.667 830 631 c 1
 836 636 l 1
 915 692 l 2
 921 696.688 928 697.355 936 694 c 1
 943.333 689.333 947 683.333 947 676 c 2
 948 321 l 2
EndSplineSet
EndChar

StartChar: uniF03C
Encoding: 61500 61500 30
Width: 1000
VWidth: 0
Flags: H
LayerCount: 2
Fore
SplineSet
255 -183 m 0
 237.666 -183 218.333 -179.167 197 -171.5 c 0
 175.667 -163.833 154 -149 132 -127 c 0
 117.333 -112.333 105.833 -98 97.5 -84 c 0
 89.1667 -70 82.8333 -56.5 78.5 -43.5 c 0
 74.1667 -30.5 71.5 -18.3333 70.5 -7 c 0
 69.5 4.33333 69.6667 14.6667 71 24 c 0
 75.6667 66.6667 97.3333 107.667 136 147 c 2
 506 517 l 2
 532 543 555.667 560.833 577 570.5 c 0
 598.333 580.176 617.5 584.842 634.5 584.5 c 0
 651.5 584.167 666.333 580.5 679 573.5 c 0
 691.667 566.5 702 559 710 551 c 0
 720 541 728.333 529.5 735 516.5 c 0
 741.689 503.5 744.856 488.5 744.5 471.5 c 0
 744.155 454.5 738.822 435.833 728.5 415.5 c 0
 718.167 395.167 700.667 372.667 676 348 c 2
 335 7 l 1
 269 74 l 1
 609 414 l 2
 622.333 427.334 631.833 438.167 637.5 446.5 c 0
 643.186 454.837 646.853 461.67 648.5 467 c 0
 650.167 472.333 650.167 476.333 648.5 479 c 0
 646.833 481.667 645.333 483.667 644 485 c 0
 642.667 485.667 640.667 486.833 638 488.5 c 0
 635.333 490.167 631.333 490.333 626 489 c 0
 620.667 487.667 613.667 484.167 605 478.5 c 0
 596.333 472.832 585.667 463.665 573 451 c 2
 203 81 l 2
 195 73 186.833 63 178.5 51 c 0
 170.167 39 165.333 26.3333 164 13 c 0
 161.333 -9.66667 172.667 -34.3333 198 -61 c 1
 214.667 -77 228.667 -85.8333 240 -87.5 c 0
 251.333 -89.1667 259 -89.6667 263 -89 c 0
 285.667 -85.6667 309.667 -71 335 -45 c 2
 774 394 l 2
 810 429.334 832.667 463.667 842 497 c 0
 854.663 544.333 838.33 590.667 793 636 c 0
 781 648 767.167 659.167 751.5 669.5 c 0
 735.833 679.833 718 686 698 688 c 0
 678 690 655.833 686 631.5 676 c 0
 607.166 666 580.332 646.333 551 617 c 2
 146 212 l 2
 136.667 202.667 125.5 198 112.5 198 c 0
 99.5 198 88.3333 202.667 79 212 c 0
 69.6667 221.333 65 232.333 65 245 c 0
 65 257.667 69.6667 268.667 79 278 c 2
 484 683 l 2
 547.333 745.667 611.5 778.667 676.5 782 c 0
 741.5 785.333 802.667 758.667 860 702 c 0
 882 680 898.833 658.333 910.5 637 c 0
 922.174 615.667 930.34 595.167 935 575.5 c 0
 939.695 555.833 941.362 537.167 940 519.5 c 0
 938.667 501.833 936 486 932 472 c 0
 918 422.667 887.333 374.333 840 327 c 2
 401 -112 l 2
 360.333 -152.667 318.666 -176 276 -182 c 0
 272.667 -182 269.167 -182.167 265.5 -182.5 c 0
 261.833 -182.833 258.333 -183 255 -183 c 0
EndSplineSet
EndChar

StartChar: uniF03E
Encoding: 61502 61502 31
Width: 1000
VWidth: 0
Flags: H
LayerCount: 2
Fore
SplineSet
533 378 m 1
 674 297 l 1
 533 215 l 1
 393 134 l 1
 393 297 l 1
 393 459 l 1
 533 378 l 1
860 544 m 1
 140 544 l 1
 140 56 l 1
 860 56 l 1
 860 544 l 1
82 -61 m 2
 66 -61 52.1667 -55.3333 40.5 -44 c 0
 28.8333 -32.6667 23 -18.6667 23 -2 c 2
 23 602 l 2
 23 618.667 28.8333 632.667 40.5 644 c 0
 52.1667 655.333 66 661 82 661 c 2
 918 661 l 2
 934 661 947.833 655.333 959.5 644 c 0
 971.167 632.667 977 618.667 977 602 c 2
 977 -2 l 2
 977 -18.6667 971.167 -32.6667 959.5 -44 c 0
 947.833 -55.3333 934 -61 918 -61 c 2
 82 -61 l 2
EndSplineSet
EndChar

StartChar: uniF040
Encoding: 61504 61504 32
Width: 1000
VWidth: 0
Flags: H
LayerCount: 2
Fore
SplineSet
836 615 m 1
 164 615 l 1
 164 151 l 1
 836 151 l 1
 836 615 l 1
109 -125 m 2
 93.6667 -125 80.8333 -119.667 70.5 -109 c 0
 60.1667 -98.3333 55 -85.3333 55 -70 c 2
 55 670 l 2
 55 685.333 60.1667 698.333 70.5 709 c 0
 80.8334 719.667 93.6667 725 109 725 c 2
 891 725 l 2
 906.333 725 919.167 719.667 929.5 709 c 0
 939.833 698.333 945 685.333 945 670 c 2
 945 -70 l 2
 945 -85.3333 939.833 -98.3333 929.5 -109 c 0
 919.165 -119.667 906.332 -125 891 -125 c 2
 109 -125 l 2
EndSplineSet
EndChar

StartChar: uniF042
Encoding: 61506 61506 33
Width: 1000
VWidth: 0
Flags: H
LayerCount: 2
Fore
SplineSet
403 109 m 1
 398 109 l 2
 385.332 109 375.665 113 369 121 c 1
 310 180 l 1
 238 121 l 2
 228.667 113.667 218.167 110.333 206.5 111 c 0
 194.833 111.667 185.333 116.667 178 126 c 0
 170.667 135.333 167.5 145.833 168.5 157.5 c 0
 169.5 169.167 174.667 178.667 184 186 c 2
 285 270 l 2
 293.667 276.667 303.5 279.667 314.5 279 c 0
 325.5 278.333 334.667 274.333 342 267 c 2
 391 218 l 1
 499 386 l 2
 503.667 392.667 509.333 397.833 516 401.5 c 0
 522.667 405.167 530 406.667 538 406 c 0
 554.668 404.667 566.334 396.333 573 381 c 2
 637 247 l 1
 760 463 l 2
 766 473.667 774.667 480.5 786 483.5 c 0
 797.333 486.5 808 485 818 479 c 0
 828 473.667 834.5 465.333 837.5 454 c 0
 840.5 442.667 839.333 431.667 834 421 c 2
 670 134 l 2
 661.333 118.667 648.667 111.667 632 113 c 0
 624 113 616.667 115.167 610 119.5 c 0
 603.333 123.833 598.333 129.667 595 137 c 2
 529 276 l 1
 434 128 l 2
 426.667 116.667 416.333 110.333 403 109 c 1
863 546 m 1
 137 546 l 1
 137 54 l 1
 863 54 l 1
 863 546 l 1
77 -65 m 2
 61 -65 47.1667 -59.1667 35.5 -47.5 c 0
 23.8333 -35.8333 18 -21.6667 18 -5 c 2
 18 605 l 2
 18 621.671 23.8333 635.838 35.5 647.5 c 0
 47.1667 659.167 61 665 77 665 c 2
 923 665 l 2
 939 665 952.833 659.167 964.5 647.5 c 0
 976.167 635.833 982 621.667 982 605 c 2
 982 -5 l 2
 982 -21.6667 976.167 -35.8333 964.5 -47.5 c 0
 952.833 -59.1667 939 -65 923 -65 c 2
 77 -65 l 2
EndSplineSet
EndChar

StartChar: uniF044
Encoding: 61508 61508 34
Width: 1000
VWidth: 0
Flags: H
LayerCount: 2
Fore
SplineSet
603 -91 m 2
 607 -91 610.5 -92.5 613.5 -95.5 c 0
 616.5 -98.5 618 -102 618 -106 c 2
 618 -140 l 2
 618 -144.667 616.5 -148.5 613.5 -151.5 c 0
 610.5 -154.5 607 -156 603 -156 c 2
 408 -156 l 2
 397.333 -156 392 -150.667 392 -140 c 2
 392 -106 l 2
 392 -102 393.5 -98.5 396.5 -95.5 c 0
 399.5 -92.5 403.333 -91 408 -91 c 2
 603 -91 l 2
603 6 m 2
 607 6 610.5 4.5 613.5 1.5 c 0
 616.5 -1.5 618 -5.33333 618 -10 c 2
 618 -44 l 2
 618 -48 616.5 -51.5 613.5 -54.5 c 0
 610.5 -57.5 607 -59 603 -59 c 2
 408 -59 l 2
 403.333 -59 399.5 -57.5 396.5 -54.5 c 0
 393.5 -51.5 392 -48 392 -44 c 2
 392 -10 l 2
 392 0.666667 397.333 6 408 6 c 2
 603 6 l 2
804 316 m 1
 804 316 l 1
 887 303 l 2
 895.667 301.667 902.667 297.833 908 291.5 c 0
 913.333 285.167 915.333 278.333 914 271 c 0
 912.667 263 908.667 256.833 902 252.5 c 0
 895.333 248.167 887.333 246.667 878 248 c 2
 795 261 l 2
 785.667 262.333 778.5 266.333 773.5 273 c 0
 768.5 279.667 766.667 286.667 768 294 c 0
 769.333 301.334 773.333 307.167 780 311.5 c 0
 786.667 315.833 794.667 317.333 804 316 c 1
795 505 m 1
 795 505 l 1
 872 539 l 2
 880 543 887.833 543.833 895.5 541.5 c 0
 903.167 539.158 908.667 534.325 912 527 c 0
 915.333 519.663 915.333 512.329 912 505 c 0
 908.667 497.667 902.667 492.333 894 489 c 2
 817 454 l 2
 809 450.667 801.167 450.167 793.5 452.5 c 0
 785.833 454.837 780.333 459.67 777 467 c 0
 773.667 474.337 773.833 481.67 777.5 489 c 0
 781.167 496.337 787 501.67 795 505 c 1
665 633 m 1
 665 633 l 1
 711 704 l 2
 716.333 711.333 722.833 716.167 730.5 718.5 c 0
 738.178 720.833 745.345 720 752 716 c 0
 758.667 711.333 762.5 705 763.5 697 c 0
 764.5 689 762.667 681.333 758 674 c 2
 712 603 l 2
 706.667 595.658 700.167 590.824 692.5 588.5 c 0
 684.833 586.167 677.667 587 671 591 c 0
 664.333 595 660.333 601.167 659 609.5 c 0
 657.667 617.833 659.667 625.667 665 633 c 1
207 316 m 1
 215.667 317.333 223.5 315.833 230.5 311.5 c 0
 237.5 307.167 241.667 301.333 243 294 c 0
 244.333 286.667 242.333 279.667 237 273 c 0
 231.666 266.333 224.333 262.333 215 261 c 2
 132 248 l 2
 123.333 246.667 115.5 248.167 108.5 252.5 c 0
 101.5 256.833 97.3333 263 96 271 c 0
 94.6667 278.335 96.6667 285.169 102 291.5 c 0
 107.333 297.836 114.667 301.669 124 303 c 2
 207 316 l 1
 207 316 l 1
216 505 m 1
 224 501.667 229.833 496.333 233.5 489 c 0
 237.174 481.667 237.341 474.333 234 467 c 0
 230.667 459.667 225 454.833 217 452.5 c 0
 209 450.167 201 450.667 193 454 c 2
 116 489 l 2
 108 492.337 102.167 497.67 98.5 505 c 0
 94.8319 512.333 94.6652 519.667 98 527 c 0
 101.333 534.333 106.833 539.167 114.5 541.5 c 0
 122.167 543.833 130.333 543 139 539 c 2
 216 505 l 1
 216 505 l 1
345 633 m 1
 350.333 625.662 352.333 617.829 351 609.5 c 0
 349.667 601.167 345.667 595 339 591 c 0
 333 587 326 586.167 318 588.5 c 0
 310 590.833 303.667 595.667 299 603 c 2
 253 674 l 2
 247.667 681.333 245.667 689 247 697 c 0
 248.333 705 252.333 711.333 259 716 c 0
 265 720 272 720.833 280 718.5 c 0
 288 716.156 294.333 711.322 299 704 c 2
 345 633 l 1
 345 633 l 1
534 659 m 1
 534 649.667 531.333 642 526 636 c 0
 520.667 630 514 627 506 627 c 0
 498.667 627 492.333 630 487 636 c 0
 481.667 642 479 649.667 479 659 c 2
 479 743 l 2
 479 752.333 481.667 760 487 766 c 0
 492.334 772 498.667 775 506 775 c 0
 514 775 520.667 772 526 766 c 0
 531.333 760 534 752.333 534 743 c 2
 534 659 l 1
 534 659 l 1
728 390 m 0
 728 388.667 727.833 387.667 727.5 387 c 0
 727.167 386.333 727 385.333 727 384 c 2
 727 381 l 2
 727 369 725.333 355.667 722 341 c 0
 717.333 315.667 708.5 289.5 695.5 262.5 c 0
 682.5 235.5 668.333 206.667 653 176 c 0
 643 156 636 137.833 632 121.5 c 0
 628 105.167 624.833 91 622.5 79 c 0
 620.167 67 617.667 57.5 615 50.5 c 0
 612.333 43.5 607.333 39.3333 600 38 c 1
 410 38 l 1
 402.667 39.3333 397.667 43.5 395 50.5 c 0
 392.333 57.5 389.833 67 387.5 79 c 0
 385.167 91 382 105.167 378 121.5 c 0
 374 137.833 367 156 357 176 c 0
 341.667 206.667 327.5 235.5 314.5 262.5 c 0
 301.5 289.5 292.667 315.667 288 341 c 0
 286.667 347.667 285.667 354.333 285 361 c 2
 283 381 l 1
 283 390 l 2
 283 422 288.5 450 299.5 474 c 0
 310.5 498.001 325.833 518.334 345.5 535 c 0
 365.167 551.667 388.5 564.167 415.5 572.5 c 0
 442.5 580.833 472 585 504 585 c 2
 505 585 l 1
 506 585 l 2
 538 585 567.5 580.833 594.5 572.5 c 0
 621.5 564.167 644.833 551.667 664.5 535 c 0
 684.167 518.333 699.667 498 711 474 c 0
 722.333 450 728 422 728 390 c 0
EndSplineSet
EndChar

StartChar: uniF046
Encoding: 61510 61510 35
Width: 1000
VWidth: 0
Flags: H
LayerCount: 2
Fore
SplineSet
638 708 m 1
 638 714 638.833 718.5 640.5 721.5 c 0
 642.186 724.5 644.353 726.167 647 726.5 c 0
 649.687 726.833 652.353 726.667 655 726 c 0
 657.667 725.333 659.667 724.667 661 724 c 0
 676.333 715.333 687.5 707.167 694.5 699.5 c 0
 701.5 691.833 705 686.333 705 683 c 2
 705 453 l 1
 705 327 l 1
 705 187 l 2
 705 183 701.667 176.833 695 168.5 c 0
 688.333 160.166 677.167 151.833 661.5 143.5 c 0
 645.833 135.167 625.167 127.667 599.5 121 c 0
 573.833 114.333 542.333 111 505 111 c 0
 467 111 434.833 114.333 408.5 121 c 0
 382.167 127.667 360.5 135.167 343.5 143.5 c 0
 326.5 151.833 314.167 160.167 306.5 168.5 c 0
 298.833 176.833 295 183 295 187 c 2
 295 327 l 1
 295 453 l 1
 295 683 l 2
 295 686.333 298.167 691.833 304.5 699.5 c 0
 310.833 707.172 321 715.339 335 724 c 0
 337 724.667 339.5 725.667 342.5 727 c 0
 345.5 728.333 348.5 728.667 351.5 728 c 0
 354.5 727.333 357 725.667 359 723 c 0
 361 720.333 362 716 362 710 c 2
 362 639 l 2
 362 637 363.5 633.167 366.5 627.5 c 0
 369.5 621.833 374.667 619 382 619 c 0
 389.334 619 394.667 621.833 398 627.5 c 0
 401.333 633.167 403 637 403 639 c 2
 403 724 l 2
 403 737.333 405.167 745.333 409.5 748 c 0
 413.836 750.69 417.67 752.356 421 753 c 0
 427.667 754.333 434 755.5 440 756.5 c 0
 446 757.5 453 758 461 758 c 0
 465.667 758 469.833 756.167 473.5 752.5 c 0
 477.167 748.833 479 739.333 479 724 c 2
 479 639 l 2
 479 637 480.667 633.167 484 627.5 c 0
 487.337 621.833 492.67 619 500 619 c 0
 507.333 619 512.667 621.833 516 627.5 c 0
 519.333 633.167 521 637 521 639 c 2
 521 724 l 2
 521 738 522.5 747.167 525.5 751.5 c 0
 528.5 755.833 532.667 757.667 538 757 c 0
 546.667 756.333 554.667 755.5 562 754.5 c 0
 569.333 753.5 576.667 752.333 584 751 c 0
 586 750.333 588.667 748.5 592 745.5 c 0
 595.333 742.5 597 735.333 597 724 c 2
 597 639 l 2
 597 637 598.5 633.167 601.5 627.5 c 0
 604.5 621.833 609.667 619 617 619 c 0
 624.333 619 629.667 621.833 633 627.5 c 0
 636.333 633.167 638 637 638 639 c 2
 638 708 l 1
 638 708 l 1
506 5 m 0
 559.333 5 605 10 643 20 c 0
 681 30 712.167 42.1667 736.5 56.5 c 0
 760.833 70.8333 778.667 86 790 102 c 0
 801.333 118 807 132 807 144 c 2
 807 345 l 2
 807 353.667 804.167 360.833 798.5 366.5 c 0
 792.833 372.167 785.667 375 777 375 c 0
 768.333 375 761.167 372.167 755.5 366.5 c 0
 749.833 360.832 747 353.665 747 345 c 2
 747 147 l 1
 745 143 739.5 136.5 730.5 127.5 c 0
 721.5 118.5 707.667 109.5 689 100.5 c 0
 670.333 91.5 646 83.5 616 76.5 c 0
 586 69.5 549.333 66 506 66 c 0
 462.667 66 425.5 69.5 394.5 76.5 c 0
 363.5 83.5 337.833 91.6667 317.5 101 c 0
 297.167 110.333 281.833 119.5 271.5 128.5 c 0
 261.167 137.5 255 144 253 148 c 1
 253 345 l 2
 253 353.667 250.167 360.833 244.5 366.5 c 0
 238.833 372.167 231.667 375 223 375 c 0
 214.333 375 207.167 372.167 201.5 366.5 c 0
 195.833 360.832 193 353.665 193 345 c 2
 193 144 l 2
 193 131.333 199.5 117 212.5 101 c 0
 225.5 85 245.167 69.8333 271.5 55.5 c 0
 297.833 41.1667 330.5 29.1667 369.5 19.5 c 0
 408.5 9.83333 454 5 506 5 c 0
585 43 m 1
 585 -95 l 1
 674 -95 l 2
 684 -95 689 -100 689 -110 c 2
 689 -143 l 2
 689 -147 687.667 -150.5 685 -153.5 c 0
 682.333 -156.5 678.667 -158 674 -158 c 2
 326 -158 l 2
 322 -158 318.5 -156.5 315.5 -153.5 c 0
 312.5 -150.5 311 -147 311 -143 c 2
 311 -110 l 2
 311 -105.333 312.5 -101.667 315.5 -99 c 0
 318.5 -96.3333 322 -95 326 -95 c 2
 416 -95 l 1
 416 43 l 1
 585 43 l 1
EndSplineSet
EndChar

StartChar: uniF048
Encoding: 61512 61512 36
Width: 1000
VWidth: 0
Flags: H
LayerCount: 2
Fore
SplineSet
917 487 m 1
 925 477 928 465 926 451 c 2
 888 233 l 2
 886.667 221.666 881.5 212.333 872.5 205 c 0
 863.5 197.667 853.333 194 842 194 c 2
 288 194 l 1
 277 132 l 1
 805 132 l 2
 817.667 132 828.667 127.5 838 118.5 c 0
 847.333 109.5 852 98.3333 852 85 c 0
 852 71.6667 847.333 60.5 838 51.5 c 0
 828.667 42.5 817.667 38 805 38 c 2
 221 38 l 2
 207 38 195 43.6667 185 55 c 0
 175.667 66.3333 172 79.3333 174 94 c 1
 199 230 l 1
 161 612 l 1
 53 646 l 2
 40.3333 650 31.1667 657.667 25.5 669 c 0
 19.8333 680.333 18.6666 692.333 22 705 c 0
 26 717.672 33.8333 726.839 45.5 732.5 c 0
 57.1667 738.189 69 739.356 81 736 c 2
 219 692 l 2
 227.667 689.333 234.834 684.333 240.5 677 c 0
 246.167 669.662 249.667 661.328 251 652 c 2
 259 576 l 1
 885 506 l 2
 899 504 909.667 497.667 917 487 c 1
292 12 m 0
 312 12 329 5 343 -9 c 0
 357 -23 364 -40 364 -60 c 0
 364 -80 357 -97.1667 343 -111.5 c 0
 329 -125.833 312 -133 292 -133 c 0
 272 -133 255 -125.833 241 -111.5 c 0
 227 -97.1667 220 -80 220 -60 c 0
 220 -40 227 -23 241 -9 c 0
 255 5 272 12 292 12 c 0
719 12 m 0
 739 12 756 5 770 -9 c 0
 784 -23 791 -40 791 -60 c 0
 791 -80 784 -97.1667 770 -111.5 c 0
 756 -125.833 739 -133 719 -133 c 0
 699 -133 682 -125.833 668 -111.5 c 0
 654 -97.1667 647 -80 647 -60 c 0
 647 -40 654 -23 668 -9 c 0
 682 5 699 12 719 12 c 0
EndSplineSet
EndChar

StartChar: uniF04A
Encoding: 61514 61514 37
Width: 1000
VWidth: 0
Flags: H
LayerCount: 2
Fore
SplineSet
682 226 m 2
 682 238.667 676.333 248 665 254 c 2
 508 329 l 1
 526 340.333 540.667 356.833 552 378.5 c 0
 563.333 400.167 569 424 569 450 c 0
 569 468.667 566 486.333 560 503 c 0
 554 519.667 545.667 534.167 535 546.5 c 0
 524.333 558.833 511.833 568.667 497.5 576 c 0
 483.167 583.333 468 587 452 587 c 0
 436 587 420.833 583.333 406.5 576 c 0
 392.167 568.662 379.667 558.829 369 546.5 c 0
 358.333 534.167 349.833 519.667 343.5 503 c 0
 337.167 486.332 334 468.666 334 450 c 0
 334 423.333 339.833 399.166 351.5 377.5 c 0
 363.167 355.833 378.667 339.333 398 328 c 1
 239 254 l 2
 233.667 252 229.5 248.333 226.5 243 c 0
 223.5 237.667 222 232 222 226 c 2
 222 100 l 2
 222 91.3333 224.5 84 229.5 78 c 0
 234.5 72 240.667 69 248 69 c 2
 655 69 l 2
 662.333 69 668.667 72 674 78 c 0
 679.333 84 682 91.3333 682 100 c 2
 682 226 l 2
890 570 m 1
 890 487 l 1
 957 487 l 2
 965 487 971.833 484.167 977.5 478.5 c 0
 983.167 472.833 986 466 986 458 c 2
 986 371 l 2
 986 363 983.167 356.167 977.5 350.5 c 0
 971.833 344.833 965 342 957 342 c 2
 890 342 l 1
 890 259 l 1
 957 259 l 2
 965 259 971.833 256.167 977.5 250.5 c 0
 983.167 244.833 986 238 986 230 c 2
 986 143 l 2
 986 135 983.167 128.167 977.5 122.5 c 0
 971.833 116.833 965 114 957 114 c 2
 890 114 l 1
 890 31 l 1
 957 31 l 2
 965 31 971.833 28.1667 977.5 22.5 c 0
 983.167 16.8333 986 10 986 2 c 2
 986 -85 l 2
 986 -93 983.167 -99.8333 977.5 -105.5 c 0
 971.833 -111.167 965 -114 957 -114 c 2
 890 -114 l 1
 890 -138 l 2
 890 -151.333 885.5 -162.5 876.5 -171.5 c 0
 867.5 -180.5 856.333 -185 843 -185 c 2
 62 -185 l 2
 48.6667 -185 37.5 -180.5 28.5 -171.5 c 0
 19.5 -162.5 15 -151.333 15 -138 c 2
 15 738 l 2
 15 751.333 19.5 762.5 28.5 771.5 c 0
 37.5 780.5 48.6667 785 62 785 c 2
 843 785 l 2
 856.333 785 867.5 780.5 876.5 771.5 c 0
 885.5 762.5 890 751.333 890 738 c 2
 890 715 l 1
 957 715 l 2
 965 715 971.833 712.167 977.5 706.5 c 0
 983.167 700.833 986 694 986 686 c 2
 986 599 l 2
 986 591 983.167 584.167 977.5 578.5 c 0
 971.833 572.833 965 570 957 570 c 2
 890 570 l 1
EndSplineSet
EndChar

StartChar: uniF04C
Encoding: 61516 61516 38
Width: 1000
VWidth: 0
Flags: H
LayerCount: 2
Fore
SplineSet
713 514 m 0
 722.333 504.667 724 495 718 485 c 2
 571 239 l 2
 569.667 236.333 567 233.667 563 231 c 2
 315 82 l 2
 311.667 80 307.667 79 303 79 c 0
 296.333 79 291 81.3333 287 86 c 2
 286 87 l 2
 282 90.3335 279.667 94.6668 279 100 c 0
 278.333 105.333 279.333 110.667 282 116 c 2
 431 363 l 2
 433.667 367 436.333 369.667 439 371 c 2
 685 518 l 2
 689.667 520.667 694.667 521.667 700 521 c 0
 705.333 520.333 709.667 518 713 514 c 0
500 772 m 0
 564.667 772 625.667 759.667 683 735 c 0
 740.333 710.333 790.5 676.5 833.5 633.5 c 0
 876.5 590.5 910.333 540.333 935 483 c 0
 959.667 425.667 972 364.667 972 300 c 0
 972 234.667 959.667 173.5 935 116.5 c 0
 910.333 59.5 876.5 9.5 833.5 -33.5 c 0
 790.5 -76.5 740.333 -110.333 683 -135 c 0
 625.667 -159.667 564.667 -172 500 -172 c 0
 434.667 -172 373.5 -159.667 316.5 -135 c 0
 259.5 -110.333 209.5 -76.5 166.5 -33.5 c 0
 123.5 9.5 89.6667 59.5 65 116.5 c 0
 40.3333 173.5 28 234.667 28 300 c 0
 28 364.667 40.3333 425.667 65 483 c 0
 89.6667 540.333 123.5 590.5 166.5 633.5 c 0
 209.5 676.5 259.5 710.333 316.5 735 c 0
 373.5 759.667 434.667 772 500 772 c 0
500 647 m 0
 452 647 407 637.833 365 619.5 c 0
 323 601.166 286.333 576.332 255 545 c 0
 223.667 513.666 198.833 477 180.5 435 c 0
 162.167 393 153 348 153 300 c 0
 153 252 162.167 207 180.5 165 c 0
 198.833 123 223.667 86.3333 255 55 c 0
 286.333 23.6667 323 -1.16667 365 -19.5 c 0
 407 -37.8333 452 -47 500 -47 c 0
 548 -47 593 -37.8334 635 -19.5 c 0
 677 -1.16667 713.667 23.6667 745 55 c 0
 776.333 86.3333 801.167 123 819.5 165 c 0
 837.833 207 847 252 847 300 c 0
 847 348 837.833 393 819.5 435 c 0
 801.164 477 776.33 513.667 745 545 c 0
 713.667 576.333 677 601.167 635 619.5 c 0
 593 637.833 548 647 500 647 c 0
EndSplineSet
EndChar

StartChar: uniF04E
Encoding: 61518 61518 39
Width: 1000
VWidth: 0
Flags: H
LayerCount: 2
Fore
SplineSet
891 714 m 0
 901 716.667 909.5 716.667 916.5 714 c 0
 923.5 711.333 929 707.167 933 701.5 c 0
 937 695.833 940 689.167 942 681.5 c 0
 944 673.833 945 666.333 945 659 c 2
 945 296 l 2
 945 272.667 943.167 256.167 939.5 246.5 c 0
 935.833 236.833 928.333 228 917 220 c 0
 903.667 210.666 887.167 200.333 867.5 189 c 0
 847.833 177.666 826 167.333 802 158 c 0
 778 148.667 752.667 141.167 726 135.5 c 0
 699.333 129.833 672.5 127.833 645.5 129.5 c 0
 618.5 131.167 591.833 137.167 565.5 147.5 c 0
 539.167 157.833 514.667 174.333 492 197 c 0
 464.667 224.333 436.667 243.5 408 254.5 c 0
 379.333 265.5 351.333 271.333 324 272 c 0
 296.667 272.667 270.667 269.5 246 262.5 c 0
 221.333 255.5 199.333 247.667 180 239 c 1
 180 -112 l 2
 180 -129.333 173.833 -144 161.5 -156 c 0
 149.167 -168 134.333 -174 117 -174 c 0
 99.6667 -174 85 -168 73 -156 c 0
 61 -144 55 -129.333 55 -112 c 2
 55 252 l 1
 55 451 l 1
 55 659 l 2
 55 663.672 62.3333 671.838 77 683.5 c 0
 91.6667 695.172 111 707.339 135 720 c 0
 159 732.667 186.333 744.167 217 754.5 c 0
 247.667 764.833 279.167 771.167 311.5 773.5 c 0
 343.834 775.833 375.667 772.833 407 764.5 c 0
 438.334 756.164 466.667 739.331 492 714 c 0
 517.333 688.664 543.833 670.831 571.5 660.5 c 0
 599.167 650.164 626.667 644.831 654 644.5 c 0
 681.333 644.167 707.833 647.167 733.5 653.5 c 0
 759.167 659.833 782.5 667.333 803.5 676 c 0
 824.5 684.667 842.667 692.667 858 700 c 0
 873.333 707.333 884.333 712 891 714 c 0
EndSplineSet
EndChar

StartChar: uniF050
Encoding: 61520 61520 40
Width: 1000
VWidth: 0
Flags: H
LayerCount: 2
Fore
SplineSet
854 410 m 1
 855 410 l 1
 854.333 408.667 854 406 854 402 c 2
 854 397 l 1
 853.333 387 852.333 376.833 851 366.5 c 0
 849.667 356.167 848 346 846 336 c 0
 843.333 322.667 836.5 303.667 825.5 279 c 0
 814.5 254.333 800.833 227 784.5 197 c 0
 768.167 167 750.667 136 732 104 c 0
 713.333 72 695.333 42.3333 678 15 c 0
 660.667 -12.3333 645.167 -35.8333 631.5 -55.5 c 0
 617.833 -75.1667 608.333 -88 603 -94 c 0
 594.333 -102.667 585 -111.167 575 -119.5 c 0
 565 -127.833 555.333 -135.333 546 -142 c 0
 536.667 -148.667 528.167 -154 520.5 -158 c 0
 512.833 -162 507.667 -164 505 -164 c 0
 501.667 -164 496.333 -162 489 -158 c 0
 481.667 -154 473.167 -148.5 463.5 -141.5 c 0
 453.833 -134.5 444 -126.833 434 -118.5 c 0
 424 -110.167 415 -102 407 -94 c 0
 401.667 -88.6667 392.333 -76.1667 379 -56.5 c 0
 365.667 -36.8333 350.333 -13.3333 333 14 c 0
 315.667 41.3333 297.5 71 278.5 103 c 0
 259.5 135 242 166.167 226 196.5 c 0
 210 226.833 196.167 254.333 184.5 279 c 0
 172.833 303.667 166 322.667 164 336 c 0
 162 346 160.333 356.167 159 366.5 c 0
 157.667 376.833 156.667 387 156 397 c 1
 156 402 l 2
 156 403.335 155.833 404.668 155.5 406 c 0
 155.167 407.334 155 408.667 155 410 c 2
 155 411 l 2
 155 459 164.167 504.333 182.5 547 c 0
 200.833 589.667 225.667 626.834 257 658.5 c 0
 288.333 690.167 325.333 715.334 368 734 c 0
 410.667 752.667 456 762 504 762 c 2
 505 762 l 1
 506 762 l 2
 554 762 599.333 752.667 642 734 c 0
 684.667 715.333 721.667 690.167 753 658.5 c 0
 784.333 626.833 809.167 589.667 827.5 547 c 0
 845.833 504.333 855 459 855 411 c 1
 854.333 411 854 410.667 854 410 c 1
645 415 m 0
 645 434.334 641.333 452.668 634 470 c 0
 626.667 487.333 616.667 502.333 604 515 c 0
 591.333 527.667 576.333 537.667 559 545 c 0
 541.665 552.333 523.331 556 504 556 c 0
 484.667 556 466.333 552.333 449 545 c 0
 431.667 537.667 416.667 527.667 404 515 c 0
 391.333 502.333 381.333 487.333 374 470 c 0
 366.667 452.667 363 434.333 363 415 c 0
 363 395.667 366.667 377.333 374 360 c 0
 381.333 342.667 391.333 327.5 404 314.5 c 0
 416.667 301.5 431.667 291.333 449 284 c 0
 466.334 276.667 484.668 273 504 273 c 0
 523.333 273 541.667 276.667 559 284 c 0
 576.333 291.333 591.333 301.5 604 314.5 c 0
 616.667 327.5 626.667 342.667 634 360 c 0
 641.333 377.334 645 395.667 645 415 c 0
EndSplineSet
EndChar

StartChar: uniF052
Encoding: 61522 61522 41
Width: 1000
VWidth: 0
Flags: H
LayerCount: 2
Fore
SplineSet
741 475 m 1
 746.333 470.332 749 464.665 749 458 c 0
 749 451.333 746.333 445.333 741 440 c 2
 518 217 l 2
 514 212.333 508.333 210 501 210 c 2
 500 210 l 2
 492.667 210 486.667 212.333 482 217 c 2
 330 369 l 2
 325.333 373.667 323 379.667 323 387 c 0
 323 394.333 325.333 400.333 330 405 c 2
 379 454 l 2
 383.667 458.667 389.5 461 396.5 461 c 0
 403.5 461 409.333 458.667 414 454 c 2
 500 367 l 1
 657 524 l 2
 661.667 528.667 667.5 531.167 674.5 531.5 c 0
 681.5 531.833 687.333 529.333 692 524 c 2
 741 475 l 1
 741 475 l 1
500 772 m 0
 564.667 772 625.667 759.667 683 735 c 0
 740.333 710.333 790.5 676.5 833.5 633.5 c 0
 876.5 590.5 910.333 540.333 935 483 c 0
 959.667 425.667 972 364.667 972 300 c 0
 972 234.667 959.667 173.5 935 116.5 c 0
 910.333 59.5 876.5 9.5 833.5 -33.5 c 0
 790.5 -76.5 740.333 -110.333 683 -135 c 0
 625.667 -159.667 564.667 -172 500 -172 c 0
 434.667 -172 373.5 -159.667 316.5 -135 c 0
 259.5 -110.333 209.5 -76.5 166.5 -33.5 c 0
 123.5 9.5 89.6667 59.5 65 116.5 c 0
 40.3333 173.5 28 234.667 28 300 c 0
 28 364.667 40.3333 425.667 65 483 c 0
 89.6667 540.333 123.5 590.5 166.5 633.5 c 0
 209.5 676.5 259.5 710.333 316.5 735 c 0
 373.5 759.667 434.667 772 500 772 c 0
500 647 m 0
 452 647 407 637.833 365 619.5 c 0
 323 601.166 286.333 576.332 255 545 c 0
 223.667 513.666 198.833 477 180.5 435 c 0
 162.167 393 153 348 153 300 c 0
 153 252 162.167 207 180.5 165 c 0
 198.833 123 223.667 86.3333 255 55 c 0
 286.333 23.6667 323 -1.16667 365 -19.5 c 0
 407 -37.8333 452 -47 500 -47 c 0
 548 -47 593 -37.8334 635 -19.5 c 0
 677 -1.16667 713.667 23.6667 745 55 c 0
 776.333 86.3333 801.167 123 819.5 165 c 0
 837.833 207 847 252 847 300 c 0
 847 348 837.833 393 819.5 435 c 0
 801.164 477 776.33 513.667 745 545 c 0
 713.667 576.333 677 601.167 635 619.5 c 0
 593 637.833 548 647 500 647 c 0
EndSplineSet
EndChar

StartChar: uniF054
Encoding: 61524 61524 42
Width: 1000
VWidth: 0
Flags: H
LayerCount: 2
Fore
SplineSet
925 604 m 1
 942.333 604 957.333 597.667 970 585 c 0
 982.667 572.333 989 557.333 989 540 c 2
 989 -27 l 2
 989 -45 982.667 -60.3333 970 -73 c 0
 957.333 -85.6667 942.333 -92 925 -92 c 2
 79 -92 l 2
 61 -92 45.6667 -85.6667 33 -73 c 0
 20.3333 -60.3333 14 -45 14 -27 c 2
 14 540 l 2
 14 557.333 20.3333 572.333 33 585 c 0
 45.6667 597.667 61 604 79 604 c 2
 148 604 l 1
 207 678 l 2
 215 687.333 224.667 692 236 692 c 2
 407 692 l 2
 422.333 692 433.333 684.667 440 670 c 1
 443.335 665.333 450.168 656.667 460.5 644 c 0
 470.833 631.333 482 618 494 604 c 1
 925 604 l 1
 925 604 l 1
EndSplineSet
EndChar

StartChar: uniF056
Encoding: 61526 61526 43
Width: 1000
VWidth: 0
Flags: H
LayerCount: 2
Fore
SplineSet
313 529 m 1
 309 535 308.667 540.667 312 546 c 0
 315.333 552.667 320.333 556 327 556 c 2
 408 556 l 1
 408 774 l 2
 408 778.667 409.667 782.5 413 785.5 c 0
 416.333 788.5 420.333 790 425 790 c 2
 575 790 l 2
 586.333 790 592 784.667 592 774 c 2
 592 556 l 1
 673 556 l 2
 679.667 556 684.667 553 688 547 c 0
 691.333 540.333 691 534.333 687 529 c 2
 514 286 l 2
 510.667 281.333 506.333 279 501 279 c 0
 495 279 490.333 281.333 487 286 c 2
 313 529 l 1
 313 529 l 1
938 281 m 1
 955.333 281 970 274.833 982 262.5 c 0
 994 250.166 1000 235.333 1000 218 c 2
 1000 -138 l 2
 1000 -155.333 994 -170 982 -182 c 0
 970 -194 955.333 -200 938 -200 c 2
 62 -200 l 2
 44.6667 -200 30 -194 18 -182 c 0
 6 -170 0 -155.333 0 -138 c 2
 0 218 l 2
 0 235.333 6 250.167 18 262.5 c 0
 30 274.833 44.6667 281 62 281 c 2
 284 281 l 2
 298 281 310.5 277 321.5 269 c 0
 332.5 261 340 250.333 344 237 c 0
 355.334 203 375.167 175.5 403.5 154.5 c 0
 431.833 133.5 464 123 500 123 c 0
 536 123 568.333 133.5 597 154.5 c 0
 625.667 175.5 645.667 203 657 237 c 0
 661 250.333 668.5 261 679.5 269 c 0
 690.5 277 702.667 281 716 281 c 2
 938 281 l 1
 938 281 l 1
EndSplineSet
EndChar

StartChar: uniF058
Encoding: 61528 61528 44
Width: 1000
VWidth: 0
Flags: H
LayerCount: 2
Fore
SplineSet
582 32 m 1
 416 32 l 1
 416 198 l 1
 582 198 l 1
 582 32 l 1
792 32 m 1
 626 32 l 1
 626 198 l 1
 792 198 l 1
 792 32 l 1
372 32 m 1
 206 32 l 1
 206 198 l 1
 372 198 l 1
 372 32 l 1
792 557 m 1
 792 251 l 1
 206 251 l 1
 206 557 l 1
 792 557 l 1
876 645 m 1
 124 645 l 1
 124 -45 l 1
 876 -45 l 1
 876 645 l 1
62 -167 m 2
 45.3333 -167 31 -161.167 19 -149.5 c 0
 7 -137.833 1 -123.333 1 -106 c 2
 1 706 l 2
 1 723.333 7 737.833 19 749.5 c 0
 31 761.167 45.3333 767 62 767 c 2
 938 767 l 2
 954.667 767 969 761.167 981 749.5 c 0
 993 737.833 999 723.333 999 706 c 2
 999 -106 l 2
 999 -123.333 993 -137.833 981 -149.5 c 0
 969 -161.167 954.667 -167 938 -167 c 2
 62 -167 l 2
EndSplineSet
EndChar

StartChar: uniF05A
Encoding: 61530 61530 45
Width: 1000
VWidth: 0
Flags: H
LayerCount: 2
Fore
SplineSet
501 -50 m 0
 545.667 -50 587.667 -41.5 627 -24.5 c 0
 666.333 -7.5 700.667 15.5 730 44.5 c 0
 759.333 73.5 782.5 107.5 799.5 146.5 c 0
 816.5 185.5 825 227.333 825 272 c 1
 178 272 l 1
 178 227.333 186.5 185.5 203.5 146.5 c 0
 220.5 107.5 243.667 73.5 273 44.5 c 0
 302.333 15.5 336.5 -7.5 375.5 -24.5 c 0
 414.5 -41.5 456.333 -50 501 -50 c 0
340 588 m 0
 312 588 288.333 578.333 269 559 c 0
 249.667 539.667 240 516 240 488 c 0
 240 474 242.667 460.833 248 448.5 c 0
 253.333 436.167 260.5 425.5 269.5 416.5 c 0
 278.5 407.5 289 400.333 301 395 c 0
 313 389.667 326 387 340 387 c 0
 354 387 367.167 389.667 379.5 395 c 0
 391.833 400.333 402.5 407.5 411.5 416.5 c 0
 420.5 425.5 427.667 436.167 433 448.5 c 0
 438.333 460.833 441 474 441 488 c 0
 441 502 438.333 515 433 527 c 0
 427.667 539 420.5 549.5 411.5 558.5 c 0
 402.5 567.5 391.833 574.667 379.5 580 c 0
 367.167 585.333 354 588 340 588 c 0
653 588 m 0
 625 588 601.333 578.333 582 559 c 0
 562.667 539.667 553 516 553 488 c 0
 553 474 555.667 460.833 561 448.5 c 0
 566.333 436.167 573.5 425.5 582.5 416.5 c 0
 591.5 407.5 602 400.333 614 395 c 0
 626 389.667 639 387 653 387 c 0
 667 387 680.167 389.667 692.5 395 c 0
 704.833 400.333 715.5 407.5 724.5 416.5 c 0
 733.5 425.5 740.667 436.167 746 448.5 c 0
 751.333 460.833 754 474 754 488 c 0
 754 502 751.333 515 746 527 c 0
 740.667 539 733.5 549.5 724.5 558.5 c 0
 715.5 567.5 704.833 574.667 692.5 580 c 0
 680.167 585.333 667 588 653 588 c 0
913 765 m 1
 928.333 765 941.167 759.833 951.5 749.5 c 0
 961.833 739.167 967 726.667 967 712 c 2
 967 -112 l 2
 967 -126.667 961.833 -139.167 951.5 -149.5 c 0
 941.163 -159.833 928.33 -165 913 -165 c 2
 89 -165 l 2
 74.3333 -165 61.8333 -159.833 51.5 -149.5 c 0
 41.1667 -139.167 36 -126.667 36 -112 c 2
 36 712 l 2
 36 726.667 41.1667 739.167 51.5 749.5 c 0
 61.8333 759.833 74.3333 765 89 765 c 2
 913 765 l 1
 913 765 l 1
EndSplineSet
EndChar

StartChar: uniF05C
Encoding: 61532 61532 46
Width: 1000
VWidth: 0
Flags: H
LayerCount: 2
Fore
SplineSet
722 228 m 0
 742.667 248.667 758.167 272 768.5 298 c 0
 778.833 324 784 350.5 784 377.5 c 0
 784 404.5 778.833 431.167 768.5 457.5 c 0
 758.167 483.833 742.667 507.333 722 528 c 0
 701.333 548.667 678 564 652 574 c 0
 626 584 599.333 589 572 589 c 0
 544.667 589 518 584 492 574 c 0
 466 564 442.667 548.667 422 528 c 0
 401.333 507.333 385.833 483.833 375.5 457.5 c 0
 365.167 431.167 360 404.5 360 377.5 c 0
 360 350.5 365.167 324 375.5 298 c 0
 385.833 272 401.333 248.667 422 228 c 0
 442.667 207.333 466 191.833 492 181.5 c 0
 518 171.167 544.667 166 572 166 c 0
 599.333 166 626 171.167 652 181.5 c 0
 678 191.833 701.333 207.333 722 228 c 0
842 648 m 0
 879.333 610.667 907.333 568.5 926 521.5 c 0
 944.667 474.5 954 426.667 954 378 c 0
 954 329.333 944.667 281.5 926 234.5 c 0
 907.333 187.5 879.333 145.333 842 108 c 0
 812 78 778.667 54 742 36 c 0
 705.333 18 667.333 6 628 0 c 0
 588.667 -6 549.167 -5.66667 509.5 1 c 0
 469.833 7.66667 432 20.3333 396 39 c 1
 224 -133 l 2
 214 -143 203 -150.333 191 -155 c 0
 179 -159.667 166.5 -162 153.5 -162 c 0
 140.5 -162 128 -159.667 116 -155 c 0
 104 -150.333 93 -143 83 -133 c 0
 73 -123 65.6667 -112 61 -100 c 0
 56.3333 -88 54 -75.5 54 -62.5 c 0
 54 -49.5 56.3333 -37 61 -25 c 0
 65.6667 -13 73 -2 83 8 c 2
 249 174 l 1
 225.666 210.667 209.333 250 200 292 c 0
 190.667 334 188.167 376 192.5 418 c 0
 196.833 460 208.167 500.833 226.5 540.5 c 0
 244.833 580.167 270 616 302 648 c 0
 339.333 684.668 381.5 712.335 428.5 731 c 0
 475.5 749.667 523.334 759 572 759 c 0
 620.667 759 668.5 749.667 715.5 731 c 0
 762.5 712.333 804.667 684.667 842 648 c 0
EndSplineSet
EndChar

StartChar: uniF001
Encoding: 61441 61441 47
Width: 1000
VWidth: 0
Flags: H
LayerCount: 2
Fore
SplineSet
500 388 m 0
 524.667 388 545.5 379.5 562.5 362.5 c 0
 579.5 345.5 588 324.667 588 300 c 0
 588 275.333 579.5 254.5 562.5 237.5 c 0
 545.5 220.5 524.667 212 500 212 c 0
 475.333 212 454.5 220.5 437.5 237.5 c 0
 420.5 254.5 412 275.333 412 300 c 0
 412 324.667 420.5 345.5 437.5 362.5 c 0
 454.5 379.5 475.333 388 500 388 c 0
799 333 m 2
 799 337 797.5 340.5 794.5 343.5 c 0
 791.5 346.5 788 348 784 348 c 2
 708 356 l 1
 706 365.335 703.167 374.168 699.5 382.5 c 0
 695.833 390.833 691.667 399.333 687 408 c 1
 735 467 l 2
 741 474.333 740.667 481.333 734 488 c 2
 688 534 l 2
 684.667 537.333 681 539 677 539 c 0
 673 539 669.667 537.667 667 535 c 2
 608 487 l 1
 599.333 491.667 590.833 495.833 582.5 499.5 c 0
 574.162 503.167 565.329 506 556 508 c 1
 548 584 l 2
 548 588 546.5 591.5 543.5 594.5 c 0
 540.5 597.5 537 599 533 599 c 2
 467 599 l 2
 463 599 459.5 597.5 456.5 594.5 c 0
 453.5 591.5 452 588 452 584 c 2
 444 508 l 1
 434.667 506 425.833 503.167 417.5 499.5 c 0
 409.167 495.83 400.667 491.663 392 487 c 1
 333 535 l 2
 330.333 537.667 327 539 323 539 c 0
 319 539 315.333 537.333 312 534 c 2
 266 488 l 2
 259.333 481.333 259 474.333 265 467 c 2
 313 408 l 1
 308.331 399.333 304.164 390.833 300.5 382.5 c 0
 296.833 374.167 294 365.333 292 356 c 1
 216 348 l 2
 212 348 208.5 346.5 205.5 343.5 c 0
 202.5 340.5 201 337 201 333 c 2
 201 267 l 2
 201 263 202.5 259.5 205.5 256.5 c 0
 208.5 253.5 212 252 216 252 c 2
 292 244 l 1
 294 234.666 296.833 225.833 300.5 217.5 c 0
 304.167 209.167 308.333 200.667 313 192 c 1
 265 133 l 2
 259 125.667 259.333 118.667 266 112 c 2
 312 66 l 2
 315.333 62.6667 319 61 323 61 c 0
 327 61 330.333 62.3333 333 65 c 2
 392 113 l 1
 400.667 108.333 409.167 104.166 417.5 100.5 c 0
 425.835 96.8333 434.668 94 444 92 c 1
 452 16 l 2
 452 12 453.5 8.5 456.5 5.5 c 0
 459.5 2.5 463 1 467 1 c 2
 533 1 l 2
 537 1 540.5 2.5 543.5 5.5 c 0
 546.5 8.5 548 12 548 16 c 2
 556 92 l 1
 565.333 94 574.167 96.8333 582.5 100.5 c 0
 590.833 104.167 599.333 108.333 608 113 c 1
 667 65 l 2
 669.667 62.3333 673 61 677 61 c 0
 681 61 684.667 62.6667 688 66 c 2
 734 112 l 2
 740.667 118.667 741 125.667 735 133 c 2
 687 192 l 1
 691.677 200.667 695.844 209.167 699.5 217.5 c 0
 703.167 225.833 706 234.667 708 244 c 1
 784 252 l 2
 788 252 791.5 253.5 794.5 256.5 c 0
 797.5 259.5 799 263 799 267 c 2
 799 333 l 2
500 800 m 0
 568.667 800 633.5 786.833 694.5 760.5 c 0
 755.5 734.167 808.5 698.5 853.5 653.5 c 0
 898.5 608.5 934.167 555.5 960.5 494.5 c 0
 986.833 433.5 1000 368.667 1000 300 c 0
 1000 254 994 209.667 982 167 c 0
 970 124.333 953.167 84.5 931.5 47.5 c 0
 909.833 10.5 883.833 -23.1667 853.5 -53.5 c 0
 823.167 -83.8333 789.5 -109.833 752.5 -131.5 c 0
 715.5 -153.167 675.667 -170 633 -182 c 0
 590.333 -194 546 -200 500 -200 c 0
 454 -200 409.667 -194 367 -182 c 0
 324.333 -170 284.5 -153.167 247.5 -131.5 c 0
 210.5 -109.833 176.833 -83.8333 146.5 -53.5 c 0
 116.167 -23.1667 90.1667 10.5 68.5 47.5 c 0
 46.8333 84.5 30 124.333 18 167 c 0
 6 209.667 0 254 0 300 c 0
 0 346 6 390.333 18 433 c 0
 30 475.667 46.8333 515.5 68.5 552.5 c 0
 90.1667 589.5 116.167 623.167 146.5 653.5 c 0
 176.833 683.833 210.5 709.833 247.5 731.5 c 0
 284.5 753.167 324.333 770 367 782 c 0
 409.667 794 454 800 500 800 c 0
EndSplineSet
EndChar

StartChar: uniF003
Encoding: 61443 61443 48
Width: 1000
VWidth: 0
Flags: H
LayerCount: 2
Fore
SplineSet
500 -200 m 0
 454 -200 409.667 -194 367 -182 c 0
 324.333 -170 284.5 -153.167 247.5 -131.5 c 0
 210.5 -109.833 176.833 -83.8333 146.5 -53.5 c 0
 116.167 -23.1667 90.1667 10.5 68.5 47.5 c 0
 46.8333 84.5 30 124.333 18 167 c 0
 6 209.667 0 254 0 300 c 0
 0 346 6 390.333 18 433 c 0
 30 475.667 46.8333 515.5 68.5 552.5 c 0
 90.1667 589.5 116.167 623.167 146.5 653.5 c 0
 176.833 683.833 210.5 709.833 247.5 731.5 c 0
 284.5 753.167 324.333 770 367 782 c 0
 409.667 794 454 800 500 800 c 0
 568.667 800 633.5 786.833 694.5 760.5 c 0
 755.5 734.167 808.5 698.5 853.5 653.5 c 0
 898.5 608.5 934.167 555.5 960.5 494.5 c 0
 986.833 433.5 1000 368.667 1000 300 c 0
 1000 254 994 209.667 982 167 c 0
 970 124.333 953.167 84.5 931.5 47.5 c 0
 909.833 10.5 883.833 -23.1667 853.5 -53.5 c 0
 823.167 -83.8333 789.5 -109.833 752.5 -131.5 c 0
 715.5 -153.167 675.667 -170 633 -182 c 0
 590.333 -194 546 -200 500 -200 c 0
615 516 m 0
 591.667 516 570 511 550 501 c 0
 530 491 513.333 477 500 459 c 1
 486.667 477 470 491 450 501 c 0
 430 511 408.333 516 385 516 c 0
 365 516 346.167 512.167 328.5 504.5 c 0
 310.833 496.833 295.5 486.333 282.5 473 c 0
 269.5 459.667 259 444.167 251 426.5 c 0
 243 408.833 239 390 239 370 c 0
 239 348.667 241.333 329.333 246 312 c 0
 250.668 294.667 256.668 278.833 264 264.5 c 0
 271.333 250.167 279.5 237 288.5 225 c 0
 297.5 213 306 202 314 192 c 2
 322 183 l 2
 332 171 346.167 157 364.5 141 c 0
 382.833 125 401 109.833 419 95.5 c 0
 437 81.1667 453 68.8333 467 58.5 c 0
 481 48.1667 488.667 42.6667 490 42 c 0
 492.667 40 496 39 500 39 c 0
 503.341 39 506.674 40 510 42 c 0
 511.333 42.6667 519 48.1667 533 58.5 c 0
 547 68.8334 563 81.1667 581 95.5 c 0
 599 109.833 617.167 125 635.5 141 c 0
 653.833 157 668 171 678 183 c 2
 686 192 l 2
 694 202 702.5 213 711.5 225 c 0
 720.5 237 728.667 250.167 736 264.5 c 0
 743.333 278.834 749.333 294.667 754 312 c 0
 758.667 329.334 761 348.667 761 370 c 0
 761 390 757 408.833 749 426.5 c 0
 741 444.167 730.5 459.667 717.5 473 c 0
 704.5 486.333 689.167 496.833 671.5 504.5 c 0
 653.833 512.167 635 516 615 516 c 0
EndSplineSet
EndChar

StartChar: uniF005
Encoding: 61445 61445 49
Width: 1000
VWidth: 0
Flags: H
LayerCount: 2
Fore
SplineSet
500 -200 m 0
 454 -200 409.667 -194 367 -182 c 0
 324.333 -170 284.5 -153.167 247.5 -131.5 c 0
 210.5 -109.833 176.833 -83.8333 146.5 -53.5 c 0
 116.167 -23.1667 90.1667 10.5 68.5 47.5 c 0
 46.8333 84.5 30 124.333 18 167 c 0
 6 209.667 0 254 0 300 c 0
 0 346 6 390.333 18 433 c 0
 30 475.667 46.8333 515.5 68.5 552.5 c 0
 90.1667 589.5 116.167 623.167 146.5 653.5 c 0
 176.833 683.833 210.5 709.833 247.5 731.5 c 0
 284.5 753.167 324.333 770 367 782 c 0
 409.667 794 454 800 500 800 c 0
 568.667 800 633.5 786.833 694.5 760.5 c 0
 755.5 734.167 808.5 698.5 853.5 653.5 c 0
 898.5 608.5 934.167 555.5 960.5 494.5 c 0
 986.833 433.5 1000 368.667 1000 300 c 0
 1000 254 994 209.667 982 167 c 0
 970 124.333 953.167 84.5 931.5 47.5 c 0
 909.833 10.5 883.833 -23.1667 853.5 -53.5 c 0
 823.167 -83.8333 789.5 -109.833 752.5 -131.5 c 0
 715.5 -153.167 675.667 -170 633 -182 c 0
 590.333 -194 546 -200 500 -200 c 0
772 372 m 0
 769.333 378 765.333 381 760 381 c 2
 575 381 l 1
 513 559 l 2
 510.333 565 506 568 500 568 c 0
 494.667 568 490.667 565 488 559 c 2
 425 381 l 1
 240 381 l 2
 234 381 230 378.333 228 373 c 0
 226 367.667 227.333 362.667 232 358 c 1
 376 244 l 1
 311 61 l 1
 309.667 54.3333 311.333 49.6667 316 47 c 1
 320 43 325 42.6667 331 46 c 2
 500 147 l 1
 669 45 l 2
 670.333 44.3333 672.667 44 676 44 c 0
 679.333 44 682 45 684 47 c 0
 688.667 51 690 55.6667 688 61 c 2
 624 244 l 1
 768 358 l 2
 772.667 362 774 366.667 772 372 c 0
EndSplineSet
EndChar

StartChar: uniF007
Encoding: 61447 61447 50
Width: 1000
VWidth: 0
Flags: H
LayerCount: 2
Fore
SplineSet
500 -200 m 0
 454 -200 409.667 -194 367 -182 c 0
 324.333 -170 284.5 -153.167 247.5 -131.5 c 0
 210.5 -109.833 176.833 -83.8333 146.5 -53.5 c 0
 116.167 -23.1667 90.1667 10.5 68.5 47.5 c 0
 46.8333 84.5 30 124.333 18 167 c 0
 6 209.667 0 254 0 300 c 0
 0 346 6 390.333 18 433 c 0
 30 475.667 46.8333 515.5 68.5 552.5 c 0
 90.1667 589.5 116.167 623.167 146.5 653.5 c 0
 176.833 683.833 210.5 709.833 247.5 731.5 c 0
 284.5 753.167 324.333 770 367 782 c 0
 409.667 794 454 800 500 800 c 0
 568.667 800 633.5 786.833 694.5 760.5 c 0
 755.5 734.167 808.5 698.5 853.5 653.5 c 0
 898.5 608.5 934.167 555.5 960.5 494.5 c 0
 986.833 433.5 1000 368.667 1000 300 c 0
 1000 254 994 209.667 982 167 c 0
 970 124.333 953.167 84.5 931.5 47.5 c 0
 909.833 10.5 883.833 -23.1667 853.5 -53.5 c 0
 823.167 -83.8333 789.5 -109.833 752.5 -131.5 c 0
 715.5 -153.167 675.667 -170 633 -182 c 0
 590.333 -194 546 -200 500 -200 c 0
758 377 m 2
 577 377 l 1
 577 558 l 2
 577 566.667 572.333 571 563 571 c 2
 437 571 l 2
 427.667 571 423 566.667 423 558 c 2
 423 377 l 1
 242 377 l 2
 233.333 377 229 372.333 229 363 c 2
 229 237 l 2
 229 227.667 233.333 223 242 223 c 2
 423 223 l 1
 423 42 l 2
 423 33.3333 427.667 29 437 29 c 2
 563 29 l 2
 572.333 29 577 33.3333 577 42 c 2
 577 223 l 1
 758 223 l 2
 766.667 223 771 227.667 771 237 c 2
 771 363 l 2
 771 372.333 766.667 377 758 377 c 2
EndSplineSet
EndChar

StartChar: uniF009
Encoding: 61449 61449 51
Width: 1000
VWidth: 0
Flags: H
LayerCount: 2
Fore
SplineSet
500 -200 m 0
 454 -200 409.667 -194 367 -182 c 0
 324.333 -170 284.5 -153.167 247.5 -131.5 c 0
 210.5 -109.833 176.833 -83.8333 146.5 -53.5 c 0
 116.167 -23.1667 90.1667 10.5 68.5 47.5 c 0
 46.8333 84.5 30 124.333 18 167 c 0
 6 209.667 0 254 0 300 c 0
 0 346 6 390.333 18 433 c 0
 30 475.667 46.8333 515.5 68.5 552.5 c 0
 90.1667 589.5 116.167 623.167 146.5 653.5 c 0
 176.833 683.833 210.5 709.833 247.5 731.5 c 0
 284.5 753.167 324.333 770 367 782 c 0
 409.667 794 454 800 500 800 c 0
 568.667 800 633.5 786.833 694.5 760.5 c 0
 755.5 734.167 808.5 698.5 853.5 653.5 c 0
 898.5 608.5 934.167 555.5 960.5 494.5 c 0
 986.833 433.5 1000 368.667 1000 300 c 0
 1000 254 994 209.667 982 167 c 0
 970 124.333 953.167 84.5 931.5 47.5 c 0
 909.833 10.5 883.833 -23.1667 853.5 -53.5 c 0
 823.167 -83.8333 789.5 -109.833 752.5 -131.5 c 0
 715.5 -153.167 675.667 -170 633 -182 c 0
 590.333 -194 546 -200 500 -200 c 0
771 381 m 2
 229 381 l 2
 225 381 221.667 379.5 219 376.5 c 0
 216.333 373.5 215 370.333 215 367 c 2
 215 233 l 2
 215 229.667 216.333 226.5 219 223.5 c 0
 221.667 220.5 225 219 229 219 c 2
 771 219 l 2
 775 219 778.333 220.5 781 223.5 c 0
 783.667 226.5 785 229.667 785 233 c 2
 785 367 l 2
 785 370.333 783.667 373.5 781 376.5 c 0
 778.333 379.5 775 381 771 381 c 2
EndSplineSet
EndChar

StartChar: uniF00B
Encoding: 61451 61451 52
Width: 1000
VWidth: 0
Flags: H
LayerCount: 2
Fore
SplineSet
500 -200 m 0
 454 -200 409.667 -194 367 -182 c 0
 324.333 -170 284.5 -153.167 247.5 -131.5 c 0
 210.5 -109.833 176.833 -83.8333 146.5 -53.5 c 0
 116.167 -23.1667 90.1667 10.5 68.5 47.5 c 0
 46.8333 84.5 30 124.333 18 167 c 0
 6 209.667 0 254 0 300 c 0
 0 346 6 390.333 18 433 c 0
 30 475.667 46.8333 515.5 68.5 552.5 c 0
 90.1667 589.5 116.167 623.167 146.5 653.5 c 0
 176.833 683.833 210.5 709.833 247.5 731.5 c 0
 284.5 753.167 324.333 770 367 782 c 0
 409.667 794 454 800 500 800 c 0
 568.667 800 633.5 786.833 694.5 760.5 c 0
 755.5 734.167 808.5 698.5 853.5 653.5 c 0
 898.5 608.5 934.167 555.5 960.5 494.5 c 0
 986.833 433.5 1000 368.667 1000 300 c 0
 1000 254 994 209.667 982 167 c 0
 970 124.333 953.167 84.5 931.5 47.5 c 0
 909.833 10.5 883.833 -23.1667 853.5 -53.5 c 0
 823.167 -83.8333 789.5 -109.833 752.5 -131.5 c 0
 715.5 -153.167 675.667 -170 633 -182 c 0
 590.333 -194 546 -200 500 -200 c 0
807 441 m 2
 727 522 l 2
 724.333 524.667 720.667 526 716 526 c 0
 711.333 526 707.667 524.667 705 522 c 2
 391 208 l 1
 295 305 l 1
 287.667 311 280.333 311 273 305 c 1
 193 224 l 2
 190.333 221.333 189 217.667 189 213 c 0
 189 209 190.333 205.667 193 203 c 2
 380 16 l 2
 383.333 12.6667 387 11 391 11 c 2
 392 11 l 2
 396.667 11 400 12.6667 402 16 c 1
 807 420 l 2
 810.333 423.333 812 427 812 431 c 0
 812 435 810.333 438.333 807 441 c 2
EndSplineSet
EndChar

StartChar: uniF00D
Encoding: 61453 61453 53
Width: 1000
VWidth: 0
Flags: H
LayerCount: 2
Fore
SplineSet
500 -200 m 0
 454 -200 409.667 -194 367 -182 c 0
 324.333 -170 284.5 -153.167 247.5 -131.5 c 0
 210.5 -109.833 176.833 -83.8333 146.5 -53.5 c 0
 116.167 -23.1667 90.1667 10.5 68.5 47.5 c 0
 46.8333 84.5 30 124.333 18 167 c 0
 6 209.667 0 254 0 300 c 0
 0 346 6 390.333 18 433 c 0
 30 475.667 46.8333 515.5 68.5 552.5 c 0
 90.1667 589.5 116.167 623.167 146.5 653.5 c 0
 176.833 683.833 210.5 709.833 247.5 731.5 c 0
 284.5 753.167 324.333 770 367 782 c 0
 409.667 794 454 800 500 800 c 0
 568.667 800 633.5 786.833 694.5 760.5 c 0
 755.5 734.167 808.5 698.5 853.5 653.5 c 0
 898.5 608.5 934.167 555.5 960.5 494.5 c 0
 986.833 433.5 1000 368.667 1000 300 c 0
 1000 254 994 209.667 982 167 c 0
 970 124.333 953.167 84.5 931.5 47.5 c 0
 909.833 10.5 883.833 -23.1667 853.5 -53.5 c 0
 823.167 -83.8333 789.5 -109.833 752.5 -131.5 c 0
 715.5 -153.167 675.667 -170 633 -182 c 0
 590.333 -194 546 -200 500 -200 c 0
765 160 m 2
 625 300 l 1
 765 440 l 2
 768.333 443.333 770 447 770 451 c 0
 770 455 768.333 458.333 765 461 c 2
 667 560 l 2
 663.667 562.667 660 564 656 564 c 0
 652 564 648.667 562.667 646 560 c 2
 505 419 l 1
 365 560 l 2
 361.667 562.667 358 564 354 564 c 0
 350 564 346.667 562.667 344 560 c 2
 246 461 l 1
 242.667 459 241 455.667 241 451 c 0
 241 447 242.667 443.333 246 440 c 2
 386 300 l 1
 246 160 l 2
 242.667 156.667 241 153 241 149 c 0
 241 144.333 242.667 141 246 139 c 1
 344 40 l 1
 348 37.3333 351.333 36 354 36 c 0
 357.333 36 361 37.3333 365 40 c 1
 505 181 l 1
 646 40 l 2
 648 37.3333 651.333 36 656 36 c 0
 660.677 36 664.343 37.3333 667 40 c 2
 765 139 l 2
 768.333 141.667 770 145 770 149 c 0
 770 153 768.333 156.667 765 160 c 2
EndSplineSet
EndChar

StartChar: uniF00F
Encoding: 61455 61455 54
Width: 1000
VWidth: 0
Flags: H
LayerCount: 2
Fore
SplineSet
500 -200 m 0
 454 -200 409.667 -194 367 -182 c 0
 324.333 -170 284.5 -153.167 247.5 -131.5 c 0
 210.5 -109.833 176.833 -83.8333 146.5 -53.5 c 0
 116.167 -23.1667 90.1667 10.5 68.5 47.5 c 0
 46.8333 84.5 30 124.333 18 167 c 0
 6 209.667 0 254 0 300 c 0
 0 346 6 390.333 18 433 c 0
 30 475.667 46.8333 515.5 68.5 552.5 c 0
 90.1667 589.5 116.167 623.167 146.5 653.5 c 0
 176.833 683.833 210.5 709.833 247.5 731.5 c 0
 284.5 753.167 324.333 770 367 782 c 0
 409.667 794 454 800 500 800 c 0
 568.667 800 633.5 786.833 694.5 760.5 c 0
 755.5 734.167 808.5 698.5 853.5 653.5 c 0
 898.5 608.5 934.167 555.5 960.5 494.5 c 0
 986.833 433.5 1000 368.667 1000 300 c 0
 1000 254 994 209.667 982 167 c 0
 970 124.333 953.167 84.5 931.5 47.5 c 0
 909.833 10.5 883.833 -23.1667 853.5 -53.5 c 0
 823.167 -83.8333 789.5 -109.833 752.5 -131.5 c 0
 715.5 -153.167 675.667 -170 633 -182 c 0
 590.333 -194 546 -200 500 -200 c 0
741 506 m 2
 267 506 l 2
 262.333 506 258.333 504.5 255 501.5 c 0
 251.667 498.5 250 494.333 250 489 c 2
 250 436 l 2
 250 433.333 251 432 253 432 c 1
 502 290 l 1
 504 289 l 2
 505.333 289 506.333 289.333 507 290 c 2
 748 432 l 2
 749.333 432.667 750.333 433 751 433 c 0
 751.667 433 752.667 433.333 754 434 c 1
 756.667 434 758 435.333 758 438 c 2
 758 489 l 2
 758 494.333 756.333 498.5 753 501.5 c 0
 749.667 504.5 745.667 506 741 506 c 2
401 293 m 2
 401.667 293.667 402 294.667 402 296 c 0
 402 298 401.333 299 400 299 c 2
 257 381 l 2
 255 381.667 253.333 381.667 252 381 c 0
 250.667 381 250 380 250 378 c 2
 250 163 l 2
 250 161 251 159.667 253 159 c 1
 255 159 l 2
 256.333 159 257 159.333 257 160 c 2
 401 293 l 2
575 277 m 1
 574.333 279 572.667 279.333 570 278 c 2
 515 246 l 2
 508.333 242 501.333 242 494 246 c 2
 446 273 l 2
 444 274.333 442.333 274.333 441 273 c 2
 258 103 l 2
 257.333 102.333 257 101 257 99 c 0
 257 98.3333 257.667 97.3333 259 96 c 1
 263 94.6667 265.667 94 267 94 c 2
 736 94 l 2
 737.333 94 738.667 94.6667 740 96 c 1
 740 98.6667 739.667 100.333 739 101 c 2
 575 277 l 1
755 385 m 1
 751 385 l 1
 615 304 l 1
 613.667 304 613 303 613 301 c 1
 612.333 300.333 612.667 299.333 614 298 c 2
 750 151 l 2
 751.333 149.667 752.333 149 753 149 c 2
 755 149 l 1
 757 151 758 152.333 758 153 c 2
 758 381 l 2
 758 382.339 757 383.673 755 385 c 1
EndSplineSet
EndChar

StartChar: uniF011
Encoding: 61457 61457 55
Width: 1000
VWidth: 0
Flags: H
LayerCount: 2
Fore
SplineSet
612 308 m 1
 615.333 308 617 306.333 617 303 c 2
 617 125 l 2
 617 122.333 615.333 121 612 121 c 2
 574 121 l 2
 571.333 121 570 122.333 570 125 c 2
 570 250 l 1
 545 241 l 2
 543.65 240.333 542.817 240.167 542.5 240.5 c 0
 542.167 240.833 541.667 241 541 241 c 0
 539.667 242.333 539 243.667 539 245 c 2
 534 276 l 2
 534 278 535 279.667 537 281 c 2
 591 307 l 2
 591.668 307.667 592.334 308 593 308 c 2
 612 308 l 1
 612 308 l 1
467 224 m 1
 475.667 220.667 483.667 215.667 491 209 c 0
 498.333 202.333 502 192.333 502 179 c 0
 502 160.333 494.833 145.5 480.5 134.5 c 0
 466.167 123.5 447 118 423 118 c 0
 407 118 392 120.667 378 126 c 0
 375.333 127.333 374.333 129 375 131 c 2
 379 162 l 2
 379 163.333 379.667 164.667 381 166 c 1
 385 166 l 1
 399.667 160.667 413.667 158 427 158 c 0
 435 158 441.5 159.833 446.5 163.5 c 0
 451.5 167.167 454 171.667 454 177 c 0
 454 183.667 451.333 188.667 446 192 c 0
 440.667 195.333 429.333 197.667 412 199 c 0
 409.333 199 408 200.667 408 204 c 2
 408 235 l 2
 408 237 409.333 238.667 412 240 c 1
 427.333 241.333 436.833 243.833 440.5 247.5 c 0
 444.167 251.167 446 254.667 446 258 c 0
 446 260.667 445.167 263.333 443.5 266 c 0
 441.83 268.667 435.663 270 425 270 c 0
 415 270 403.667 267.333 391 262 c 0
 389 261.333 387.333 261.333 386 262 c 0
 384.667 262 384 263 384 265 c 2
 380 296 l 2
 379.333 297.333 380 299 382 301 c 1
 397.333 307.667 415 311 435 311 c 0
 453.667 311 468.667 307 480 299 c 0
 491.333 291 497 280.667 497 268 c 0
 497 248.667 487 234 467 224 c 1
731 522 m 2
 731 528 728 531 722 531 c 2
 675 531 l 1
 675 509 l 2
 675 497.667 671.167 486.833 663.5 476.5 c 0
 655.833 466.167 642.667 461 624 461 c 0
 604.664 461 591.331 466.167 584 476.5 c 0
 576.667 486.835 573 497.669 573 509 c 2
 573 531 l 1
 428 531 l 1
 428 509 l 2
 428 497.667 424.333 486.833 417 476.5 c 0
 409.667 466.167 396.333 461 377 461 c 0
 357.667 461 344.333 466.167 337 476.5 c 0
 329.667 486.835 326 497.669 326 509 c 2
 326 531 l 1
 278 531 l 2
 272 531 269 528 269 522 c 2
 269 429 l 2
 269 423 272 420 278 420 c 2
 722 420 l 2
 728 420 731 423 731 429 c 2
 731 522 l 2
731 379 m 2
 731 385 728 388 722 388 c 2
 278 388 l 2
 272 388 269 385 269 379 c 2
 269 60 l 2
 269 54 272 51 278 51 c 2
 722 51 l 2
 728 51 731 54 731 60 c 2
 731 379 l 2
356 509 m 2
 356 496.333 363 490 377 490 c 0
 391 490 398 496.333 398 509 c 2
 398 531 l 1
 398 554 l 2
 398 566.667 391 573 377 573 c 0
 363 573 356 566.667 356 554 c 2
 356 531 l 1
 356 509 l 2
602 509 m 2
 602 496.333 609.333 490 624 490 c 0
 638 490 645 496.333 645 509 c 2
 645 531 l 1
 645 554 l 2
 645 566.667 638 573 624 573 c 0
 609.333 573 602 566.667 602 554 c 2
 602 531 l 1
 602 509 l 2
500 800 m 0
 568.667 800 633.5 786.833 694.5 760.5 c 0
 755.5 734.167 808.5 698.5 853.5 653.5 c 0
 898.5 608.5 934.167 555.5 960.5 494.5 c 0
 986.833 433.5 1000 368.667 1000 300 c 0
 1000 254 994 209.667 982 167 c 0
 970 124.333 953.167 84.5 931.5 47.5 c 0
 909.833 10.5 883.833 -23.1667 853.5 -53.5 c 0
 823.167 -83.8333 789.5 -109.833 752.5 -131.5 c 0
 715.5 -153.167 675.667 -170 633 -182 c 0
 590.333 -194 546 -200 500 -200 c 0
 454 -200 409.667 -194 367 -182 c 0
 324.333 -170 284.5 -153.167 247.5 -131.5 c 0
 210.5 -109.833 176.833 -83.8333 146.5 -53.5 c 0
 116.167 -23.1667 90.1667 10.5 68.5 47.5 c 0
 46.8333 84.5 30 124.333 18 167 c 0
 6 209.667 0 254 0 300 c 0
 0 346 6 390.333 18 433 c 0
 30 475.667 46.8333 515.5 68.5 552.5 c 0
 90.1667 589.5 116.167 623.167 146.5 653.5 c 0
 176.833 683.833 210.5 709.833 247.5 731.5 c 0
 284.5 753.167 324.333 770 367 782 c 0
 409.667 794 454 800 500 800 c 0
EndSplineSet
EndChar

StartChar: uniF013
Encoding: 61459 61459 56
Width: 1000
VWidth: 0
Flags: H
LayerCount: 2
Fore
SplineSet
500 -200 m 0
 454 -200 409.667 -194 367 -182 c 0
 324.333 -170 284.5 -153.167 247.5 -131.5 c 0
 210.5 -109.833 176.833 -83.8333 146.5 -53.5 c 0
 116.167 -23.1667 90.1667 10.5 68.5 47.5 c 0
 46.8333 84.5 30 124.333 18 167 c 0
 6 209.667 0 254 0 300 c 0
 0 346 6 390.333 18 433 c 0
 30 475.667 46.8333 515.5 68.5 552.5 c 0
 90.1667 589.5 116.167 623.167 146.5 653.5 c 0
 176.833 683.833 210.5 709.833 247.5 731.5 c 0
 284.5 753.167 324.333 770 367 782 c 0
 409.667 794 454 800 500 800 c 0
 568.667 800 633.5 786.833 694.5 760.5 c 0
 755.5 734.167 808.5 698.5 853.5 653.5 c 0
 898.5 608.5 934.167 555.5 960.5 494.5 c 0
 986.833 433.5 1000 368.667 1000 300 c 0
 1000 254 994 209.667 982 167 c 0
 970 124.333 953.167 84.5 931.5 47.5 c 0
 909.833 10.5 883.833 -23.1667 853.5 -53.5 c 0
 823.167 -83.8333 789.5 -109.833 752.5 -131.5 c 0
 715.5 -153.167 675.667 -170 633 -182 c 0
 590.333 -194 546 -200 500 -200 c 0
644 547 m 2
 481 547 l 2
 477.667 547 474.5 545.5 471.5 542.5 c 0
 468.5 539.5 467 536.333 467 533 c 2
 467 402 l 2
 467 396.667 465.333 392.167 462 388.5 c 0
 458.667 384.833 454.333 383 449 383 c 2
 317 383 l 2
 313 383 309.667 381.5 307 378.5 c 0
 304.333 375.5 303 372.333 303 369 c 2
 303 58 l 2
 303 48.6667 307.667 44 317 44 c 2
 644 44 l 2
 653.333 44 658 48.6667 658 58 c 2
 658 533 l 2
 658 536.333 656.667 539.5 654 542.5 c 0
 651.333 545.5 648 547 644 547 c 2
421 423 m 2
 424.333 423 426 424.667 426 428 c 2
 426 543 l 2
 426 546.333 424.333 548 421 548 c 2
 398 548 l 2
 396.667 548 395.833 547.833 395.5 547.5 c 0
 395.167 547.167 394.667 547 394 547 c 2
 302 456 l 2
 300.667 454.667 300 453.333 300 452 c 2
 300 428 l 2
 300 424.667 301.667 423 305 423 c 2
 421 423 l 2
EndSplineSet
EndChar

StartChar: uniF015
Encoding: 61461 61461 57
Width: 1000
VWidth: 0
Flags: H
LayerCount: 2
Fore
SplineSet
720 308 m 0
 735.333 323.333 747.167 340.833 755.5 360.5 c 0
 763.833 380.167 768 399.667 768 419 c 0
 768 421 767.5 422.667 766.5 424 c 0
 765.5 425.34 763 427.673 759 431 c 2
 751 439 l 2
 747 443.667 742.667 443.667 738 439 c 0
 734.667 435.667 731.5 432.333 728.5 429 c 0
 725.5 425.667 722.333 422.667 719 420 c 0
 710.333 410.667 703.5 403.667 698.5 399 c 0
 693.5 394.333 689.167 390.833 685.5 388.5 c 0
 681.833 386.167 678.5 385 675.5 385 c 2
 663 385 l 1
 654 385 l 2
 648.657 385 642.323 386.833 635 390.5 c 0
 627.665 394.167 620.332 399.667 613 407 c 0
 605.667 414.333 600 421.833 596 429.5 c 0
 592 437.167 590 443.667 590 449 c 2
 590 458 l 1
 590 470.5 l 1
 593.5 480.5 l 1
 604 493.5 l 1
 625 514 l 2
 627.667 517.333 630.667 520.5 634 523.5 c 0
 637.333 526.5 640.667 529.667 644 533 c 0
 648.667 537.667 648.667 542 644 546 c 2
 636 554 l 2
 632.647 558 630.314 560.5 629 561.5 c 0
 627.667 562.5 626 563 624 563 c 0
 604.667 563 585.167 558.833 565.5 550.5 c 0
 545.833 542.165 528.333 530.331 513 515 c 0
 497 499 484.5 481.167 475.5 461.5 c 0
 466.5 441.833 462 422 462 402 c 0
 462 390 465.333 376.333 472 361 c 1
 281 193 l 2
 279.667 191.667 276.5 189.167 271.5 185.5 c 0
 266.5 181.833 261.333 177 256 171 c 0
 250.667 165 245.667 158 241 150 c 0
 236.333 142 233.333 133 232 123 c 0
 229.333 100.333 238 77.6666 258 55 c 0
 258.667 55 259 54.6667 259 54 c 1
 259.667 54 260 53.6667 260 53 c 0
 282.667 33 305.333 24.3333 328 27 c 0
 338 28.3333 347 31.3333 355 36 c 0
 363 40.6667 370 45.6667 376 51 c 0
 382 56.3333 386.833 61.5 390.5 66.5 c 0
 394.167 71.5 396.667 74.6667 398 76 c 2
 566 267 l 1
 581.333 260.333 595 257 607 257 c 0
 627 257 646.833 261.5 666.5 270.5 c 0
 686.167 279.5 704 292 720 308 c 0
500 800 m 0
 568.667 800 633.5 786.833 694.5 760.5 c 0
 755.5 734.167 808.5 698.5 853.5 653.5 c 0
 898.5 608.5 934.167 555.5 960.5 494.5 c 0
 986.833 433.5 1000 368.667 1000 300 c 0
 1000 254 994 209.667 982 167 c 0
 970 124.333 953.167 84.5 931.5 47.5 c 0
 909.833 10.5 883.833 -23.1667 853.5 -53.5 c 0
 823.167 -83.8333 789.5 -109.833 752.5 -131.5 c 0
 715.5 -153.167 675.667 -170 633 -182 c 0
 590.333 -194 546 -200 500 -200 c 0
 454 -200 409.667 -194 367 -182 c 0
 324.333 -170 284.5 -153.167 247.5 -131.5 c 0
 210.5 -109.833 176.833 -83.8333 146.5 -53.5 c 0
 116.167 -23.1667 90.1667 10.5 68.5 47.5 c 0
 46.8333 84.5 30 124.333 18 167 c 0
 6 209.667 0 254 0 300 c 0
 0 346 6 390.333 18 433 c 0
 30 475.667 46.8333 515.5 68.5 552.5 c 0
 90.1667 589.5 116.167 623.167 146.5 653.5 c 0
 176.833 683.833 210.5 709.833 247.5 731.5 c 0
 284.5 753.167 324.333 770 367 782 c 0
 409.667 794 454 800 500 800 c 0
302 138 m 0
 308 144 315 147 323 147 c 0
 331 147 337.667 144 343 138 c 1
 349 132.667 352 126 352 118 c 0
 352 110 349 103 343 97 c 0
 337.667 91.6667 331 89 323 89 c 0
 315 89 308 91.6667 302 97 c 1
 296.667 103 294 110 294 118 c 0
 294 126 296.667 132.667 302 138 c 0
EndSplineSet
EndChar

StartChar: uniF017
Encoding: 61463 61463 58
Width: 1000
VWidth: 0
Flags: H
LayerCount: 2
Fore
SplineSet
871 290 m 1
 871 297 l 2
 871 355.667 859 409.667 835 459 c 0
 811 508.333 778.333 550.333 737 585 c 1
 725.667 583.667 713.667 582.167 701 580.5 c 0
 688.333 578.833 676 576.167 664 572.5 c 0
 652 568.833 641.167 564.5 631.5 559.5 c 0
 621.833 554.5 614.667 548 610 540 c 0
 602 527.333 596.5 516.667 593.5 508 c 0
 590.5 499.333 588.5 491.833 587.5 485.5 c 0
 586.5 479.167 586 474 586 470 c 0
 586 466 585 462 583 458 c 0
 581 454 578.5 450.833 575.5 448.5 c 0
 572.5 446.167 570 443.667 568 441 c 0
 566 438.33 565 434.663 565 430 c 0
 565 425.333 567 419 571 411 c 0
 574.333 405 576 399 576 393 c 1
 580.676 393 585.342 393.333 590 394 c 0
 594 394.667 598.167 395.5 602.5 396.5 c 0
 606.833 397.5 610.667 399.667 614 403 c 1
 684 397 l 1
 689.333 403.667 695.667 408.333 703 411 c 0
 706.333 412.333 710 413.333 714 414 c 1
 717.333 413.321 721.333 411.654 726 409 c 0
 730 406.333 734.5 402.333 739.5 397 c 0
 744.5 391.667 750.333 383.333 757 372 c 1
 728 352 l 1
 721.333 354 713.333 358 704 364 c 0
 699.333 366.667 694.333 370 689 374 c 1
 683.667 376.667 676.167 378.167 666.5 378.5 c 0
 656.833 378.833 646.833 378.5 636.5 377.5 c 0
 626.167 376.5 615.667 375.167 605 373.5 c 0
 594.333 371.822 585.333 370.655 578 370 c 1
 577.333 367.331 576 364.664 574 362 c 0
 572.649 360 570.816 358 568.5 356 c 0
 566.149 354 563.316 352.667 560 352 c 1
 559.333 350 559 346.667 559 342 c 0
 559 340 558.667 338 558 336 c 0
 544.667 316.667 540 295 544 271 c 0
 547.333 253.666 554.167 240.333 564.5 231 c 0
 574.833 221.667 587 217 601 217 c 2
 603 217 l 2
 604.333 217 605.667 217.167 607 217.5 c 0
 608.333 217.833 610 218 612 218 c 0
 626.669 218 636.836 217.167 642.5 215.5 c 0
 648.177 213.833 651.343 212.667 652 212 c 1
 648.664 203.333 647.331 196.5 648 191.5 c 0
 648.686 186.5 650.353 181.333 653 176 c 2
 656 170 l 2
 659.333 162.666 660.833 155.333 660.5 148 c 0
 660.162 140.667 659.328 133 658 125 c 1
 658 120.333 657.667 116.666 657 114 c 0
 656.333 104.667 657.667 95.6667 661 87 c 2
 671 61 l 2
 672.333 57.6667 673.667 54.6667 675 52 c 0
 676.333 49.3333 677.667 46.3333 679 43 c 0
 679 42.3333 679.167 41.8333 679.5 41.5 c 0
 679.833 41.1664 680 40.333 680 39 c 0
 682 33.6667 684.5 27.8333 687.5 21.5 c 0
 690.5 15.1667 695 11.3333 701 10 c 0
 714.333 8 730 16.3333 748 35 c 1
 761.333 50.3333 769.333 67 772 85 c 0
 772.678 91.6667 775.345 99 780 107 c 0
 784 115 787 123.333 789 132 c 0
 790.333 136 790.333 140.333 789 145 c 1
 797.667 160.333 802 173.333 802 184 c 0
 802 190.667 802.333 195.667 803 199 c 1
 806.5 202.5 l 1
 810 206 l 1
 815.333 210 820 214.667 824 220 c 1
 825.333 224 826.333 227.667 827 231 c 0
 827.667 234.333 828.167 237.667 828.5 241 c 0
 828.833 244.333 828.333 247.667 827 251 c 0
 826.333 252.333 824.667 253.667 822 255 c 2
 805 261 l 1
 807.667 267 811 271.333 815 274 c 0
 819 276.667 822.667 278.667 826 280 c 0
 830 281.333 834.333 281.333 839 280 c 1
 871 290 l 1
536 98 m 0
 538 104 539.833 113.833 541.5 127.5 c 0
 543.167 141.167 544 154.667 544 168 c 0
 544 174.667 541.333 180.667 536 186 c 0
 530.663 191.333 523.829 196.667 515.5 202 c 0
 507.167 207.333 498 213.5 488 220.5 c 0
 478 227.5 468 236.333 458 247 c 0
 448 257.667 437.667 265.167 427 269.5 c 0
 416.333 273.833 405.5 276.333 394.5 277 c 0
 383.5 277.667 373.167 277.333 363.5 276 c 0
 353.833 274.667 345 274 337 274 c 0
 335.667 274 334.667 274.167 334 274.5 c 0
 333.333 274.833 332.333 275 331 275 c 1
 328.328 279 325.662 281.333 323 282 c 0
 321 282.667 319.333 283.667 318 285 c 2
 317 286 l 1
 317 287 l 2
 317 288.333 318 290 320 292 c 0
 322 294.667 322.333 297.667 321 301 c 1
 318.328 303.667 315.662 305 313 305 c 0
 309.667 305 306.333 304.667 303 304 c 1
 302.333 307.338 301.333 310.671 300 314 c 0
 298.667 317.336 297.5 321.169 296.5 325.5 c 0
 295.5 329.833 294.667 335 294 341 c 1
 303.333 333 311.5 327.167 318.5 323.5 c 0
 325.5 319.833 331.333 317.333 336 316 c 0
 341.336 314 345.669 313.333 349 314 c 0
 356.333 316 360.5 322.167 361.5 332.5 c 0
 362.5 342.833 362 357.333 360 376 c 1
 362 378.667 363.333 381.333 364 384 c 0
 366.667 395.333 370.167 402.833 374.5 406.5 c 0
 378.833 410.167 381 412.333 381 413 c 1
 383 413 384 413.667 384 415 c 1
 386.667 417 392.333 418.667 401 420 c 0
 404.333 420.667 407.5 421.333 410.5 422 c 0
 413.5 422.667 416.667 423.667 420 425 c 0
 425.337 427.667 426.67 431.333 424 436 c 0
 423.333 436 423 436.167 423 436.5 c 0
 423 436.833 422.667 437 422 437 c 1
 424.667 438.333 427.167 439.833 429.5 441.5 c 0
 431.84 443.167 433.673 444.667 435 446 c 0
 438.333 449.34 441.333 452.674 444 456 c 0
 446.667 459.333 449.167 462.833 451.5 466.5 c 0
 453.833 470.167 456 473.667 458 477 c 1
 454.667 482.337 450.667 487.17 446 491.5 c 0
 441.333 495.833 437.333 499.333 434 502 c 0
 429.333 504.667 425 507 421 509 c 1
 416.333 515.667 410 517.667 402 515 c 1
 398 515 394.667 516 392 518 c 0
 390.667 518.667 389.333 519.667 388 521 c 0
 382 525 378 527.333 376 528 c 0
 372.667 529.333 368.333 530.667 363 532 c 1
 353.667 538 344.833 545 336.5 553 c 0
 328.167 561 321.667 569.667 317 579 c 0
 313.667 586.333 307.333 591.167 298 593.5 c 0
 288.667 595.833 278.667 596.333 268 595 c 1
 230.667 566.333 199.5 531.667 174.5 491 c 0
 149.5 450.333 133.333 405.666 126 357 c 1
 132.667 347.667 140.167 339.333 148.5 332 c 0
 156.833 324.667 165.167 318.333 173.5 313 c 0
 181.833 307.667 189.833 303 197.5 299 c 0
 205.167 295 211.333 292 216 290 c 0
 227.333 284.667 240 280.333 254 277 c 0
 268 273.667 281.333 269 294 263 c 1
 299 258 l 1
 306 252 l 2
 307.333 250.667 309 249.167 311 247.5 c 0
 313 245.833 315 244 317 242 c 0
 318.333 240.659 319.5 239.826 320.5 239.5 c 0
 321.5 239.159 322.667 238.326 324 237 c 1
 324 233.667 323.333 228.667 322 222 c 0
 320.667 215.333 320.333 205.333 321 192 c 0
 321.667 176.667 325 163.5 331 152.5 c 0
 337 141.5 343 131.333 349 122 c 2
 355 113 l 2
 358.333 107.667 361 103 363 99 c 0
 365 95 365.333 90.6667 364 86 c 0
 363.333 82 362.333 74.5 361 63.5 c 0
 359.667 52.5 358.167 40.1667 356.5 26.5 c 0
 354.833 12.8333 353 -1.33333 351 -16 c 0
 349 -30.6667 347.667 -43.6667 347 -55 c 1
 353 -57.6667 358.167 -60.3333 362.5 -63 c 0
 366.833 -65.6667 371.5 -68.1667 376.5 -70.5 c 0
 381.5 -72.8333 387.5 -75 394.5 -77 c 0
 401.5 -79 411 -80.3333 423 -81 c 1
 425.667 -76.3333 428.333 -70.3333 431 -63 c 1
 433.667 -57.6667 436.833 -50.8333 440.5 -42.5 c 0
 444.167 -34.1667 448.667 -25 454 -15 c 1
 454 -5 455.5 3.66666 458.5 11 c 0
 461.5 18.3333 464.667 24.3333 468 29 c 0
 472 34.3333 476.667 39 482 43 c 0
 495.335 52.3333 507.169 62.3333 517.5 73 c 0
 527.833 83.6667 534 92 536 98 c 0
496 672 m 0
 455.333 672 416.666 666 380 654 c 1
 398 644.667 418.5 636.167 441.5 628.5 c 0
 464.5 620.833 487.333 617 510 617 c 0
 513.333 617 516.667 617.167 520 617.5 c 0
 523.333 617.833 526.667 618.333 530 619 c 0
 535.333 619.686 540.5 621.352 545.5 624 c 0
 550.5 626.667 555.667 629.667 561 633 c 0
 564.333 635 567.667 636.833 571 638.5 c 0
 574.333 640.167 577.667 641.667 581 643 c 0
 589.667 646.333 598.667 647.5 608 646.5 c 0
 617.333 645.5 627 644 637 642 c 0
 642.333 640.667 646.667 639.667 650 639 c 1
 626.667 649.672 602.167 657.838 576.5 663.5 c 0
 550.833 669.167 524 672 496 672 c 0
500 800 m 0
 568.667 800 633.5 786.833 694.5 760.5 c 0
 755.5 734.167 808.5 698.5 853.5 653.5 c 0
 898.5 608.5 934.167 555.5 960.5 494.5 c 0
 986.833 433.5 1000 368.667 1000 300 c 0
 1000 254 994 209.667 982 167 c 0
 970 124.333 953.167 84.5 931.5 47.5 c 0
 909.833 10.5 883.833 -23.1667 853.5 -53.5 c 0
 823.167 -83.8333 789.5 -109.833 752.5 -131.5 c 0
 715.5 -153.167 675.667 -170 633 -182 c 0
 590.333 -194 546 -200 500 -200 c 0
 454 -200 409.667 -194 367 -182 c 0
 324.333 -170 284.5 -153.167 247.5 -131.5 c 0
 210.5 -109.833 176.833 -83.8333 146.5 -53.5 c 0
 116.167 -23.1667 90.1667 10.5 68.5 47.5 c 0
 46.8333 84.5 30 124.333 18 167 c 0
 6 209.667 0 254 0 300 c 0
 0 346 6 390.333 18 433 c 0
 30 475.667 46.8333 515.5 68.5 552.5 c 0
 90.1667 589.5 116.167 623.167 146.5 653.5 c 0
 176.833 683.833 210.5 709.833 247.5 731.5 c 0
 284.5 753.167 324.333 770 367 782 c 0
 409.667 794 454 800 500 800 c 0
EndSplineSet
EndChar

StartChar: uniF019
Encoding: 61465 61465 59
Width: 1000
VWidth: 0
Flags: H
LayerCount: 2
Fore
SplineSet
749 423 m 2
 749 429 746.667 433.667 742 437 c 2
 512 615 l 2
 505.333 620.333 498 620.333 490 615 c 1
 268 437 l 2
 264 433.667 262 429 262 423 c 2
 262 102 l 2
 262 96.6667 263.667 92.3333 267 89 c 0
 270.333 85.6667 274.333 84 279 84 c 2
 411 84 l 2
 416.337 84 420.67 85.6667 424 89 c 0
 427.333 92.3335 429 96.6668 429 102 c 2
 429 299 l 1
 581 299 l 1
 581 102 l 2
 581 96.6667 582.667 92.3333 586 89 c 0
 589.333 85.6667 593.667 84 599 84 c 2
 731 84 l 2
 736.333 84 740.667 85.6667 744 89 c 0
 747.333 92.3335 749 96.6668 749 102 c 2
 749 423 l 2
500 800 m 0
 568.667 800 633.5 786.833 694.5 760.5 c 0
 755.5 734.167 808.5 698.5 853.5 653.5 c 0
 898.5 608.5 934.167 555.5 960.5 494.5 c 0
 986.833 433.5 1000 368.667 1000 300 c 0
 1000 254 994 209.667 982 167 c 0
 970 124.333 953.167 84.5 931.5 47.5 c 0
 909.833 10.5 883.833 -23.1667 853.5 -53.5 c 0
 823.167 -83.8333 789.5 -109.833 752.5 -131.5 c 0
 715.5 -153.167 675.667 -170 633 -182 c 0
 590.333 -194 546 -200 500 -200 c 0
 454 -200 409.667 -194 367 -182 c 0
 324.333 -170 284.5 -153.167 247.5 -131.5 c 0
 210.5 -109.833 176.833 -83.8333 146.5 -53.5 c 0
 116.167 -23.1667 90.1667 10.5 68.5 47.5 c 0
 46.8333 84.5 30 124.333 18 167 c 0
 6 209.667 0 254 0 300 c 0
 0 346 6 390.333 18 433 c 0
 30 475.667 46.8333 515.5 68.5 552.5 c 0
 90.1667 589.5 116.167 623.167 146.5 653.5 c 0
 176.833 683.833 210.5 709.833 247.5 731.5 c 0
 284.5 753.167 324.333 770 367 782 c 0
 409.667 794 454 800 500 800 c 0
EndSplineSet
EndChar

StartChar: uniF01B
Encoding: 61467 61467 60
Width: 1000
VWidth: 0
Flags: H
LayerCount: 2
Fore
SplineSet
781 453 m 1
 784.333 456.333 785.333 460.333 784 465 c 2
 768 538 l 2
 766.667 542 764.5 545.333 761.5 548 c 0
 758.5 550.667 755 551.667 751 551 c 0
 597 543 520 460.667 520 304 c 2
 520 105 l 2
 520 100.333 521.667 96.5 525 93.5 c 0
 528.333 90.5 532.333 89 537 89 c 2
 728 89 l 2
 732.667 89 736.667 90.5 740 93.5 c 0
 743.333 96.5 745 100.333 745 105 c 2
 745 335 l 2
 745 339.667 743.333 343.5 740 346.5 c 0
 736.667 349.5 732.667 351 728 351 c 2
 667 351 l 1
 668.333 404.333 702.667 436 770 446 c 1
 774.679 446 778.345 448.333 781 453 c 1
485 453 m 0
 487.667 456.333 488.333 460.333 487 465 c 2
 471 538 l 2
 469.667 542 467.5 545.333 464.5 548 c 0
 461.5 550.667 458 551.667 454 551 c 0
 300.667 543 224 460.667 224 304 c 2
 224 105 l 2
 224 94.3333 229.333 89 240 89 c 2
 432 89 l 2
 442.667 89 448 94.3333 448 105 c 2
 448 335 l 2
 448 345.667 442.667 351 432 351 c 2
 371 351 l 1
 371 404.333 405.333 436 474 446 c 0
 478 446 481.667 448.333 485 453 c 0
500 800 m 0
 568.667 800 633.5 786.833 694.5 760.5 c 0
 755.5 734.167 808.5 698.5 853.5 653.5 c 0
 898.5 608.5 934.167 555.5 960.5 494.5 c 0
 986.833 433.5 1000 368.667 1000 300 c 0
 1000 254 994 209.667 982 167 c 0
 970 124.333 953.167 84.5 931.5 47.5 c 0
 909.833 10.5 883.833 -23.1667 853.5 -53.5 c 0
 823.167 -83.8333 789.5 -109.833 752.5 -131.5 c 0
 715.5 -153.167 675.667 -170 633 -182 c 0
 590.333 -194 546 -200 500 -200 c 0
 454 -200 409.667 -194 367 -182 c 0
 324.333 -170 284.5 -153.167 247.5 -131.5 c 0
 210.5 -109.833 176.833 -83.8333 146.5 -53.5 c 0
 116.167 -23.1667 90.1667 10.5 68.5 47.5 c 0
 46.8333 84.5 30 124.333 18 167 c 0
 6 209.667 0 254 0 300 c 0
 0 346 6 390.333 18 433 c 0
 30 475.667 46.8333 515.5 68.5 552.5 c 0
 90.1667 589.5 116.167 623.167 146.5 653.5 c 0
 176.833 683.833 210.5 709.833 247.5 731.5 c 0
 284.5 753.167 324.333 770 367 782 c 0
 409.667 794 454 800 500 800 c 0
EndSplineSet
EndChar

StartChar: uniF01D
Encoding: 61469 61469 61
Width: 1000
VWidth: 0
Flags: H
LayerCount: 2
Fore
SplineSet
823 229 m 2
 823 238.333 819.333 245 812 249 c 2
 703 301 l 1
 715.668 309 725.835 320.333 733.5 335 c 0
 741.167 349.667 745 366.333 745 385 c 0
 745 411 737.167 433.333 721.5 452 c 0
 705.833 470.667 686.667 480 664 480 c 0
 656 480 648.5 478.667 641.5 476 c 0
 634.5 473.333 628 470 622 466 c 1
 629.333 446 633 425.667 633 405 c 0
 633 372.333 624.333 342.666 607 316 c 1
 610.333 312.667 613.5 309.667 616.5 307 c 0
 619.5 304.333 622.667 302 626 300 c 2
 697 267 l 2
 707 261.667 715 254.167 721 244.5 c 0
 727 234.833 730 224 730 212 c 2
 730 120 l 1
 805 120 l 2
 810.333 120 814.667 122.167 818 126.5 c 0
 821.333 130.833 823 136 823 142 c 2
 823 229 l 2
696 212 m 2
 696 224 691.333 232 682 236 c 2
 587 282 l 1
 547 301 l 1
 555.667 306.336 563.5 313.169 570.5 321.5 c 0
 577.5 329.833 583.333 339.333 588 350 c 0
 591.333 358 594.167 366.667 596.5 376 c 0
 598.833 385.333 600 395 600 405 c 0
 600 410.333 599.667 415.5 599 420.5 c 0
 598.333 425.5 597.333 430.667 596 436 c 0
 590 461.333 578.167 482 560.5 498 c 0
 542.833 514 522.333 522 499 522 c 0
 475.667 522 455.333 514.167 438 498.5 c 0
 420.667 482.833 409 463 403 439 c 0
 399.667 427 398 415.667 398 405 c 0
 398 385 402.333 365.667 411 347 c 0
 421 327 434.667 311.333 452 300 c 1
 414 282 l 1
 316 237 l 2
 306 232.333 301 224 301 212 c 2
 301 120 l 1
 301 104 l 2
 301 96.6667 303.167 90.5 307.5 85.5 c 0
 311.833 80.5 317.333 78 324 78 c 2
 674 78 l 2
 680 78 685.167 80.5 689.5 85.5 c 0
 693.833 90.5 696 96.6667 696 104 c 2
 696 120 l 1
 696 212 l 2
268 212 m 1
 268 224 271 234.833 277 244.5 c 0
 283 254.167 291 261.667 301 267 c 1
 375 301 l 1
 381.667 305 387 309.667 391 315 c 1
 382.332 327.667 375.665 341.667 371 357 c 0
 366.333 372.333 364 388.333 364 405 c 0
 364 416.335 365.167 427.168 367.5 437.5 c 0
 369.839 447.835 372.672 457.668 376 467 c 1
 364 475.667 350.667 480 336 480 c 0
 313.333 480 294.166 470.667 278.5 452 c 0
 262.833 433.333 255 411 255 385 c 0
 255 366.333 259 349.5 267 334.5 c 0
 275 319.5 285.667 308 299 300 c 1
 188 249 l 2
 180.667 245.667 177 239 177 229 c 2
 177 142 l 2
 177 136 178.667 130.833 182 126.5 c 0
 185.333 122.167 189.667 120 195 120 c 2
 268 120 l 1
 268 212 l 1
 268 212 l 1
500 800 m 0
 568.667 800 633.5 786.833 694.5 760.5 c 0
 755.5 734.167 808.5 698.5 853.5 653.5 c 0
 898.5 608.5 934.167 555.5 960.5 494.5 c 0
 986.833 433.5 1000 368.667 1000 300 c 0
 1000 254 994 209.667 982 167 c 0
 970 124.333 953.167 84.5 931.5 47.5 c 0
 909.833 10.5 883.833 -23.1667 853.5 -53.5 c 0
 823.167 -83.8333 789.5 -109.833 752.5 -131.5 c 0
 715.5 -153.167 675.667 -170 633 -182 c 0
 590.333 -194 546 -200 500 -200 c 0
 454 -200 409.667 -194 367 -182 c 0
 324.333 -170 284.5 -153.167 247.5 -131.5 c 0
 210.5 -109.833 176.833 -83.8333 146.5 -53.5 c 0
 116.167 -23.1667 90.1667 10.5 68.5 47.5 c 0
 46.8333 84.5 30 124.333 18 167 c 0
 6 209.667 0 254 0 300 c 0
 0 346 6 390.333 18 433 c 0
 30 475.667 46.8333 515.5 68.5 552.5 c 0
 90.1667 589.5 116.167 623.167 146.5 653.5 c 0
 176.833 683.833 210.5 709.833 247.5 731.5 c 0
 284.5 753.167 324.333 770 367 782 c 0
 409.667 794 454 800 500 800 c 0
EndSplineSet
EndChar

StartChar: uniF01F
Encoding: 61471 61471 62
Width: 1000
VWidth: 0
Flags: H
LayerCount: 2
Fore
SplineSet
790 485 m 2
 790 495 786.5 503.333 779.5 510 c 0
 772.5 516.667 764.333 520 755 520 c 2
 253 520 l 2
 243.667 520 235.5 516.667 228.5 510 c 0
 221.5 503.333 218 495 218 485 c 2
 218 179 l 2
 218 169.667 221.5 161.5 228.5 154.5 c 0
 235.5 147.5 243.667 144 253 144 c 2
 424 144 l 1
 424 91 l 1
 384 91 l 2
 377.333 91 374 87.6667 374 81 c 2
 374 59 l 2
 374 52.3333 377.333 49 384 49 c 2
 619 49 l 2
 625.667 49 629 52.3333 629 59 c 2
 629 81 l 2
 629 87.6667 625.667 91 619 91 c 2
 579 91 l 1
 579 144 l 1
 755 144 l 2
 764.333 144 772.5 147.5 779.5 154.5 c 0
 786.5 161.5 790 169.667 790 179 c 2
 790 485 l 2
500 800 m 0
 568.667 800 633.5 786.833 694.5 760.5 c 0
 755.5 734.167 808.5 698.5 853.5 653.5 c 0
 898.5 608.5 934.167 555.5 960.5 494.5 c 0
 986.833 433.5 1000 368.667 1000 300 c 0
 1000 254 994 209.667 982 167 c 0
 970 124.333 953.167 84.5 931.5 47.5 c 0
 909.833 10.5 883.833 -23.1667 853.5 -53.5 c 0
 823.167 -83.8333 789.5 -109.833 752.5 -131.5 c 0
 715.5 -153.167 675.667 -170 633 -182 c 0
 590.333 -194 546 -200 500 -200 c 0
 454 -200 409.667 -194 367 -182 c 0
 324.333 -170 284.5 -153.167 247.5 -131.5 c 0
 210.5 -109.833 176.833 -83.8333 146.5 -53.5 c 0
 116.167 -23.1667 90.1667 10.5 68.5 47.5 c 0
 46.8333 84.5 30 124.333 18 167 c 0
 6 209.667 0 254 0 300 c 0
 0 346 6 390.333 18 433 c 0
 30 475.667 46.8333 515.5 68.5 552.5 c 0
 90.1667 589.5 116.167 623.167 146.5 653.5 c 0
 176.833 683.833 210.5 709.833 247.5 731.5 c 0
 284.5 753.167 324.333 770 367 782 c 0
 409.667 794 454 800 500 800 c 0
288 450 m 1
 720 450 l 1
 720 214 l 1
 288 214 l 1
 288 450 l 1
EndSplineSet
EndChar

StartChar: uniF021
Encoding: 61473 61473 63
Width: 1000
VWidth: 0
Flags: H
LayerCount: 2
Fore
SplineSet
806 156 m 2
 806 160 804.5 163.5 801.5 166.5 c 0
 798.5 169.5 795 171 791 171 c 2
 209 171 l 2
 205 171 201.5 169.5 198.5 166.5 c 0
 195.5 163.5 194 160 194 156 c 2
 194 121 l 2
 194 116.333 195.333 113 198 111 c 2
 219 88 l 2
 222.333 84.6667 226 83 230 83 c 2
 768 83 l 2
 772 83 775.667 84.6667 779 88 c 2
 801 110 l 2
 804.333 113.333 806 117 806 121 c 2
 806 156 l 2
257 228 m 2
 257 220 260 213 266 207 c 0
 272 201 279 198 287 198 c 2
 713 198 l 2
 721 198 727.833 201 733.5 207 c 0
 739.167 213 742 220 742 228 c 2
 742 489 l 2
 742 497 739.167 503.833 733.5 509.5 c 0
 727.833 515.167 721 518 713 518 c 2
 287 518 l 2
 279 518 272 515.167 266 509.5 c 0
 260 503.833 257 497 257 489 c 2
 257 228 l 2
500 800 m 0
 568.667 800 633.5 786.833 694.5 760.5 c 0
 755.5 734.167 808.5 698.5 853.5 653.5 c 0
 898.5 608.5 934.167 555.5 960.5 494.5 c 0
 986.833 433.5 1000 368.667 1000 300 c 0
 1000 254 994 209.667 982 167 c 0
 970 124.333 953.167 84.5 931.5 47.5 c 0
 909.833 10.5 883.833 -23.1667 853.5 -53.5 c 0
 823.167 -83.8333 789.5 -109.833 752.5 -131.5 c 0
 715.5 -153.167 675.667 -170 633 -182 c 0
 590.333 -194 546 -200 500 -200 c 0
 454 -200 409.667 -194 367 -182 c 0
 324.333 -170 284.5 -153.167 247.5 -131.5 c 0
 210.5 -109.833 176.833 -83.8333 146.5 -53.5 c 0
 116.167 -23.1667 90.1667 10.5 68.5 47.5 c 0
 46.8333 84.5 30 124.333 18 167 c 0
 6 209.667 0 254 0 300 c 0
 0 346 6 390.333 18 433 c 0
 30 475.667 46.8333 515.5 68.5 552.5 c 0
 90.1667 589.5 116.167 623.167 146.5 653.5 c 0
 176.833 683.833 210.5 709.833 247.5 731.5 c 0
 284.5 753.167 324.333 770 367 782 c 0
 409.667 794 454 800 500 800 c 0
553 152 m 2
 554.333 152 555 149.333 555 144 c 2
 555 110 l 2
 555 104.667 554.333 102 553 102 c 2
 447 102 l 2
 445 102 444 104.667 444 110 c 2
 444 144 l 2
 444 149.333 445 152 447 152 c 2
 553 152 l 2
683 257 m 1
 316 257 l 1
 316 459 l 1
 683 459 l 1
 683 257 l 1
EndSplineSet
EndChar

StartChar: uniF023
Encoding: 61475 61475 64
Width: 1000
VWidth: 0
Flags: H
LayerCount: 2
Fore
SplineSet
782 127 m 1
 789.333 134.333 792 142.333 790 151 c 0
 789.333 155 787.667 158.667 785 162 c 0
 782.333 165.333 779.333 168.333 776 171 c 2
 658 240 l 1
 657 241 l 1
 653 243 647.667 244 641 244 c 0
 630.333 244 622 240.667 616 234 c 2
 581 199 l 2
 579 197 576.333 196 573 196 c 0
 565 197.333 555.333 201 544 207 c 0
 534.666 212.333 522.832 219.833 508.5 229.5 c 0
 494.167 239.167 477.667 253.334 459 272 c 0
 445.667 286 433.333 300 422 314 c 0
 412.667 325.335 404 337.668 396 351 c 0
 388 364.333 383.667 376 383 386 c 0
 383 389.333 384 392 386 394 c 2
 416 424 l 2
 421.34 429.333 424.673 435.833 426 443.5 c 0
 427.333 451.167 426.333 458.333 423 465 c 2
 358 587 l 2
 352.667 597.667 344.667 603 334 603 c 0
 327.332 603 320.665 600.333 314 595 c 1
 234 514 l 2
 230 510.667 226.5 505.833 223.5 499.5 c 0
 220.5 493.167 218.667 487.333 218 482 c 1
 218 457 l 1
 231 395 l 1
 276.5 302 l 1
 372 185 l 1
 408 149 441.667 120.667 473 100 c 0
 504.333 79.3333 532.5 63.8333 557.5 53.5 c 0
 582.5 43.1667 603.667 36.6667 621 34 c 0
 638.333 31.3333 650.667 30 658 30 c 0
 661.333 30 664 30.1667 666 30.5 c 0
 668 30.8333 669.333 31 670 31 c 0
 675.333 31.6667 681 33.5 687 36.5 c 0
 693 39.5 698 43 702 47 c 2
 782 127 l 1
 782 127 l 1
500 800 m 0
 568.667 800 633.5 786.833 694.5 760.5 c 0
 755.5 734.167 808.5 698.5 853.5 653.5 c 0
 898.5 608.5 934.167 555.5 960.5 494.5 c 0
 986.833 433.5 1000 368.667 1000 300 c 0
 1000 254 994 209.667 982 167 c 0
 970 124.333 953.167 84.5 931.5 47.5 c 0
 909.833 10.5 883.833 -23.1667 853.5 -53.5 c 0
 823.167 -83.8333 789.5 -109.833 752.5 -131.5 c 0
 715.5 -153.167 675.667 -170 633 -182 c 0
 590.333 -194 546 -200 500 -200 c 0
 454 -200 409.667 -194 367 -182 c 0
 324.333 -170 284.5 -153.167 247.5 -131.5 c 0
 210.5 -109.833 176.833 -83.8333 146.5 -53.5 c 0
 116.167 -23.1667 90.1667 10.5 68.5 47.5 c 0
 46.8333 84.5 30 124.333 18 167 c 0
 6 209.667 0 254 0 300 c 0
 0 346 6 390.333 18 433 c 0
 30 475.667 46.8333 515.5 68.5 552.5 c 0
 90.1667 589.5 116.167 623.167 146.5 653.5 c 0
 176.833 683.833 210.5 709.833 247.5 731.5 c 0
 284.5 753.167 324.333 770 367 782 c 0
 409.667 794 454 800 500 800 c 0
EndSplineSet
EndChar

StartChar: uniF025
Encoding: 61477 61477 65
Width: 1000
VWidth: 0
Flags: H
LayerCount: 2
Fore
SplineSet
805 174 m 0
 819 194 826 217 826 243 c 0
 826 259.667 822.833 275.5 816.5 290.5 c 0
 810.167 305.5 801.5 318.333 790.5 329 c 0
 779.5 339.667 767 347.667 753 353 c 0
 739 358.333 724 360 708 358 c 1
 702 380.667 692.833 401.667 680.5 421 c 0
 668.167 440.333 653.5 456.833 636.5 470.5 c 0
 619.5 484.167 600.833 494.833 580.5 502.5 c 0
 560.167 510.167 538.667 514 516 514 c 0
 484.667 514 455.333 506.667 428 492 c 0
 400.667 477.333 377.333 456.333 358 429 c 1
 348 431.667 337.333 433 326 433 c 0
 304.667 433 284.833 428.667 266.5 420 c 0
 248.167 411.333 232.167 399.5 218.5 384.5 c 0
 204.833 369.5 194 351.833 186 331.5 c 0
 178 311.167 174 289.667 174 267 c 0
 174 232.333 182.333 201.667 199 175 c 0
 203 168.333 209 165 217 165 c 2
 788 165 l 2
 795.333 165 801 168 805 174 c 0
500 800 m 0
 568.667 800 633.5 786.833 694.5 760.5 c 0
 755.5 734.167 808.5 698.5 853.5 653.5 c 0
 898.5 608.5 934.167 555.5 960.5 494.5 c 0
 986.833 433.5 1000 368.667 1000 300 c 0
 1000 254 994 209.667 982 167 c 0
 970 124.333 953.167 84.5 931.5 47.5 c 0
 909.833 10.5 883.833 -23.1667 853.5 -53.5 c 0
 823.167 -83.8333 789.5 -109.833 752.5 -131.5 c 0
 715.5 -153.167 675.667 -170 633 -182 c 0
 590.333 -194 546 -200 500 -200 c 0
 454 -200 409.667 -194 367 -182 c 0
 324.333 -170 284.5 -153.167 247.5 -131.5 c 0
 210.5 -109.833 176.833 -83.8333 146.5 -53.5 c 0
 116.167 -23.1667 90.1667 10.5 68.5 47.5 c 0
 46.8333 84.5 30 124.333 18 167 c 0
 6 209.667 0 254 0 300 c 0
 0 346 6 390.333 18 433 c 0
 30 475.667 46.8333 515.5 68.5 552.5 c 0
 90.1667 589.5 116.167 623.167 146.5 653.5 c 0
 176.833 683.833 210.5 709.833 247.5 731.5 c 0
 284.5 753.167 324.333 770 367 782 c 0
 409.667 794 454 800 500 800 c 0
EndSplineSet
EndChar

StartChar: uniF027
Encoding: 61479 61479 66
Width: 1000
VWidth: 0
Flags: H
LayerCount: 2
Fore
SplineSet
832 394 m 2
 832 402.667 829 410 823 416 c 0
 817 422 809.667 425 801 425 c 2
 207 425 l 2
 198.333 425 191 422 185 416 c 0
 179 410 176 402.667 176 394 c 2
 176 206 l 2
 176 197.333 179 190 185 184 c 0
 191 178 198.333 175 207 175 c 2
 801 175 l 2
 809.667 175 817 178 823 184 c 0
 829 190 832 197.333 832 206 c 2
 832 394 l 2
500 800 m 0
 568.667 800 633.5 786.833 694.5 760.5 c 0
 755.5 734.167 808.5 698.5 853.5 653.5 c 0
 898.5 608.5 934.167 555.5 960.5 494.5 c 0
 986.833 433.5 1000 368.667 1000 300 c 0
 1000 254 994 209.667 982 167 c 0
 970 124.333 953.167 84.5 931.5 47.5 c 0
 909.833 10.5 883.833 -23.1667 853.5 -53.5 c 0
 823.167 -83.8333 789.5 -109.833 752.5 -131.5 c 0
 715.5 -153.167 675.667 -170 633 -182 c 0
 590.333 -194 546 -200 500 -200 c 0
 454 -200 409.667 -194 367 -182 c 0
 324.333 -170 284.5 -153.167 247.5 -131.5 c 0
 210.5 -109.833 176.833 -83.8333 146.5 -53.5 c 0
 116.167 -23.1667 90.1667 10.5 68.5 47.5 c 0
 46.8333 84.5 30 124.333 18 167 c 0
 6 209.667 0 254 0 300 c 0
 0 346 6 390.333 18 433 c 0
 30 475.667 46.8333 515.5 68.5 552.5 c 0
 90.1667 589.5 116.167 623.167 146.5 653.5 c 0
 176.833 683.833 210.5 709.833 247.5 731.5 c 0
 284.5 753.167 324.333 770 367 782 c 0
 409.667 794 454 800 500 800 c 0
EndSplineSet
EndChar

StartChar: uniF029
Encoding: 61481 61481 67
Width: 1000
VWidth: 0
Flags: H
LayerCount: 2
Fore
SplineSet
802 308 m 0
 802 314.667 799.333 319.667 794 323 c 2
 523 516 l 2
 516.333 520 509.667 520.667 503 518 c 1
 496.333 513.333 493 507.667 493 501 c 2
 493 410 l 1
 249 410 l 2
 243.666 410 239.332 408.167 236 404.5 c 0
 232.667 400.833 231 396.333 231 391 c 2
 231 223 l 2
 231 217.666 232.667 213.333 236 210 c 0
 239.333 206.667 243.667 205 249 205 c 2
 493 205 l 1
 493 114 l 2
 493 106 496.333 100.333 503 97 c 0
 509.667 94.3333 516.333 95 523 99 c 2
 794 293 l 2
 799.333 296.333 802 301.333 802 308 c 0
500 800 m 0
 568.667 800 633.5 786.833 694.5 760.5 c 0
 755.5 734.167 808.5 698.5 853.5 653.5 c 0
 898.5 608.5 934.167 555.5 960.5 494.5 c 0
 986.833 433.5 1000 368.667 1000 300 c 0
 1000 254 994 209.667 982 167 c 0
 970 124.333 953.167 84.5 931.5 47.5 c 0
 909.833 10.5 883.833 -23.1667 853.5 -53.5 c 0
 823.167 -83.8333 789.5 -109.833 752.5 -131.5 c 0
 715.5 -153.167 675.667 -170 633 -182 c 0
 590.333 -194 546 -200 500 -200 c 0
 454 -200 409.667 -194 367 -182 c 0
 324.333 -170 284.5 -153.167 247.5 -131.5 c 0
 210.5 -109.833 176.833 -83.8333 146.5 -53.5 c 0
 116.167 -23.1667 90.1667 10.5 68.5 47.5 c 0
 46.8333 84.5 30 124.333 18 167 c 0
 6 209.667 0 254 0 300 c 0
 0 346 6 390.333 18 433 c 0
 30 475.667 46.8333 515.5 68.5 552.5 c 0
 90.1667 589.5 116.167 623.167 146.5 653.5 c 0
 176.833 683.833 210.5 709.833 247.5 731.5 c 0
 284.5 753.167 324.333 770 367 782 c 0
 409.667 794 454 800 500 800 c 0
EndSplineSet
EndChar

StartChar: uniF02B
Encoding: 61483 61483 68
Width: 1000
VWidth: 0
Flags: H
LayerCount: 2
Fore
SplineSet
768 391 m 2
 768 403.667 761.667 410 749 410 c 2
 505 410 l 1
 505 501 l 2
 505 507.667 501.667 513.333 495 518 c 1
 488.333 521.333 482 520.667 476 516 c 2
 204 322 l 2
 199.333 319.333 197 314.333 197 307 c 0
 197 299.667 199.333 294.667 204 292 c 2
 476 99 l 2
 482.667 94.3332 489 93.6665 495 97 c 0
 501.667 100.333 505 106 505 114 c 2
 505 205 l 1
 749 205 l 2
 754.333 205 758.833 206.667 762.5 210 c 0
 766.167 213.333 768 217.667 768 223 c 2
 768 391 l 2
500 800 m 0
 568.667 800 633.5 786.833 694.5 760.5 c 0
 755.5 734.167 808.5 698.5 853.5 653.5 c 0
 898.5 608.5 934.167 555.5 960.5 494.5 c 0
 986.833 433.5 1000 368.667 1000 300 c 0
 1000 254 994 209.667 982 167 c 0
 970 124.333 953.167 84.5 931.5 47.5 c 0
 909.833 10.5 883.833 -23.1667 853.5 -53.5 c 0
 823.167 -83.8333 789.5 -109.833 752.5 -131.5 c 0
 715.5 -153.167 675.667 -170 633 -182 c 0
 590.333 -194 546 -200 500 -200 c 0
 454 -200 409.667 -194 367 -182 c 0
 324.333 -170 284.5 -153.167 247.5 -131.5 c 0
 210.5 -109.833 176.833 -83.8333 146.5 -53.5 c 0
 116.167 -23.1667 90.1667 10.5 68.5 47.5 c 0
 46.8333 84.5 30 124.333 18 167 c 0
 6 209.667 0 254 0 300 c 0
 0 346 6 390.333 18 433 c 0
 30 475.667 46.8333 515.5 68.5 552.5 c 0
 90.1667 589.5 116.167 623.167 146.5 653.5 c 0
 176.833 683.833 210.5 709.833 247.5 731.5 c 0
 284.5 753.167 324.333 770 367 782 c 0
 409.667 794 454 800 500 800 c 0
EndSplineSet
EndChar

StartChar: uniF02D
Encoding: 61485 61485 69
Width: 1000
VWidth: 0
Flags: H
LayerCount: 2
Fore
SplineSet
500 -200 m 0
 454 -200 409.667 -194 367 -182 c 0
 324.333 -170 284.5 -153.167 247.5 -131.5 c 0
 210.5 -109.833 176.833 -83.8333 146.5 -53.5 c 0
 116.167 -23.1667 90.1667 10.5 68.5 47.5 c 0
 46.8333 84.5 30 124.333 18 167 c 0
 6 209.667 0 254 0 300 c 0
 0 346 6 390.333 18 433 c 0
 30 475.667 46.8333 515.5 68.5 552.5 c 0
 90.1667 589.5 116.167 623.167 146.5 653.5 c 0
 176.833 683.833 210.5 709.833 247.5 731.5 c 0
 284.5 753.167 324.333 770 367 782 c 0
 409.667 794 454 800 500 800 c 0
 568.667 800 633.5 786.833 694.5 760.5 c 0
 755.5 734.167 808.5 698.5 853.5 653.5 c 0
 898.5 608.5 934.167 555.5 960.5 494.5 c 0
 986.833 433.5 1000 368.667 1000 300 c 0
 1000 254 994 209.667 982 167 c 0
 970 124.333 953.167 84.5 931.5 47.5 c 0
 909.833 10.5 883.833 -23.1667 853.5 -53.5 c 0
 823.167 -83.8333 789.5 -109.833 752.5 -131.5 c 0
 715.5 -153.167 675.667 -170 633 -182 c 0
 590.333 -194 546 -200 500 -200 c 0
709 332 m 2
 515 603 l 2
 511 608.333 505.667 611 499 611 c 0
 493 611 488 608.333 484 603 c 2
 291 332 l 2
 287 326 286.667 319.667 290 313 c 0
 293.333 305.667 299 302 307 302 c 2
 397 302 l 1
 397 59 l 2
 397 53.6667 398.833 49.1667 402.5 45.5 c 0
 406.167 41.8333 410.667 40 416 40 c 2
 584 40 l 2
 589.333 40 593.833 41.8333 597.5 45.5 c 0
 601.167 49.1667 603 53.6667 603 59 c 2
 603 302 l 1
 694 302 l 2
 701.333 302 706.667 305.667 710 313 c 0
 713.333 319.667 713 326 709 332 c 2
EndSplineSet
EndChar

StartChar: uniF02F
Encoding: 61487 61487 70
Width: 1000
VWidth: 0
Flags: H
LayerCount: 2
Fore
SplineSet
500 -200 m 0
 454 -200 409.667 -194 367 -182 c 0
 324.333 -170 284.5 -153.167 247.5 -131.5 c 0
 210.5 -109.833 176.833 -83.8333 146.5 -53.5 c 0
 116.167 -23.1667 90.1667 10.5 68.5 47.5 c 0
 46.8333 84.5 30 124.333 18 167 c 0
 6 209.667 0 254 0 300 c 0
 0 346 6 390.333 18 433 c 0
 30 475.667 46.8333 515.5 68.5 552.5 c 0
 90.1667 589.5 116.167 623.167 146.5 653.5 c 0
 176.833 683.833 210.5 709.833 247.5 731.5 c 0
 284.5 753.167 324.333 770 367 782 c 0
 409.667 794 454 800 500 800 c 0
 568.667 800 633.5 786.833 694.5 760.5 c 0
 755.5 734.167 808.5 698.5 853.5 653.5 c 0
 898.5 608.5 934.167 555.5 960.5 494.5 c 0
 986.833 433.5 1000 368.667 1000 300 c 0
 1000 254 994 209.667 982 167 c 0
 970 124.333 953.167 84.5 931.5 47.5 c 0
 909.833 10.5 883.833 -23.1667 853.5 -53.5 c 0
 823.167 -83.8333 789.5 -109.833 752.5 -131.5 c 0
 715.5 -153.167 675.667 -170 633 -182 c 0
 590.333 -194 546 -200 500 -200 c 0
295 283 m 2
 489 11 l 2
 493 5.66667 498.333 3 505 3 c 0
 511 3 516 5.66667 520 11 c 2
 713 283 l 2
 717 288.334 717.333 294.668 714 302 c 0
 710.667 308.667 705 312 697 312 c 2
 607 312 l 1
 607 556 l 2
 607 561.333 605.167 565.833 601.5 569.5 c 0
 597.833 573.167 593.333 575 588 575 c 2
 420 575 l 2
 414.667 575 410.167 573.167 406.5 569.5 c 0
 402.833 565.833 401 561.333 401 556 c 2
 401 312 l 1
 310 312 l 2
 302.667 312 297.333 308.667 294 302 c 0
 290.667 294.667 291 288.333 295 283 c 2
EndSplineSet
EndChar

StartChar: uniF031
Encoding: 61489 61489 71
Width: 1000
VWidth: 0
Flags: H
LayerCount: 2
Fore
SplineSet
500 -200 m 0
 454 -200 409.667 -194 367 -182 c 0
 324.333 -170 284.5 -153.167 247.5 -131.5 c 0
 210.5 -109.833 176.833 -83.8333 146.5 -53.5 c 0
 116.167 -23.1667 90.1667 10.5 68.5 47.5 c 0
 46.8333 84.5 30 124.333 18 167 c 0
 6 209.667 0 254 0 300 c 0
 0 346 6 390.333 18 433 c 0
 30 475.667 46.8333 515.5 68.5 552.5 c 0
 90.1667 589.5 116.167 623.167 146.5 653.5 c 0
 176.833 683.833 210.5 709.833 247.5 731.5 c 0
 284.5 753.167 324.333 770 367 782 c 0
 409.667 794 454 800 500 800 c 0
 568.667 800 633.5 786.833 694.5 760.5 c 0
 755.5 734.167 808.5 698.5 853.5 653.5 c 0
 898.5 608.5 934.167 555.5 960.5 494.5 c 0
 986.833 433.5 1000 368.667 1000 300 c 0
 1000 254 994 209.667 982 167 c 0
 970 124.333 953.167 84.5 931.5 47.5 c 0
 909.833 10.5 883.833 -23.1667 853.5 -53.5 c 0
 823.167 -83.8333 789.5 -109.833 752.5 -131.5 c 0
 715.5 -153.167 675.667 -170 633 -182 c 0
 590.333 -194 546 -200 500 -200 c 0
704 439 m 2
 296 439 l 2
 290.667 439 286.167 437.333 282.5 434 c 0
 278.833 430.667 277 426.333 277 421 c 2
 277 27 l 2
 277 21.6667 278.833 17.1667 282.5 13.5 c 0
 286.167 9.83333 290.667 8 296 8 c 2
 704 8 l 2
 716.667 8 723 14.3333 723 27 c 2
 723 421 l 2
 723 426.337 721.167 430.67 717.5 434 c 0
 713.833 437.333 709.333 439 704 439 c 2
729 566 m 2
 575 566 l 1
 575 590 l 2
 575 595.333 573.167 599.833 569.5 603.5 c 0
 565.833 607.167 561.333 609 556 609 c 2
 445 609 l 2
 439.667 609 435.167 607.167 431.5 603.5 c 0
 427.833 599.833 426 595.333 426 590 c 2
 426 566 l 1
 271 566 l 2
 265.667 566 261.167 564.167 257.5 560.5 c 0
 253.833 556.833 252 552.333 252 547 c 2
 252 493 l 2
 252 487.667 253.833 483.167 257.5 479.5 c 0
 261.167 475.833 265.667 474 271 474 c 2
 729 474 l 2
 741.667 474 748 480.333 748 493 c 2
 748 547 l 2
 748 559.667 741.667 566 729 566 c 2
EndSplineSet
EndChar

StartChar: uniF033
Encoding: 61491 61491 72
Width: 1000
VWidth: 0
Flags: H
LayerCount: 2
Fore
SplineSet
500 -200 m 0
 454 -200 409.667 -194 367 -182 c 0
 324.333 -170 284.5 -153.167 247.5 -131.5 c 0
 210.5 -109.833 176.833 -83.8333 146.5 -53.5 c 0
 116.167 -23.1667 90.1667 10.5 68.5 47.5 c 0
 46.8333 84.5 30 124.333 18 167 c 0
 6 209.667 0 254 0 300 c 0
 0 346 6 390.333 18 433 c 0
 30 475.667 46.8333 515.5 68.5 552.5 c 0
 90.1667 589.5 116.167 623.167 146.5 653.5 c 0
 176.833 683.833 210.5 709.833 247.5 731.5 c 0
 284.5 753.167 324.333 770 367 782 c 0
 409.667 794 454 800 500 800 c 0
 568.667 800 633.5 786.833 694.5 760.5 c 0
 755.5 734.167 808.5 698.5 853.5 653.5 c 0
 898.5 608.5 934.167 555.5 960.5 494.5 c 0
 986.833 433.5 1000 368.667 1000 300 c 0
 1000 254 994 209.667 982 167 c 0
 970 124.333 953.167 84.5 931.5 47.5 c 0
 909.833 10.5 883.833 -23.1667 853.5 -53.5 c 0
 823.167 -83.8333 789.5 -109.833 752.5 -131.5 c 0
 715.5 -153.167 675.667 -170 633 -182 c 0
 590.333 -194 546 -200 500 -200 c 0
655 605 m 2
 420 605 l 1
 419 605 l 1
 389 605 l 1
 387 605 l 1
 383 605 l 1
 383 602 l 1
 264 485 l 2
 262.667 483.667 262 482.667 262 482 c 2
 262 480 l 1
 262 449 l 1
 262 41 l 2
 262 37 263.5 33.3333 266.5 30 c 0
 269.5 26.6667 273.333 25 278 25 c 2
 543 25 l 1
 543 77 l 1
 314 77 l 1
 314 443 l 1
 419 443 l 2
 423 443 425 445 425 449 c 2
 425 553 l 1
 619 553 l 1
 619 412 l 1
 671 412 l 1
 671 589 l 2
 671 593 669.5 596.667 666.5 600 c 0
 663.5 603.333 659.667 605 655 605 c 2
804 237 m 2
 694 237 l 1
 694 347 l 2
 694 353 691.333 356 686 356 c 2
 609 356 l 2
 603.667 356 601 353 601 347 c 2
 601 237 l 1
 490 237 l 2
 484.667 237 482 234.333 482 229 c 2
 482 152 l 2
 482 146.667 484.667 144 490 144 c 2
 601 144 l 1
 601 34 l 2
 601 28 603.667 25 609 25 c 2
 686 25 l 2
 691.333 25 694 28 694 34 c 2
 694 144 l 1
 804 144 l 2
 810 144 813 146.667 813 152 c 2
 813 229 l 2
 813 234.333 810 237 804 237 c 2
EndSplineSet
EndChar

StartChar: uniF035
Encoding: 61493 61493 73
Width: 1000
VWidth: 0
Flags: H
LayerCount: 2
Fore
SplineSet
804 379 m 1
 806.667 381.667 808 384.333 808 387 c 0
 808 389.667 806.667 392.333 804 395 c 2
 724 476 l 1
 718 480.667 712.667 480.667 708 476 c 2
 700 468 l 1
 700 594 l 2
 700 604.667 694.667 610 684 610 c 2
 444 610 l 1
 443 611 l 1
 412 611 l 2
 411.333 611 411 610.667 411 610 c 1
 407 610 l 1
 407 608 l 1
 284 488 l 2
 284 487.326 283.667 486.659 283 486 c 1
 283 484 l 1
 283 451 l 1
 283 36 l 2
 283 25.3333 288.333 20 299 20 c 2
 413 20 l 1
 569 20 l 1
 684 20 l 2
 694.667 20 700 25.6667 700 37 c 2
 700 193 l 2
 700 196.333 699.333 198.833 698 200.5 c 0
 696.645 202.161 694.312 201.327 691 198 c 2
 683 190 l 2
 679.667 186.667 675.167 182.5 669.5 177.5 c 0
 663.833 172.5 656.333 165.333 647 156 c 1
 647 73 l 1
 569 73 l 1
 413 73 l 1
 335 73 l 1
 335 445 l 1
 443 445 l 2
 447 445 449 447 449 451 c 2
 449 557 l 1
 647 557 l 1
 647 415 l 1
 491 259 l 2
 490.333 258.325 489.333 256.659 488 254 c 2
 449 135 l 2
 447.667 131 448.667 127.333 452 124 c 0
 454 121.333 456.667 120 460 120 c 0
 460.667 120 461.167 120.167 461.5 120.5 c 0
 461.833 120.833 462.333 121 463 121 c 2
 583 160 l 2
 584.333 160 586 161 588 163 c 2
 804 379 l 1
 804 379 l 1
500 800 m 0
 568.667 800 633.5 786.833 694.5 760.5 c 0
 755.5 734.167 808.5 698.5 853.5 653.5 c 0
 898.5 608.5 934.167 555.5 960.5 494.5 c 0
 986.833 433.5 1000 368.667 1000 300 c 0
 1000 254 994 209.667 982 167 c 0
 970 124.333 953.167 84.5 931.5 47.5 c 0
 909.833 10.5 883.833 -23.1667 853.5 -53.5 c 0
 823.167 -83.8333 789.5 -109.833 752.5 -131.5 c 0
 715.5 -153.167 675.667 -170 633 -182 c 0
 590.333 -194 546 -200 500 -200 c 0
 454 -200 409.667 -194 367 -182 c 0
 324.333 -170 284.5 -153.167 247.5 -131.5 c 0
 210.5 -109.833 176.833 -83.8333 146.5 -53.5 c 0
 116.167 -23.1667 90.1667 10.5 68.5 47.5 c 0
 46.8333 84.5 30 124.333 18 167 c 0
 6 209.667 0 254 0 300 c 0
 0 346 6 390.333 18 433 c 0
 30 475.667 46.8333 515.5 68.5 552.5 c 0
 90.1667 589.5 116.167 623.167 146.5 653.5 c 0
 176.833 683.833 210.5 709.833 247.5 731.5 c 0
 284.5 753.167 324.333 770 367 782 c 0
 409.667 794 454 800 500 800 c 0
516 232 m 1
 561 187 l 1
 494 166 l 1
 516 232 l 1
EndSplineSet
EndChar

StartChar: uniF037
Encoding: 61495 61495 74
Width: 1000
VWidth: 0
Flags: H
LayerCount: 2
Fore
SplineSet
501 514 m 0
 520.333 514 536.5 507.333 549.5 494 c 0
 562.5 480.667 569.333 464.667 570 446 c 1
 570 386 l 1
 433 386 l 1
 433 446 l 2
 433 464.667 439.667 480.667 453 494 c 0
 466.333 507.333 482.333 514 501 514 c 0
748 368 m 2
 748 373.336 746.167 377.67 742.5 381 c 0
 738.833 384.333 734.333 386 729 386 c 2
 703 386 l 1
 667 386 l 1
 667 445 l 1
 667 446 l 2
 667 468.667 662.667 490 654 510 c 0
 645.333 530 633.5 547.5 618.5 562.5 c 0
 603.5 577.5 585.833 589.333 565.5 598 c 0
 545.167 606.667 523.667 611 501 611 c 0
 478.333 611 457 606.667 437 598 c 0
 417 589.333 399.5 577.5 384.5 562.5 c 0
 369.5 547.5 357.667 530 349 510 c 0
 340.333 490 336 468.667 336 446 c 2
 336 386 l 1
 306 386 l 1
 280 386 l 2
 274.667 386 270.333 384.333 267 381 c 0
 263.667 377.667 262 373.333 262 368 c 2
 262 98 l 2
 262 92.6667 263.667 88.1667 267 84.5 c 0
 270.335 80.8333 274.669 79 280 79 c 2
 729 79 l 2
 734.333 79 738.833 80.8333 742.5 84.5 c 0
 746.167 88.1667 748 92.6667 748 98 c 2
 748 368 l 2
500 800 m 0
 568.667 800 633.5 786.833 694.5 760.5 c 0
 755.5 734.167 808.5 698.5 853.5 653.5 c 0
 898.5 608.5 934.167 555.5 960.5 494.5 c 0
 986.833 433.5 1000 368.667 1000 300 c 0
 1000 254 994 209.667 982 167 c 0
 970 124.333 953.167 84.5 931.5 47.5 c 0
 909.833 10.5 883.833 -23.1667 853.5 -53.5 c 0
 823.167 -83.8333 789.5 -109.833 752.5 -131.5 c 0
 715.5 -153.167 675.667 -170 633 -182 c 0
 590.333 -194 546 -200 500 -200 c 0
 454 -200 409.667 -194 367 -182 c 0
 324.333 -170 284.5 -153.167 247.5 -131.5 c 0
 210.5 -109.833 176.833 -83.8333 146.5 -53.5 c 0
 116.167 -23.1667 90.1667 10.5 68.5 47.5 c 0
 46.8333 84.5 30 124.333 18 167 c 0
 6 209.667 0 254 0 300 c 0
 0 346 6 390.333 18 433 c 0
 30 475.667 46.8333 515.5 68.5 552.5 c 0
 90.1667 589.5 116.167 623.167 146.5 653.5 c 0
 176.833 683.833 210.5 709.833 247.5 731.5 c 0
 284.5 753.167 324.333 770 367 782 c 0
 409.667 794 454 800 500 800 c 0
EndSplineSet
EndChar

StartChar: uniF039
Encoding: 61497 61497 75
Width: 1000
VWidth: 0
Flags: H
LayerCount: 2
Fore
SplineSet
500 -200 m 0
 454 -200 409.667 -194 367 -182 c 0
 324.333 -170 284.5 -153.167 247.5 -131.5 c 0
 210.5 -109.833 176.833 -83.8333 146.5 -53.5 c 0
 116.167 -23.1667 90.1667 10.5 68.5 47.5 c 0
 46.8333 84.5 30 124.333 18 167 c 0
 6 209.667 0 254 0 300 c 0
 0 346 6 390.333 18 433 c 0
 30 475.667 46.8333 515.5 68.5 552.5 c 0
 90.1667 589.5 116.167 623.167 146.5 653.5 c 0
 176.833 683.833 210.5 709.833 247.5 731.5 c 0
 284.5 753.167 324.333 770 367 782 c 0
 409.667 794 454 800 500 800 c 0
 568.667 800 633.5 786.833 694.5 760.5 c 0
 755.5 734.167 808.5 698.5 853.5 653.5 c 0
 898.5 608.5 934.167 555.5 960.5 494.5 c 0
 986.833 433.5 1000 368.667 1000 300 c 0
 1000 254 994 209.667 982 167 c 0
 970 124.333 953.167 84.5 931.5 47.5 c 0
 909.833 10.5 883.833 -23.1667 853.5 -53.5 c 0
 823.167 -83.8333 789.5 -109.833 752.5 -131.5 c 0
 715.5 -153.167 675.667 -170 633 -182 c 0
 590.333 -194 546 -200 500 -200 c 0
724 380 m 2
 698 380 l 1
 606 380 l 1
 438 380 l 1
 438 457 l 2
 438 475.667 444.5 491.667 457.5 505 c 0
 470.5 518.333 486.667 525 506 525 c 0
 525.333 525 541.5 518.333 554.5 505 c 0
 567.5 491.667 574 475.667 574 457 c 0
 574 447.667 578.667 443 588 443 c 2
 658 443 l 1
 659 443 l 2
 667.667 443 672 447.667 672 457 c 2
 672 460 l 1
 671.333 482.667 666.667 503.833 658 523.5 c 0
 649.333 543.169 637.5 560.335 622.5 575 c 0
 607.5 589.671 590 601.338 570 610 c 0
 550 618.667 528.667 623 506 623 c 0
 483.333 623 461.833 618.667 441.5 610 c 0
 421.167 601.333 403.5 589.5 388.5 574.5 c 0
 373.5 559.5 361.667 541.833 353 521.5 c 0
 344.333 501.167 340 479.667 340 457 c 2
 340 380 l 1
 301 380 l 1
 275 380 l 2
 269.667 380 265.167 378.333 261.5 375 c 0
 257.833 371.667 256 367.333 256 362 c 2
 256 92 l 2
 256 86.6667 257.833 82.1667 261.5 78.5 c 0
 265.167 74.8333 269.667 73 275 73 c 2
 724 73 l 2
 729.333 73 733.667 74.8333 737 78.5 c 0
 740.333 82.1667 742 86.6667 742 92 c 2
 742 362 l 2
 742 367.336 740.333 371.669 737 375 c 0
 733.656 378.333 729.322 380 724 380 c 2
EndSplineSet
EndChar

StartChar: uniF03B
Encoding: 61499 61499 76
Width: 1000
VWidth: 0
Flags: H
LayerCount: 2
Fore
SplineSet
500 -200 m 0
 454 -200 409.667 -194 367 -182 c 0
 324.333 -170 284.5 -153.167 247.5 -131.5 c 0
 210.5 -109.833 176.833 -83.8333 146.5 -53.5 c 0
 116.167 -23.1667 90.1667 10.5 68.5 47.5 c 0
 46.8333 84.5 30 124.333 18 167 c 0
 6 209.667 0 254 0 300 c 0
 0 346 6 390.333 18 433 c 0
 30 475.667 46.8333 515.5 68.5 552.5 c 0
 90.1667 589.5 116.167 623.167 146.5 653.5 c 0
 176.833 683.833 210.5 709.833 247.5 731.5 c 0
 284.5 753.167 324.333 770 367 782 c 0
 409.667 794 454 800 500 800 c 0
 568.667 800 633.5 786.833 694.5 760.5 c 0
 755.5 734.167 808.5 698.5 853.5 653.5 c 0
 898.5 608.5 934.167 555.5 960.5 494.5 c 0
 986.833 433.5 1000 368.667 1000 300 c 0
 1000 254 994 209.667 982 167 c 0
 970 124.333 953.167 84.5 931.5 47.5 c 0
 909.833 10.5 883.833 -23.1667 853.5 -53.5 c 0
 823.167 -83.8333 789.5 -109.833 752.5 -131.5 c 0
 715.5 -153.167 675.667 -170 633 -182 c 0
 590.333 -194 546 -200 500 -200 c 0
776 534 m 2
 776 538.675 773.667 542.342 769 545 c 0
 765.655 547.667 761.322 547.667 756 545 c 1
 707 509 l 1
 703 507 l 1
 676.333 533 645.5 553.667 610.5 569 c 0
 575.5 584.333 538 592 498 592 c 0
 458 592 420.167 584.333 384.5 569 c 0
 348.833 553.666 317.833 532.833 291.5 506.5 c 0
 265.167 480.167 244.333 449.167 229 413.5 c 0
 213.667 377.833 206 340 206 300 c 0
 206 260 213.667 222.167 229 186.5 c 0
 244.333 150.833 265.167 119.833 291.5 93.5 c 0
 317.833 67.1667 348.833 46.3333 384.5 31 c 0
 420.167 15.6667 458 8 498 8 c 0
 546.667 8 592.167 19.5 634.5 42.5 c 0
 676.833 65.5 712 97 740 137 c 0
 742 140.333 742.667 144 742 148 c 0
 740.667 152 738.667 155 736 157 c 2
 663 208 l 2
 659.657 210.667 655.823 211.5 651.5 210.5 c 0
 647.167 209.5 643.667 207.333 641 204 c 0
 625 180 604.333 161.333 579 148 c 0
 553.667 134.667 526.667 128 498 128 c 0
 474 128 451.5 132.5 430.5 141.5 c 0
 409.5 150.5 391.167 162.833 375.5 178.5 c 0
 359.833 194.167 347.5 212.334 338.5 233 c 0
 329.5 253.667 325 276 325 300 c 0
 325 324 329.5 346.5 338.5 367.5 c 0
 347.5 388.5 359.833 406.833 375.5 422.5 c 0
 391.167 438.167 409.5 450.5 430.5 459.5 c 0
 451.5 468.5 474 473 498 473 c 0
 518 473 537 469.667 555 463 c 0
 573 456.333 589.333 447.333 604 436 c 1
 596 430 l 1
 547 395 l 2
 543 391.667 541.333 387.667 542 383 c 0
 542.667 378.333 545.334 375 550 373 c 2
 760 302 l 1
 763.333 300 767 300.333 771 303 c 1
 774.333 306.335 776 309.668 776 313 c 2
 776 534 l 2
EndSplineSet
EndChar

StartChar: uniF03D
Encoding: 61501 61501 77
Width: 1000
VWidth: 0
Flags: H
LayerCount: 2
Fore
SplineSet
500 -200 m 0
 454 -200 409.667 -194 367 -182 c 0
 324.333 -170 284.5 -153.167 247.5 -131.5 c 0
 210.5 -109.833 176.833 -83.8333 146.5 -53.5 c 0
 116.167 -23.1667 90.1667 10.5 68.5 47.5 c 0
 46.8333 84.5 30 124.333 18 167 c 0
 6 209.667 0 254 0 300 c 0
 0 346 6 390.333 18 433 c 0
 30 475.667 46.8333 515.5 68.5 552.5 c 0
 90.1667 589.5 116.167 623.167 146.5 653.5 c 0
 176.833 683.833 210.5 709.833 247.5 731.5 c 0
 284.5 753.167 324.333 770 367 782 c 0
 409.667 794 454 800 500 800 c 0
 568.667 800 633.5 786.833 694.5 760.5 c 0
 755.5 734.167 808.5 698.5 853.5 653.5 c 0
 898.5 608.5 934.167 555.5 960.5 494.5 c 0
 986.833 433.5 1000 368.667 1000 300 c 0
 1000 254 994 209.667 982 167 c 0
 970 124.333 953.167 84.5 931.5 47.5 c 0
 909.833 10.5 883.833 -23.1667 853.5 -53.5 c 0
 823.167 -83.8333 789.5 -109.833 752.5 -131.5 c 0
 715.5 -153.167 675.667 -170 633 -182 c 0
 590.333 -194 546 -200 500 -200 c 0
357 -3 m 0
 384.334 1 410.667 15.6667 436 41 c 2
 462 67 l 1
 512.5 117.5 l 1
 575 180 l 1
 637 242 l 1
 687 291.5 l 1
 713 317 l 1
 743 348.333 762 379 770 409 c 0
 772.69 417.667 774.357 427.5 775 438.5 c 0
 775.667 449.5 774.667 461.167 772 473.5 c 0
 769.333 485.835 764.333 498.669 757 512 c 0
 749.667 525.333 739 539 725 553 c 0
 689 589 650.5 606 609.5 604 c 0
 568.5 602 528 581.333 488 542 c 2
 233 286 l 2
 227.667 280.667 225 273.833 225 265.5 c 0
 225 257.167 227.667 250.333 233 245 c 0
 239 239 246.167 236 254.5 236 c 0
 262.835 236 269.669 239 275 245 c 2
 530 500 l 2
 548.667 518.667 565.667 531.167 581 537.5 c 0
 596.333 543.833 610.333 546.333 623 545 c 0
 635.667 543.667 647 539.667 657 533 c 0
 667 526.333 675.667 519.333 683 512 c 0
 711.667 483.333 721.667 454 713 424 c 1
 708.333 404.667 694.333 383 671 359 c 2
 645.5 333.5 l 1
 596 284 l 1
 533.5 222 l 1
 470.5 159.5 l 1
 420 109 l 1
 394 83 l 2
 377.333 66.3333 362.333 57 349 55 c 0
 346.333 55 341.5 55.5 334.5 56.5 c 0
 327.5 57.5 318.667 63 308 73 c 0
 292 89 285 104.667 287 120 c 0
 287.667 128.667 290.5 136.5 295.5 143.5 c 0
 300.5 150.5 305.667 156.667 311 162 c 2
 544 395 l 2
 552 403 558.833 408.833 564.5 412.5 c 0
 570.167 416.167 574.667 418.5 578 419.5 c 0
 581.333 420.5 583.833 420.5 585.5 419.5 c 0
 587.171 418.5 588.338 417.667 589 417 c 0
 589.667 415.667 590.5 414.167 591.5 412.5 c 0
 592.5 410.833 592.5 408.333 591.5 405 c 0
 590.5 401.667 588.167 397.333 584.5 392 c 0
 580.833 386.667 575 380 567 372 c 2
 353 158 l 1
 394 116 l 1
 609 330 l 2
 624.333 345.333 635.333 359.5 642 372.5 c 0
 648.667 385.5 652.167 397.333 652.5 408 c 0
 652.833 418.667 650.833 428.167 646.5 436.5 c 0
 642.167 444.833 637 452 631 458 c 0
 625.667 462.667 619.167 467.333 611.5 472 c 0
 603.833 476.667 594.5 479.167 583.5 479.5 c 0
 572.5 479.833 560.167 476.833 546.5 470.5 c 0
 532.833 464.167 518 453 502 437 c 2
 269 204 l 2
 245 180 231.333 154 228 126 c 0
 226.667 114.667 228.167 100.667 232.5 84 c 0
 236.833 67.3333 248.333 49.6667 267 31 c 0
 280.333 17 293.667 7.66667 307 3 c 0
 320.334 -1.66667 332.667 -4 344 -4 c 0
 350 -4 354.333 -3.66667 357 -3 c 0
EndSplineSet
EndChar

StartChar: uniF03F
Encoding: 61503 61503 78
Width: 1000
VWidth: 0
Flags: H
LayerCount: 2
Fore
SplineSet
500 -200 m 0
 454 -200 409.667 -194 367 -182 c 0
 324.333 -170 284.5 -153.167 247.5 -131.5 c 0
 210.5 -109.833 176.833 -83.8333 146.5 -53.5 c 0
 116.167 -23.1667 90.1667 10.5 68.5 47.5 c 0
 46.8333 84.5 30 124.333 18 167 c 0
 6 209.667 0 254 0 300 c 0
 0 346 6 390.333 18 433 c 0
 30 475.667 46.8333 515.5 68.5 552.5 c 0
 90.1667 589.5 116.167 623.167 146.5 653.5 c 0
 176.833 683.833 210.5 709.833 247.5 731.5 c 0
 284.5 753.167 324.333 770 367 782 c 0
 409.667 794 454 800 500 800 c 0
 568.667 800 633.5 786.833 694.5 760.5 c 0
 755.5 734.167 808.5 698.5 853.5 653.5 c 0
 898.5 608.5 934.167 555.5 960.5 494.5 c 0
 986.833 433.5 1000 368.667 1000 300 c 0
 1000 254 994 209.667 982 167 c 0
 970 124.333 953.167 84.5 931.5 47.5 c 0
 909.833 10.5 883.833 -23.1667 853.5 -53.5 c 0
 823.167 -83.8333 789.5 -109.833 752.5 -131.5 c 0
 715.5 -153.167 675.667 -170 633 -182 c 0
 590.333 -194 546 -200 500 -200 c 0
519 347 m 1
 431 398 l 1
 431 296 l 1
 431 194 l 1
 519 245 l 1
 607 296 l 1
 519 347 l 1
759 73 m 2
 769.667 73 778.5 76.5 785.5 83.5 c 0
 792.5 90.5 796 99 796 109 c 2
 796 487 l 2
 796 497 792.5 505.667 785.5 513 c 0
 778.5 520.333 769.667 524 759 524 c 2
 237 524 l 2
 227 524 218.333 520.333 211 513 c 0
 203.667 505.667 200 497 200 487 c 2
 200 109 l 2
 200 99 203.667 90.5 211 83.5 c 0
 218.333 76.5 227 73 237 73 c 2
 759 73 l 2
723 146 m 1
 273 146 l 1
 273 450 l 1
 723 450 l 1
 723 146 l 1
EndSplineSet
EndChar

StartChar: uniF041
Encoding: 61505 61505 79
Width: 1000
VWidth: 0
Flags: H
LayerCount: 2
Fore
SplineSet
763 520 m 2
 763 529.333 759.833 537 753.5 543 c 0
 747.161 549 739.328 552 730 552 c 2
 266 552 l 2
 256.667 552 248.833 549 242.5 543 c 0
 236.167 537 233 529.333 233 520 c 2
 233 80 l 2
 233 70.6667 236.167 63 242.5 57 c 0
 248.833 51 256.667 48 266 48 c 2
 730 48 l 2
 739.333 48 747.167 51 753.5 57 c 0
 759.833 63 763 70.6667 763 80 c 2
 763 520 l 2
500 800 m 0
 568.667 800 633.5 786.833 694.5 760.5 c 0
 755.5 734.167 808.5 698.5 853.5 653.5 c 0
 898.5 608.5 934.167 555.5 960.5 494.5 c 0
 986.833 433.5 1000 368.667 1000 300 c 0
 1000 254 994 209.667 982 167 c 0
 970 124.333 953.167 84.5 931.5 47.5 c 0
 909.833 10.5 883.833 -23.1667 853.5 -53.5 c 0
 823.167 -83.8333 789.5 -109.833 752.5 -131.5 c 0
 715.5 -153.167 675.667 -170 633 -182 c 0
 590.333 -194 546 -200 500 -200 c 0
 454 -200 409.667 -194 367 -182 c 0
 324.333 -170 284.5 -153.167 247.5 -131.5 c 0
 210.5 -109.833 176.833 -83.8333 146.5 -53.5 c 0
 116.167 -23.1667 90.1667 10.5 68.5 47.5 c 0
 46.8333 84.5 30 124.333 18 167 c 0
 6 209.667 0 254 0 300 c 0
 0 346 6 390.333 18 433 c 0
 30 475.667 46.8333 515.5 68.5 552.5 c 0
 90.1667 589.5 116.167 623.167 146.5 653.5 c 0
 176.833 683.833 210.5 709.833 247.5 731.5 c 0
 284.5 753.167 324.333 770 367 782 c 0
 409.667 794 454 800 500 800 c 0
298 487 m 1
 698 487 l 1
 698 212 l 1
 298 212 l 1
 298 487 l 1
EndSplineSet
EndChar

StartChar: uniF043
Encoding: 61507 61507 80
Width: 1000
VWidth: 0
Flags: H
LayerCount: 2
Fore
SplineSet
500 -200 m 0
 454 -200 409.667 -194 367 -182 c 0
 324.333 -170 284.5 -153.167 247.5 -131.5 c 0
 210.5 -109.833 176.833 -83.8333 146.5 -53.5 c 0
 116.167 -23.1667 90.1667 10.5 68.5 47.5 c 0
 46.8333 84.5 30 124.333 18 167 c 0
 6 209.667 0 254 0 300 c 0
 0 346 6 390.333 18 433 c 0
 30 475.667 46.8333 515.5 68.5 552.5 c 0
 90.1667 589.5 116.167 623.167 146.5 653.5 c 0
 176.833 683.833 210.5 709.833 247.5 731.5 c 0
 284.5 753.167 324.333 770 367 782 c 0
 409.667 794 454 800 500 800 c 0
 568.667 800 633.5 786.833 694.5 760.5 c 0
 755.5 734.167 808.5 698.5 853.5 653.5 c 0
 898.5 608.5 934.167 555.5 960.5 494.5 c 0
 986.833 433.5 1000 368.667 1000 300 c 0
 1000 254 994 209.667 982 167 c 0
 970 124.333 953.167 84.5 931.5 47.5 c 0
 909.833 10.5 883.833 -23.1667 853.5 -53.5 c 0
 823.167 -83.8333 789.5 -109.833 752.5 -131.5 c 0
 715.5 -153.167 675.667 -170 633 -182 c 0
 590.333 -194 546 -200 500 -200 c 0
442 190 m 1
 450 191.333 456 195 460 201 c 2
 514 286 l 1
 552 206 l 2
 556 197.333 563 193 573 193 c 1
 583 191.667 590.333 195.667 595 205 c 2
 689 370 l 2
 692.333 375.333 693 381.333 691 388 c 0
 689 394.667 685.333 399.667 680 403 c 0
 674 406.333 667.833 407 661.5 405 c 0
 655.157 403 650.323 399.333 647 394 c 2
 576 269 l 1
 539 347 l 2
 535.667 355 529 359.667 519 361 c 1
 509 361 501.667 357 497 349 c 2
 435 253 l 1
 407 281 l 2
 402.333 285.667 397 288 391 288 c 0
 385 288 379.333 286.333 374 283 c 1
 316 234 l 2
 310.667 230 307.667 224.667 307 218 c 0
 306.333 211.333 308.333 205.333 313 200 c 0
 317 194.667 322.333 191.667 329 191 c 0
 335.667 190.333 341.667 192.333 347 197 c 2
 388 231 l 1
 422 197 l 1
 428 192.333 433.667 190 439 190 c 2
 442 190 l 1
740 91 m 2
 749.333 91 757.333 94.3333 764 101 c 0
 770.667 107.667 774 115.667 774 125 c 2
 774 475 l 2
 774 484.333 770.667 492.333 764 499 c 0
 757.333 505.667 749.333 509 740 509 c 2
 255 509 l 2
 245.667 509 237.667 505.667 231 499 c 0
 224.333 492.333 221 484.333 221 475 c 2
 221 125 l 2
 221 115.667 224.333 107.667 231 101 c 0
 237.667 94.3333 245.667 91 255 91 c 2
 740 91 l 2
706 159 m 1
 289 159 l 1
 289 441 l 1
 706 441 l 1
 706 159 l 1
EndSplineSet
EndChar

StartChar: uniF045
Encoding: 61509 61509 81
Width: 1000
VWidth: 0
Flags: H
LayerCount: 2
Fore
SplineSet
762 420 m 1
 767.333 422.667 771.167 426.5 773.5 431.5 c 0
 775.833 436.5 776 441.333 774 446 c 0
 772 450.667 768.167 453.833 762.5 455.5 c 0
 756.833 457.167 751.333 456.667 746 454 c 2
 695 431 l 2
 689.667 428.33 685.667 424.663 683 420 c 0
 680.333 415.333 680.333 410.333 683 405 c 0
 685 400.327 688.667 397.161 694 395.5 c 0
 699.333 393.833 704.667 394.333 710 397 c 2
 762 420 l 1
 762 420 l 1
751 258 m 1
 757 257.333 762.167 258.5 766.5 261.5 c 0
 770.833 264.5 773.667 268.667 775 274 c 0
 776.333 279.333 775 284 771 288 c 0
 767 292 762.333 294.333 757 295 c 2
 701 304 l 2
 695 305.333 689.667 304.5 685 301.5 c 0
 680.333 298.5 677.333 294.333 676 289 c 0
 675.333 283.667 676.833 279 680.5 275 c 0
 684.167 271 689 268.333 695 267 c 2
 751 258 l 1
 751 258 l 1
670 544 m 1
 676.661 556 675.328 565.667 666 573 c 1
 661.333 575.667 656.333 576.334 651 575 c 0
 645.657 573.662 641.324 570.329 638 565 c 2
 608 517 l 2
 604.662 511.667 603.329 506.5 604 501.5 c 0
 604.667 496.5 607 492.333 611 489 c 0
 615.667 485.667 620.667 484.833 626 486.5 c 0
 631.333 488.167 635.667 491.667 639 497 c 2
 670 544 l 1
 670 544 l 1
650 354 m 0
 650 375.333 646.167 394.167 638.5 410.5 c 0
 630.833 426.833 620.333 440.5 607 451.5 c 0
 593.664 462.5 577.831 470.833 559.5 476.5 c 0
 541.165 482.167 521.331 485 500 485 c 2
 499 485 l 2
 456.333 485 420.833 473.833 392.5 451.5 c 0
 364.167 429.167 350 396.667 350 354 c 2
 350 350 l 2
 350 349.328 350.333 348.661 351 348 c 1
 351 343.333 351.333 338.833 352 334.5 c 0
 352.667 330.167 353.333 325.667 354 321 c 0
 357.333 303.667 363.333 286 372 268 c 0
 380.667 250 390 230.667 400 210 c 0
 406.667 196 411.333 183.5 414 172.5 c 0
 416.667 161.5 418.833 152 420.5 144 c 0
 422.167 136 423.833 129.667 425.5 125 c 0
 427.167 120.333 430.667 117.666 436 117 c 1
 564 117 l 1
 568.667 117.667 572 120.333 574 125 c 0
 576 129.667 577.667 136 579 144 c 0
 580.333 152 582.333 161.5 585 172.5 c 0
 587.676 183.5 592.342 196 599 210 c 0
 609.671 230.667 619.338 250 628 268 c 0
 636.667 286 642.667 303.667 646 321 c 0
 646.686 325.667 647.353 330.167 648 334.5 c 0
 648.667 338.833 649 343.333 649 348 c 2
 649 350 l 2
 649 350.667 649.167 351.333 649.5 352 c 0
 649.833 352.667 650 353.333 650 354 c 0
576 85 m 2
 576 91.6667 572.667 95 566 95 c 2
 434 95 l 2
 427.333 95 424 91.6667 424 85 c 2
 424 62 l 2
 424 55.3333 427.333 52 434 52 c 2
 566 52 l 2
 572.667 52 576 55.3333 576 62 c 2
 576 85 l 2
576 20 m 2
 576 27.3333 572.667 31 566 31 c 2
 434 31 l 2
 427.333 31 424 27.3333 424 20 c 2
 424 -3 l 2
 424 -9.66666 427.333 -13 434 -13 c 2
 566 -13 l 2
 572.667 -13 576 -9.66667 576 -3 c 2
 576 20 l 2
334 573 m 1
 330 569.658 327.5 565.325 326.5 560 c 0
 325.5 554.665 326.667 549.331 330 544 c 2
 361 497 l 2
 364.336 491.667 368.669 488.167 374 486.5 c 0
 379.333 484.848 384.333 485.681 389 489 c 0
 393 492.333 395.333 496.5 396 501.5 c 0
 396.667 506.5 395.333 511.667 392 517 c 2
 362 565 l 2
 358.667 570.333 354.333 573.667 349 575 c 0
 343.667 576.333 338.667 575.667 334 573 c 1
305 267 m 1
 311 268.333 315.833 271 319.5 275 c 0
 323.167 279 324.667 283.667 324 289 c 0
 322.667 294.333 319.667 298.5 315 301.5 c 0
 310.333 304.5 305 305.333 299 304 c 2
 243 295 l 2
 237.667 294.333 233 292 229 288 c 0
 225 284 223.667 279.333 225 274 c 0
 226.333 268.667 229.167 264.5 233.5 261.5 c 0
 237.833 258.5 243 257.333 249 258 c 2
 305 267 l 1
 305 267 l 1
226 446 m 0
 224 441.333 224.167 436.5 226.5 431.5 c 0
 228.833 426.5 232.667 422.667 238 420 c 2
 290 397 l 2
 295.336 394.333 300.669 393.833 306 395.5 c 0
 311.333 397.167 315 400.333 317 405 c 0
 319.667 410.333 319.667 415.333 317 420 c 0
 314.333 424.667 310.333 428.333 305 431 c 2
 254 454 l 2
 248.667 456.667 243.167 457.167 237.5 455.5 c 0
 231.833 453.832 228 450.665 226 446 c 0
482 535 m 2
 482 529 483.833 523.833 487.5 519.5 c 0
 491.167 515.167 495.667 513 501 513 c 0
 506.337 513 510.671 515.167 514 519.5 c 0
 517.333 523.833 519 529 519 535 c 2
 519 591 l 2
 519 597 517.333 602.167 514 606.5 c 0
 510.667 610.833 506.333 613 501 613 c 0
 495.667 613 491.167 610.833 487.5 606.5 c 0
 483.833 602.167 482 597 482 591 c 2
 482 535 l 2
500 800 m 0
 568.667 800 633.5 786.833 694.5 760.5 c 0
 755.5 734.167 808.5 698.5 853.5 653.5 c 0
 898.5 608.5 934.167 555.5 960.5 494.5 c 0
 986.833 433.5 1000 368.667 1000 300 c 0
 1000 254 994 209.667 982 167 c 0
 970 124.333 953.167 84.5 931.5 47.5 c 0
 909.833 10.5 883.833 -23.1667 853.5 -53.5 c 0
 823.167 -83.8333 789.5 -109.833 752.5 -131.5 c 0
 715.5 -153.167 675.667 -170 633 -182 c 0
 590.333 -194 546 -200 500 -200 c 0
 454 -200 409.667 -194 367 -182 c 0
 324.333 -170 284.5 -153.167 247.5 -131.5 c 0
 210.5 -109.833 176.833 -83.8333 146.5 -53.5 c 0
 116.167 -23.1667 90.1667 10.5 68.5 47.5 c 0
 46.8333 84.5 30 124.333 18 167 c 0
 6 209.667 0 254 0 300 c 0
 0 346 6 390.333 18 433 c 0
 30 475.667 46.8333 515.5 68.5 552.5 c 0
 90.1667 589.5 116.167 623.167 146.5 653.5 c 0
 176.833 683.833 210.5 709.833 247.5 731.5 c 0
 284.5 753.167 324.333 770 367 782 c 0
 409.667 794 454 800 500 800 c 0
EndSplineSet
EndChar

StartChar: uniF047
Encoding: 61511 61511 82
Width: 1000
VWidth: 0
Flags: H
LayerCount: 2
Fore
SplineSet
706 330 m 2
 706 335.333 704 340 700 344 c 0
 696 348 691.333 350 686 350 c 0
 680.656 350 675.823 348 671.5 344 c 0
 667.167 340 665 335.333 665 330 c 2
 665 197 l 1
 663.667 194.333 660.167 190 654.5 184 c 0
 648.833 178 639.667 172 627 166 c 0
 614.333 160 598 154.667 578 150 c 0
 558 145.333 533.333 143 504 143 c 0
 474.667 143 449.667 145.333 429 150 c 0
 408.333 154.667 391.166 160.167 377.5 166.5 c 0
 363.832 172.833 353.665 179 347 185 c 0
 340.333 191 336.333 195.333 335 198 c 1
 335 330 l 2
 335 335.333 332.833 340 328.5 344 c 0
 324.167 348 319.333 350 314 350 c 0
 308.667 350 304 348 300 344 c 0
 296 340 294 335.333 294 330 c 2
 294 196 l 2
 294 188.667 297.167 180.667 303.5 172 c 0
 309.835 163.333 319.168 154.667 331.5 146 c 0
 343.833 137.333 359.333 129.5 378 122.5 c 0
 396.667 115.5 418.333 110.333 443 107 c 1
 443 35 l 1
 383 35 l 2
 376.333 35 373 31.6667 373 25 c 2
 373 3 l 2
 373 -3.66667 376.333 -7 383 -7 c 2
 617 -7 l 2
 623.667 -7 627 -3.66667 627 3 c 2
 627 25 l 2
 627 31.6667 623.667 35 617 35 c 2
 557 35 l 1
 557 105 l 1
 583 108.333 605.333 113.5 624 120.5 c 0
 642.667 127.5 658.167 135.5 670.5 144.5 c 0
 682.833 153.5 691.833 162.5 697.5 171.5 c 0
 703.167 180.5 706 188.667 706 196 c 2
 706 330 l 2
362 224 m 2
 362 221.333 364.667 217.167 370 211.5 c 0
 375.335 205.833 383.668 200.167 395 194.5 c 0
 406.333 188.833 420.833 183.833 438.5 179.5 c 0
 456.167 175.167 477.667 173 503 173 c 0
 528.333 173 549.667 175.167 567 179.5 c 0
 584.333 183.833 598.167 188.833 608.5 194.5 c 0
 618.833 200.167 626.333 205.834 631 211.5 c 0
 635.667 217.167 638 221.334 638 224 c 2
 638 318 l 1
 638 403 l 1
 638 557 l 2
 638 559 635.667 562.667 631 568 c 0
 626.333 573.333 618.667 578.667 608 584 c 0
 606 585.333 603 586 599 586 c 0
 595 586 593 581.667 593 573 c 2
 593 528 l 2
 593 526.667 592 524 590 520 c 0
 588 516 584.333 514 579 514 c 0
 573.667 514 570 516 568 520 c 0
 566 524 565 526.667 565 528 c 2
 565 584 l 2
 565 592 563.833 597 561.5 599 c 0
 559.15 601 557.316 602 556 602 c 0
 551.333 603.333 546.5 604.333 541.5 605 c 0
 536.5 605.667 531.333 606 526 606 c 1
 522 606.667 519 605.5 517 602.5 c 0
 515 599.5 514 593.333 514 584 c 2
 514 528 l 2
 514 526.667 513 524 511 520 c 0
 509 516 505.333 514 500 514 c 0
 494.667 514 491 516 489 520 c 0
 487 524 486 526.667 486 528 c 2
 486 584 l 2
 486 594.667 484.833 601.167 482.5 603.5 c 0
 480.167 605.833 477.333 607 474 607 c 0
 468.667 607 463.833 606.667 459.5 606 c 0
 455.167 605.333 451 604.667 447 604 c 0
 445 603.333 442.5 602.167 439.5 600.5 c 0
 436.5 598.833 435 593.333 435 584 c 2
 435 528 l 2
 435 526.667 434 524 432 520 c 0
 430 516 426.333 514 421 514 c 0
 415.667 514 412 516 410 520 c 0
 408 524 407 526.667 407 528 c 2
 407 575 l 2
 407 583.667 404.667 587.667 400 587 c 0
 395.33 586.333 391.664 585.333 389 584 c 0
 379.667 578.666 372.833 573.333 368.5 568 c 0
 364.167 562.667 362 559 362 557 c 2
 362 403 l 1
 362 318 l 1
 362 224 l 2
500 800 m 0
 568.667 800 633.5 786.833 694.5 760.5 c 0
 755.5 734.167 808.5 698.5 853.5 653.5 c 0
 898.5 608.5 934.167 555.5 960.5 494.5 c 0
 986.833 433.5 1000 368.667 1000 300 c 0
 1000 254 994 209.667 982 167 c 0
 970 124.333 953.167 84.5 931.5 47.5 c 0
 909.833 10.5 883.833 -23.1667 853.5 -53.5 c 0
 823.167 -83.8333 789.5 -109.833 752.5 -131.5 c 0
 715.5 -153.167 675.667 -170 633 -182 c 0
 590.333 -194 546 -200 500 -200 c 0
 454 -200 409.667 -194 367 -182 c 0
 324.333 -170 284.5 -153.167 247.5 -131.5 c 0
 210.5 -109.833 176.833 -83.8333 146.5 -53.5 c 0
 116.167 -23.1667 90.1667 10.5 68.5 47.5 c 0
 46.8333 84.5 30 124.333 18 167 c 0
 6 209.667 0 254 0 300 c 0
 0 346 6 390.333 18 433 c 0
 30 475.667 46.8333 515.5 68.5 552.5 c 0
 90.1667 589.5 116.167 623.167 146.5 653.5 c 0
 176.833 683.833 210.5 709.833 247.5 731.5 c 0
 284.5 753.167 324.333 770 367 782 c 0
 409.667 794 454 800 500 800 c 0
EndSplineSet
EndChar

StartChar: uniF049
Encoding: 61513 61513 83
Width: 1000
VWidth: 0
Flags: H
LayerCount: 2
Fore
SplineSet
792 396 m 2
 793.333 404 791.333 411.667 786 419 c 0
 780.667 425.667 773.667 429.667 765 431 c 2
 362 476 l 1
 357 525 l 2
 356.333 531 354 536.5 350 541.5 c 0
 346 546.5 341.333 549.667 336 551 c 2
 247 579 l 2
 239 581.667 231.333 581 224 577 c 0
 216.667 573 211.667 567 209 559 c 0
 206.333 551 207 543.333 211 536 c 0
 215 528.667 221 523.667 229 521 c 2
 298 499 l 1
 323 253 l 1
 307 165 l 2
 306.333 161 306.5 156.833 307.5 152.5 c 0
 308.5 148.166 310.667 144.333 314 141 c 0
 320 133.667 327.667 130 337 130 c 2
 713 130 l 2
 721.667 130 729 132.833 735 138.5 c 0
 741 144.167 744 151.334 744 160 c 0
 744 168.667 741 175.834 735 181.5 c 0
 729 187.167 721.667 190 713 190 c 2
 373 190 l 1
 380 230 l 1
 738 230 l 2
 745.333 230 751.667 232.333 757 237 c 0
 762.333 241.667 765.667 247.667 767 255 c 2
 792 396 l 2
658 19 m 0
 671.333 19 682.5 23.5 691.5 32.5 c 0
 700.5 41.5 705 52.6667 705 66 c 0
 705 79.3333 700.5 90.5 691.5 99.5 c 0
 682.5 108.5 671.333 113 658 113 c 0
 644.667 113 633.667 108.5 625 99.5 c 0
 616.333 90.5 612 79.3333 612 66 c 0
 612 52.6667 616.333 41.5 625 32.5 c 0
 633.667 23.5 644.667 19 658 19 c 0
383 19 m 0
 396.333 19 407.5 23.5 416.5 32.5 c 0
 425.5 41.5 430 52.6667 430 66 c 0
 430 79.3333 425.5 90.5 416.5 99.5 c 0
 407.5 108.5 396.333 113 383 113 c 0
 369.667 113 358.5 108.5 349.5 99.5 c 0
 340.5 90.5 336 79.3333 336 66 c 0
 336 52.6667 340.5 41.5 349.5 32.5 c 0
 358.5 23.5 369.667 19 383 19 c 0
500 800 m 0
 568.667 800 633.5 786.833 694.5 760.5 c 0
 755.5 734.167 808.5 698.5 853.5 653.5 c 0
 898.5 608.5 934.167 555.5 960.5 494.5 c 0
 986.833 433.5 1000 368.667 1000 300 c 0
 1000 254 994 209.667 982 167 c 0
 970 124.333 953.167 84.5 931.5 47.5 c 0
 909.833 10.5 883.833 -23.1667 853.5 -53.5 c 0
 823.167 -83.8333 789.5 -109.833 752.5 -131.5 c 0
 715.5 -153.167 675.667 -170 633 -182 c 0
 590.333 -194 546 -200 500 -200 c 0
 454 -200 409.667 -194 367 -182 c 0
 324.333 -170 284.5 -153.167 247.5 -131.5 c 0
 210.5 -109.833 176.833 -83.8333 146.5 -53.5 c 0
 116.167 -23.1667 90.1667 10.5 68.5 47.5 c 0
 46.8333 84.5 30 124.333 18 167 c 0
 6 209.667 0 254 0 300 c 0
 0 346 6 390.333 18 433 c 0
 30 475.667 46.8333 515.5 68.5 552.5 c 0
 90.1667 589.5 116.167 623.167 146.5 653.5 c 0
 176.833 683.833 210.5 709.833 247.5 731.5 c 0
 284.5 753.167 324.333 770 367 782 c 0
 409.667 794 454 800 500 800 c 0
EndSplineSet
EndChar

StartChar: uniF04B
Encoding: 61515 61515 84
Width: 1000
VWidth: 0
Flags: H
LayerCount: 2
Fore
SplineSet
735 487 m 2
 735 496.333 730.333 501 721 501 c 2
 688 501 l 1
 688 512 l 2
 688 518.667 685.833 524.167 681.5 528.5 c 0
 677.167 532.833 672 535 666 535 c 2
 287 535 l 2
 281 535 275.833 532.833 271.5 528.5 c 0
 267.167 524.167 265 518.667 265 512 c 2
 265 88 l 2
 265 81.3333 267.167 75.8333 271.5 71.5 c 0
 275.833 67.1667 281 65 287 65 c 2
 666 65 l 2
 672 65 677.167 67.1667 681.5 71.5 c 0
 685.833 75.8333 688 81.3333 688 88 c 2
 688 99 l 1
 721 99 l 2
 725 99 728.333 100.5 731 103.5 c 0
 733.667 106.5 735 110 735 114 c 2
 735 155 l 2
 735 159 733.667 162.5 731 165.5 c 0
 728.333 168.5 725 170 721 170 c 2
 688 170 l 1
 688 210 l 1
 721 210 l 2
 730.333 210 735 214.667 735 224 c 2
 735 266 l 2
 735 275.333 730.333 280 721 280 c 2
 688 280 l 1
 688 320 l 1
 721 320 l 2
 725 320 728.333 321.5 731 324.5 c 0
 733.667 327.5 735 331 735 335 c 2
 735 376 l 2
 735 380 733.667 383.5 731 386.5 c 0
 728.333 389.5 725 391 721 391 c 2
 688 391 l 1
 688 431 l 1
 721 431 l 2
 730.333 431 735 435.667 735 445 c 2
 735 487 l 2
500 800 m 0
 568.667 800 633.5 786.833 694.5 760.5 c 0
 755.5 734.167 808.5 698.5 853.5 653.5 c 0
 898.5 608.5 934.167 555.5 960.5 494.5 c 0
 986.833 433.5 1000 368.667 1000 300 c 0
 1000 254 994 209.667 982 167 c 0
 970 124.333 953.167 84.5 931.5 47.5 c 0
 909.833 10.5 883.833 -23.1667 853.5 -53.5 c 0
 823.167 -83.8333 789.5 -109.833 752.5 -131.5 c 0
 715.5 -153.167 675.667 -170 633 -182 c 0
 590.333 -194 546 -200 500 -200 c 0
 454 -200 409.667 -194 367 -182 c 0
 324.333 -170 284.5 -153.167 247.5 -131.5 c 0
 210.5 -109.833 176.833 -83.8333 146.5 -53.5 c 0
 116.167 -23.1667 90.1667 10.5 68.5 47.5 c 0
 46.8333 84.5 30 124.333 18 167 c 0
 6 209.667 0 254 0 300 c 0
 0 346 6 390.333 18 433 c 0
 30 475.667 46.8333 515.5 68.5 552.5 c 0
 90.1667 589.5 116.167 623.167 146.5 653.5 c 0
 176.833 683.833 210.5 709.833 247.5 731.5 c 0
 284.5 753.167 324.333 770 367 782 c 0
 409.667 794 454 800 500 800 c 0
580 278 m 1
 585.333 276 588 271.333 588 264 c 2
 588 203 l 2
 588 199 586.667 195.5 584 192.5 c 0
 581.333 189.5 578.333 188 575 188 c 2
 378 188 l 2
 374.667 188 371.667 189.5 369 192.5 c 0
 366.333 195.5 365 199 365 203 c 2
 365 264 l 2
 365 271.333 367.667 276 373 278 c 2
 450 314 l 1
 440.667 319.335 433.167 327.168 427.5 337.5 c 0
 421.833 347.833 419 359.667 419 373 c 0
 419 391 424.667 406.5 436 419.5 c 0
 447.334 432.5 460.668 439 476 439 c 0
 492 439 505.5 432.5 516.5 419.5 c 0
 527.5 406.5 533 391 533 373 c 0
 533 359.667 530.333 347.833 525 337.5 c 0
 519.663 327.167 512.329 319.333 503 314 c 1
 580 278 l 1
 580 278 l 1
EndSplineSet
EndChar

StartChar: uniF04D
Encoding: 61517 61517 85
Width: 1000
VWidth: 0
Flags: H
LayerCount: 2
Fore
SplineSet
500 -200 m 0
 454 -200 409.667 -194 367 -182 c 0
 324.333 -170 284.5 -153.167 247.5 -131.5 c 0
 210.5 -109.833 176.833 -83.8333 146.5 -53.5 c 0
 116.167 -23.1667 90.1667 10.5 68.5 47.5 c 0
 46.8333 84.5 30 124.333 18 167 c 0
 6 209.667 0 254 0 300 c 0
 0 346 6 390.333 18 433 c 0
 30 475.667 46.8333 515.5 68.5 552.5 c 0
 90.1667 589.5 116.167 623.167 146.5 653.5 c 0
 176.833 683.833 210.5 709.833 247.5 731.5 c 0
 284.5 753.167 324.333 770 367 782 c 0
 409.667 794 454 800 500 800 c 0
 568.667 800 633.5 786.833 694.5 760.5 c 0
 755.5 734.167 808.5 698.5 853.5 653.5 c 0
 898.5 608.5 934.167 555.5 960.5 494.5 c 0
 986.833 433.5 1000 368.667 1000 300 c 0
 1000 254 994 209.667 982 167 c 0
 970 124.333 953.167 84.5 931.5 47.5 c 0
 909.833 10.5 883.833 -23.1667 853.5 -53.5 c 0
 823.167 -83.8333 789.5 -109.833 752.5 -131.5 c 0
 715.5 -153.167 675.667 -170 633 -182 c 0
 590.333 -194 546 -200 500 -200 c 0
724 565 m 1
 426 387 l 1
 420.667 383 417.333 379.667 416 377 c 2
 235 76 l 1
 228.333 62.6667 230 51 240 41 c 2
 241 40 l 1
 245.667 34 252.334 31 261 31 c 0
 264.333 31.0001 269.333 32.3334 276 35 c 1
 577 216 l 2
 579.667 217.333 583 220.667 587 226 c 1
 765 524 l 2
 768.333 529.333 769.333 535.5 768 542.5 c 0
 766.667 549.5 763.667 555.333 759 560 c 0
 749 570 737.333 571.667 724 565 c 1
EndSplineSet
EndChar

StartChar: uniF04F
Encoding: 61519 61519 86
Width: 1000
VWidth: 0
Flags: H
LayerCount: 2
Fore
SplineSet
500 -200 m 0
 454 -200 409.667 -194 367 -182 c 0
 324.333 -170 284.5 -153.167 247.5 -131.5 c 0
 210.5 -109.833 176.833 -83.8333 146.5 -53.5 c 0
 116.167 -23.1667 90.1667 10.5 68.5 47.5 c 0
 46.8333 84.5 30 124.333 18 167 c 0
 6 209.667 0 254 0 300 c 0
 0 346 6 390.333 18 433 c 0
 30 475.667 46.8333 515.5 68.5 552.5 c 0
 90.1667 589.5 116.167 623.167 146.5 653.5 c 0
 176.833 683.833 210.5 709.833 247.5 731.5 c 0
 284.5 753.167 324.333 770 367 782 c 0
 409.667 794 454 800 500 800 c 0
 568.667 800 633.5 786.833 694.5 760.5 c 0
 755.5 734.167 808.5 698.5 853.5 653.5 c 0
 898.5 608.5 934.167 555.5 960.5 494.5 c 0
 986.833 433.5 1000 368.667 1000 300 c 0
 1000 254 994 209.667 982 167 c 0
 970 124.333 953.167 84.5 931.5 47.5 c 0
 909.833 10.5 883.833 -23.1667 853.5 -53.5 c 0
 823.167 -83.8333 789.5 -109.833 752.5 -131.5 c 0
 715.5 -153.167 675.667 -170 633 -182 c 0
 590.333 -194 546 -200 500 -200 c 0
733 541 m 0
 729 539.658 722.5 536.825 713.5 532.5 c 0
 704.5 528.167 693.833 523.5 681.5 518.5 c 0
 669.167 513.5 655.5 509.167 640.5 505.5 c 0
 625.5 501.826 609.833 500.159 593.5 500.5 c 0
 577.164 500.833 560.831 504 544.5 510 c 0
 528.167 516 512.667 526.333 498 541 c 0
 483.332 555.667 466.666 565.5 448 570.5 c 0
 429.333 575.5 410.5 577.333 391.5 576 c 0
 372.5 574.667 353.833 571 335.5 565 c 0
 317.167 559 301 552.333 287 545 c 0
 273 537.667 261.667 530.5 253 523.5 c 0
 244.333 516.5 240 511.667 240 509 c 2
 240 386 l 1
 240 269 l 1
 240 54 l 2
 240 44 243.667 35.3333 251 28 c 0
 258.333 20.6667 267 17 277 17 c 0
 287.667 17 296.5 20.6667 303.5 28 c 0
 310.5 35.3333 314 44 314 54 c 2
 314 261 l 1
 325.333 266.333 338.333 271 353 275 c 0
 367.667 279 383 280.833 399 280.5 c 0
 415 280.167 431.5 276.833 448.5 270.5 c 0
 465.5 264.167 482 253 498 237 c 0
 518 217 540.167 204.833 564.5 200.5 c 0
 588.833 196.173 612.667 196.339 636 201 c 0
 659.333 205.667 681 213 701 223 c 0
 721 233 737 242 749 250 c 0
 755.667 254.667 760 259.833 762 265.5 c 0
 764 271.167 765 281 765 295 c 2
 765 509 l 2
 765 518.333 762.667 526.833 758 534.5 c 0
 753.333 542.183 745 544.35 733 541 c 0
EndSplineSet
EndChar

StartChar: uniF051
Encoding: 61521 61521 87
Width: 1000
VWidth: 0
Flags: H
LayerCount: 2
Fore
SplineSet
503 464 m 0
 530.333 464 553.5 454.5 572.5 435.5 c 0
 591.5 416.5 601 393.333 601 366 c 0
 601 338.667 591.5 315.5 572.5 296.5 c 0
 553.5 277.5 530.333 268 503 268 c 0
 475.667 268 452.5 277.5 433.5 296.5 c 0
 414.5 315.5 405 338.667 405 366 c 0
 405 393.333 414.5 416.5 433.5 435.5 c 0
 452.5 454.5 475.667 464 503 464 c 0
747 364 m 2
 747 397.334 740.667 428.667 728 458 c 0
 715.333 487.333 698 513 676 535 c 0
 654 557 628.333 574.5 599 587.5 c 0
 569.666 600.5 538.332 607 505 607 c 2
 504 607 l 1
 503 607 l 2
 469.667 607 438.333 600.5 409 587.5 c 0
 379.667 574.5 354 557 332 535 c 0
 310 513 292.667 487.333 280 458 c 0
 267.333 428.667 261 397.333 261 364 c 2
 261 363 l 1
 261 357 l 2
 261 355.667 261.333 354.667 262 354 c 1
 262 340.667 263.667 326.333 267 311 c 1
 268.333 301.667 273 288.333 281 271 c 0
 289 253.667 298.667 234.667 310 214 c 0
 321.333 193.333 333.5 171.833 346.5 149.5 c 0
 359.5 127.167 372 106.5 384 87.5 c 0
 396 68.5 406.667 52.1667 416 38.5 c 0
 425.333 24.8333 432 16 436 12 c 0
 441.333 6.66667 447.5 1 454.5 -5 c 0
 461.5 -11 468.333 -16.3333 475 -21 c 0
 481.667 -25.6667 487.667 -29.3333 493 -32 c 0
 498.333 -34.6667 502 -36 504 -36 c 0
 506 -36 509.5 -34.6667 514.5 -32 c 0
 519.5 -29.3333 525.333 -25.8333 532 -21.5 c 0
 538.667 -17.1667 545.5 -12 552.5 -6 c 0
 559.5 0 566 6 572 12 c 0
 576 16 582.667 24.8333 592 38.5 c 0
 601.333 52.1667 612 68.6667 624 88 c 0
 636 107.333 648.5 128 661.5 150 c 0
 674.5 172 686.667 193.5 698 214.5 c 0
 709.333 235.5 718.833 254.5 726.5 271.5 c 0
 734.167 288.5 739 301.667 741 311 c 0
 742.333 318.333 743.333 325.5 744 332.5 c 0
 744.689 339.5 745.356 346.667 746 354 c 1
 746 357 l 2
 746 358.333 746.167 359.333 746.5 360 c 0
 746.833 360.667 747 361.667 747 363 c 2
 747 364 l 2
504 800 m 0
 572.667 800 637.5 786.833 698.5 760.5 c 0
 759.5 734.167 812.5 698.5 857.5 653.5 c 0
 902.5 608.5 938.167 555.5 964.5 494.5 c 0
 990.833 433.5 1004 368.667 1004 300 c 0
 1004 254 998 209.667 986 167 c 0
 974 124.333 957.167 84.5 935.5 47.5 c 0
 913.833 10.5 887.833 -23.1667 857.5 -53.5 c 0
 827.167 -83.8333 793.5 -109.833 756.5 -131.5 c 0
 719.5 -153.167 679.667 -170 637 -182 c 0
 594.333 -194 550 -200 504 -200 c 0
 458 -200 413.667 -194 371 -182 c 0
 328.333 -170 288.5 -153.167 251.5 -131.5 c 0
 214.5 -109.833 180.833 -83.8333 150.5 -53.5 c 0
 120.167 -23.1667 94.1667 10.5 72.5 47.5 c 0
 50.8333 84.5 34 124.333 22 167 c 0
 10 209.667 4 254 4 300 c 0
 4 346 10 390.333 22 433 c 0
 34 475.667 50.8333 515.5 72.5 552.5 c 0
 94.1667 589.5 120.167 623.167 150.5 653.5 c 0
 180.833 683.833 214.5 709.833 251.5 731.5 c 0
 288.5 753.167 328.333 770 371 782 c 0
 413.667 794 458 800 504 800 c 0
EndSplineSet
EndChar

StartChar: uniF053
Encoding: 61523 61523 88
Width: 1000
VWidth: 0
Flags: H
LayerCount: 2
Fore
SplineSet
500 -200 m 0
 454 -200 409.667 -194 367 -182 c 0
 324.333 -170 284.5 -153.167 247.5 -131.5 c 0
 210.5 -109.833 176.833 -83.8333 146.5 -53.5 c 0
 116.167 -23.1667 90.1667 10.5 68.5 47.5 c 0
 46.8333 84.5 30 124.333 18 167 c 0
 6 209.667 0 254 0 300 c 0
 0 346 6 390.333 18 433 c 0
 30 475.667 46.8333 515.5 68.5 552.5 c 0
 90.1667 589.5 116.167 623.167 146.5 653.5 c 0
 176.833 683.833 210.5 709.833 247.5 731.5 c 0
 284.5 753.167 324.333 770 367 782 c 0
 409.667 794 454 800 500 800 c 0
 568.667 800 633.5 786.833 694.5 760.5 c 0
 755.5 734.167 808.5 698.5 853.5 653.5 c 0
 898.5 608.5 934.167 555.5 960.5 494.5 c 0
 986.833 433.5 1000 368.667 1000 300 c 0
 1000 254 994 209.667 982 167 c 0
 970 124.333 953.167 84.5 931.5 47.5 c 0
 909.833 10.5 883.833 -23.1667 853.5 -53.5 c 0
 823.167 -83.8333 789.5 -109.833 752.5 -131.5 c 0
 715.5 -153.167 675.667 -170 633 -182 c 0
 590.333 -194 546 -200 500 -200 c 0
832 501 m 2
 762 571 l 2
 759.333 573.667 756.333 575 753 575 c 0
 749.667 575 746.667 573.667 744 571 c 2
 504 331 l 1
 365 470 l 2
 359 476 353 476 347 470 c 2
 277 400 l 2
 274.333 397.333 273 394.333 273 391 c 0
 273 387 274.333 384 277 382 c 2
 494 164 l 1
 498 161.333 501.333 160 504 160 c 1
 504 161 l 1
 507.341 161 510.674 162 514 164 c 1
 832 482 l 2
 838 488.667 838 495 832 501 c 2
EndSplineSet
EndChar

StartChar: uniF055
Encoding: 61525 61525 89
Width: 1000
VWidth: 0
Flags: H
LayerCount: 2
Fore
SplineSet
500 -200 m 0
 454 -200 409.667 -194 367 -182 c 0
 324.333 -170 284.5 -153.167 247.5 -131.5 c 0
 210.5 -109.833 176.833 -83.8333 146.5 -53.5 c 0
 116.167 -23.1667 90.1667 10.5 68.5 47.5 c 0
 46.8333 84.5 30 124.333 18 167 c 0
 6 209.667 0 254 0 300 c 0
 0 346 6 390.333 18 433 c 0
 30 475.667 46.8333 515.5 68.5 552.5 c 0
 90.1667 589.5 116.167 623.167 146.5 653.5 c 0
 176.833 683.833 210.5 709.833 247.5 731.5 c 0
 284.5 753.167 324.333 770 367 782 c 0
 409.667 794 454 800 500 800 c 0
 568.667 800 633.5 786.833 694.5 760.5 c 0
 755.5 734.167 808.5 698.5 853.5 653.5 c 0
 898.5 608.5 934.167 555.5 960.5 494.5 c 0
 986.833 433.5 1000 368.667 1000 300 c 0
 1000 254 994 209.667 982 167 c 0
 970 124.333 953.167 84.5 931.5 47.5 c 0
 909.833 10.5 883.833 -23.1667 853.5 -53.5 c 0
 823.167 -83.8333 789.5 -109.833 752.5 -131.5 c 0
 715.5 -153.167 675.667 -170 633 -182 c 0
 590.333 -194 546 -200 500 -200 c 0
747 477 m 2
 497 477 l 1
 490.333 485 484 492.667 478 500 c 0
 472 507.337 468 512.337 466 515 c 1
 462.667 523 456.333 527 447 527 c 2
 347 527 l 2
 340.333 527 335 524.333 331 519 c 2
 296 477 l 1
 256 477 l 2
 246 477 237.333 473.333 230 466 c 0
 222.667 458.667 219 449.667 219 439 c 2
 219 110 l 2
 219 100 222.667 91.3333 230 84 c 0
 237.333 76.6667 246 73 256 73 c 2
 747 73 l 2
 757.667 73 766.667 76.6667 774 84 c 0
 781.333 91.3333 785 100 785 110 c 2
 785 439 l 2
 785 449.667 781.333 458.667 774 466 c 0
 766.667 473.333 757.667 477 747 477 c 2
EndSplineSet
EndChar

StartChar: uniF057
Encoding: 61527 61527 90
Width: 1000
VWidth: 0
Flags: H
LayerCount: 2
Fore
SplineSet
500 -200 m 0
 454 -200 409.667 -194 367 -182 c 0
 324.333 -170 284.5 -153.167 247.5 -131.5 c 0
 210.5 -109.833 176.833 -83.8333 146.5 -53.5 c 0
 116.167 -23.1667 90.1667 10.5 68.5 47.5 c 0
 46.8333 84.5 30 124.333 18 167 c 0
 6 209.667 0 254 0 300 c 0
 0 346 6 390.333 18 433 c 0
 30 475.667 46.8333 515.5 68.5 552.5 c 0
 90.1667 589.5 116.167 623.167 146.5 653.5 c 0
 176.833 683.833 210.5 709.833 247.5 731.5 c 0
 284.5 753.167 324.333 770 367 782 c 0
 409.667 794 454 800 500 800 c 0
 568.667 800 633.5 786.833 694.5 760.5 c 0
 755.5 734.167 808.5 698.5 853.5 653.5 c 0
 898.5 608.5 934.167 555.5 960.5 494.5 c 0
 986.833 433.5 1000 368.667 1000 300 c 0
 1000 254 994 209.667 982 167 c 0
 970 124.333 953.167 84.5 931.5 47.5 c 0
 909.833 10.5 883.833 -23.1667 853.5 -53.5 c 0
 823.167 -83.8333 789.5 -109.833 752.5 -131.5 c 0
 715.5 -153.167 675.667 -170 633 -182 c 0
 590.333 -194 546 -200 500 -200 c 0
385 477 m 1
 490 331 l 2
 491.333 328.333 494 327 498 327 c 0
 501.333 327 504 328.667 506 332 c 2
 610 477 l 1
 612 481 612 484.667 610 488 c 0
 608.667 491.333 606 493 602 493 c 2
 553 493 l 1
 553 625 l 2
 553 631.667 549.667 635 543 635 c 2
 452 635 l 2
 445.333 635 442 631.667 442 625 c 2
 442 493 l 1
 393 493 l 2
 389 493 386 491.333 384 488 c 0
 382.667 484.667 383 481 385 477 c 1
761 328 m 2
 627 328 l 2
 619 328 611.667 325.667 605 321 c 0
 598.333 316.333 593.667 310 591 302 c 0
 584.333 281.333 572.333 264.833 555 252.5 c 0
 537.666 240.167 518.332 234 497 234 c 0
 475.667 234 456.5 240.167 439.5 252.5 c 0
 422.5 264.833 410.333 281.333 403 302 c 0
 400.333 310 395.833 316.333 389.5 321 c 0
 383.167 325.667 376 328 368 328 c 2
 234 328 l 2
 223.333 328 214.5 324.333 207.5 317 c 0
 200.5 309.667 197 301 197 291 c 2
 197 77 l 2
 197 66.3333 200.5 57.3333 207.5 50 c 0
 214.5 42.6667 223.333 39 234 39 c 2
 761 39 l 2
 771 39 779.667 42.6667 787 50 c 0
 794.333 57.3333 798 66.3333 798 77 c 2
 798 291 l 2
 798 301 794.333 309.667 787 317 c 0
 779.667 324.333 771 328 761 328 c 2
EndSplineSet
EndChar

StartChar: uniF059
Encoding: 61529 61529 91
Width: 1000
VWidth: 0
Flags: H
LayerCount: 2
Fore
SplineSet
500 -200 m 0
 454 -200 409.667 -194 367 -182 c 0
 324.333 -170 284.5 -153.167 247.5 -131.5 c 0
 210.5 -109.833 176.833 -83.8333 146.5 -53.5 c 0
 116.167 -23.1667 90.1667 10.5 68.5 47.5 c 0
 46.8333 84.5 30 124.333 18 167 c 0
 6 209.667 0 254 0 300 c 0
 0 346 6 390.333 18 433 c 0
 30 475.667 46.8333 515.5 68.5 552.5 c 0
 90.1667 589.5 116.167 623.167 146.5 653.5 c 0
 176.833 683.833 210.5 709.833 247.5 731.5 c 0
 284.5 753.167 324.333 770 367 782 c 0
 409.667 794 454 800 500 800 c 0
 568.667 800 633.5 786.833 694.5 760.5 c 0
 755.5 734.167 808.5 698.5 853.5 653.5 c 0
 898.5 608.5 934.167 555.5 960.5 494.5 c 0
 986.833 433.5 1000 368.667 1000 300 c 0
 1000 254 994 209.667 982 167 c 0
 970 124.333 953.167 84.5 931.5 47.5 c 0
 909.833 10.5 883.833 -23.1667 853.5 -53.5 c 0
 823.167 -83.8333 789.5 -109.833 752.5 -131.5 c 0
 715.5 -153.167 675.667 -170 633 -182 c 0
 590.333 -194 546 -200 500 -200 c 0
656 429 m 1
 344 429 l 1
 344 266 l 1
 656 266 l 1
 656 429 l 1
733 44 m 2
 742.333 44 750.167 47.1667 756.5 53.5 c 0
 762.833 59.8333 766 67.6667 766 77 c 2
 766 508 l 2
 766 517.333 762.833 525.167 756.5 531.5 c 0
 750.161 537.833 742.328 541 733 541 c 2
 268 541 l 2
 258.667 541 250.833 537.833 244.5 531.5 c 0
 238.167 525.163 235 517.329 235 508 c 2
 235 77 l 2
 235 67.6667 238.167 59.8333 244.5 53.5 c 0
 250.833 47.1667 258.667 44 268 44 c 2
 733 44 l 2
701 109 m 1
 301 109 l 1
 301 476 l 1
 701 476 l 1
 701 109 l 1
433 238 m 1
 344 238 l 1
 344 150 l 1
 433 150 l 1
 433 238 l 1
544 238 m 1
 456 238 l 1
 456 150 l 1
 544 150 l 1
 544 238 l 1
656 238 m 1
 568 238 l 1
 568 150 l 1
 656 150 l 1
 656 238 l 1
EndSplineSet
EndChar

StartChar: uniF05B
Encoding: 61531 61531 92
Width: 1000
VWidth: 0
Flags: H
LayerCount: 2
Fore
SplineSet
761 530 m 2
 761 538.675 758.167 545.842 752.5 551.5 c 0
 746.833 557.167 739.667 560 731 560 c 2
 271 560 l 2
 263 560 256 557.167 250 551.5 c 0
 244 545.833 241 538.667 241 530 c 2
 241 70 l 2
 241 62 244 55 250 49 c 0
 256 43 263 40 271 40 c 2
 731 40 l 2
 739.672 40 746.839 43 752.5 49 c 0
 758.167 55 761 62 761 70 c 2
 761 530 l 2
500 800 m 0
 568.667 800 633.5 786.833 694.5 760.5 c 0
 755.5 734.167 808.5 698.5 853.5 653.5 c 0
 898.5 608.5 934.167 555.5 960.5 494.5 c 0
 986.833 433.5 1000 368.667 1000 300 c 0
 1000 254 994 209.667 982 167 c 0
 970 124.333 953.167 84.5 931.5 47.5 c 0
 909.833 10.5 883.833 -23.1667 853.5 -53.5 c 0
 823.167 -83.8333 789.5 -109.833 752.5 -131.5 c 0
 715.5 -153.167 675.667 -170 633 -182 c 0
 590.333 -194 546 -200 500 -200 c 0
 454 -200 409.667 -194 367 -182 c 0
 324.333 -170 284.5 -153.167 247.5 -131.5 c 0
 210.5 -109.833 176.833 -83.8333 146.5 -53.5 c 0
 116.167 -23.1667 90.1667 10.5 68.5 47.5 c 0
 46.8333 84.5 30 124.333 18 167 c 0
 6 209.667 0 254 0 300 c 0
 0 346 6 390.333 18 433 c 0
 30 475.667 46.8333 515.5 68.5 552.5 c 0
 90.1667 589.5 116.167 623.167 146.5 653.5 c 0
 176.833 683.833 210.5 709.833 247.5 731.5 c 0
 284.5 753.167 324.333 770 367 782 c 0
 409.667 794 454 800 500 800 c 0
501 105 m 0
 476.333 105 453 109.667 431 119 c 0
 409 128.333 389.833 141.167 373.5 157.5 c 0
 357.167 173.833 344.333 192.833 335 214.5 c 0
 325.667 236.167 321 259.333 321 284 c 1
 682 284 l 1
 682 259.333 677.167 236.167 667.5 214.5 c 0
 657.833 192.833 644.833 173.833 628.5 157.5 c 0
 612.167 141.167 593 128.333 571 119 c 0
 549 109.667 525.667 105 501 105 c 0
586 349 m 0
 570.667 349 557.5 354.5 546.5 365.5 c 0
 535.5 376.5 530 389.667 530 405 c 0
 530 420.333 535.5 433.5 546.5 444.5 c 0
 557.5 455.5 570.667 461 586 461 c 0
 601.333 461 614.5 455.5 625.5 444.5 c 0
 636.5 433.5 642 420.333 642 405 c 0
 642 389.667 636.5 376.5 625.5 365.5 c 0
 614.5 354.5 601.333 349 586 349 c 0
411 349 m 0
 395.667 349 382.5 354.5 371.5 365.5 c 0
 360.5 376.5 355 389.667 355 405 c 0
 355 420.333 360.5 433.5 371.5 444.5 c 0
 382.5 455.5 395.667 461 411 461 c 0
 426.333 461 439.5 455.5 450.5 444.5 c 0
 461.5 433.5 467 420.333 467 405 c 0
 467 389.667 461.5 376.5 450.5 365.5 c 0
 439.5 354.5 426.333 349 411 349 c 0
EndSplineSet
EndChar

StartChar: uniF05D
Encoding: 61533 61533 93
Width: 1000
VWidth: 0
Flags: H
LayerCount: 2
Fore
SplineSet
708 183 m 0
 730.667 205.667 747.5 231.167 758.5 259.5 c 0
 769.5 287.834 775 316.667 775 346 c 0
 775 375.334 769.5 404.167 758.5 432.5 c 0
 747.5 460.833 730.667 486.333 708 509 c 0
 685.333 531.667 659.833 548.5 631.5 559.5 c 0
 603.166 570.5 574.332 576 545 576 c 0
 515.667 576 486.833 570.5 458.5 559.5 c 0
 430.167 548.5 404.667 531.667 382 509 c 0
 362.667 489.667 347.5 468.167 336.5 444.5 c 0
 325.5 420.833 318.667 396.166 316 370.5 c 0
 313.333 344.833 314.833 319.333 320.5 294 c 0
 326.167 268.667 336 245 350 223 c 1
 250 123 l 2
 238 111 232 96.6667 232 80 c 0
 232 63.3333 238 49.3333 250 38 c 1
 261.333 26 275.5 20 292.5 20 c 0
 309.5 20 323.667 26 335 38 c 2
 439 142 l 1
 461 130.666 483.833 123 507.5 119 c 0
 531.167 115 554.834 114.667 578.5 118 c 0
 602.167 121.333 625.167 128.5 647.5 139.5 c 0
 669.833 150.5 690 165 708 183 c 0
500 800 m 0
 568.667 800 633.5 786.833 694.5 760.5 c 0
 755.5 734.167 808.5 698.5 853.5 653.5 c 0
 898.5 608.5 934.167 555.5 960.5 494.5 c 0
 986.833 433.5 1000 368.667 1000 300 c 0
 1000 254 994 209.667 982 167 c 0
 970 124.333 953.167 84.5 931.5 47.5 c 0
 909.833 10.5 883.833 -23.1667 853.5 -53.5 c 0
 823.167 -83.8333 789.5 -109.833 752.5 -131.5 c 0
 715.5 -153.167 675.667 -170 633 -182 c 0
 590.333 -194 546 -200 500 -200 c 0
 454 -200 409.667 -194 367 -182 c 0
 324.333 -170 284.5 -153.167 247.5 -131.5 c 0
 210.5 -109.833 176.833 -83.8333 146.5 -53.5 c 0
 116.167 -23.1667 90.1667 10.5 68.5 47.5 c 0
 46.8333 84.5 30 124.333 18 167 c 0
 6 209.667 0 254 0 300 c 0
 0 346 6 390.333 18 433 c 0
 30 475.667 46.8333 515.5 68.5 552.5 c 0
 90.1667 589.5 116.167 623.167 146.5 653.5 c 0
 176.833 683.833 210.5 709.833 247.5 731.5 c 0
 284.5 753.167 324.333 770 367 782 c 0
 409.667 794 454 800 500 800 c 0
454 437 m 0
 466.667 449.667 480.833 459 496.5 465 c 0
 512.169 471 528.335 474 545 474 c 0
 561.669 474 577.836 471 593.5 465 c 0
 609.169 459 623.336 449.667 636 437 c 0
 648.667 424.333 658 410.166 664 394.5 c 0
 670 378.833 673 362.833 673 346.5 c 0
 673 330.167 670 314.167 664 298.5 c 0
 658 282.832 648.667 268.666 636 256 c 0
 623.333 243.333 609.167 233.833 593.5 227.5 c 0
 577.833 221.167 561.667 218 545 218 c 0
 528.333 218 512.167 221.167 496.5 227.5 c 0
 480.832 233.833 466.666 243.333 454 256 c 0
 441.333 268.667 431.833 282.833 425.5 298.5 c 0
 419.167 314.167 416 330.167 416 346.5 c 0
 416 362.833 419.167 378.833 425.5 394.5 c 0
 431.833 410.167 441.333 424.333 454 437 c 0
EndSplineSet
EndChar

StartChar: uniF05E
Encoding: 61534 61534 94
Width: 1000
VWidth: 0
Flags: H
LayerCount: 2
Fore
SplineSet
104 532 m 1
 107.333 537.333 111.833 541.167 117.5 543.5 c 0
 123.167 545.833 129 547 135 547 c 2
 335 547 l 1
 332.333 568.333 329.5 586.667 326.5 602 c 0
 323.5 617.333 320.667 630.667 318 642 c 0
 314.667 658 316 673.167 322 687.5 c 0
 328 701.833 335.667 714.667 345 726 c 0
 354.333 737.333 363.833 746.833 373.5 754.5 c 0
 383.167 762.178 390 767.345 394 770 c 0
 403.334 776.69 414.667 778.357 428 775 c 1
 439.335 771 447.668 763 453 751 c 2
 544 547 l 1
 636 547 l 2
 647.333 547 656.833 543.167 664.5 535.5 c 0
 672.167 527.833 676 518.333 676 507 c 2
 676 103 l 2
 676 91.6667 672.167 82.1667 664.5 74.5 c 0
 656.833 66.8333 647.333 63 636 63 c 2
 266 63 l 2
 261.333 63 253.667 64.3333 243 67 c 0
 232.333 69.6667 221.167 74.3333 209.5 81 c 0
 197.833 87.6667 186.5 96.6667 175.5 108 c 0
 164.5 119.333 156.667 134 152 152 c 1
 96 499 l 2
 94 512.333 96.6667 523.333 104 532 c 1
754 555 m 2
 871 555 l 2
 879 555 885.833 552.333 891.5 547 c 0
 897.167 541.667 900 535 900 527 c 2
 900 81 l 2
 900 73.6667 897.167 67.1667 891.5 61.5 c 0
 885.833 55.8333 879 53 871 53 c 2
 754 53 l 2
 746 53 739.167 55.8333 733.5 61.5 c 0
 727.833 67.1667 725 73.6667 725 81 c 2
 725 527 l 2
 725 535 727.833 541.667 733.5 547 c 0
 739.167 552.333 746 555 754 555 c 2
EndSplineSet
EndChar

StartChar: uniF05F
Encoding: 61535 61535 95
Width: 1000
VWidth: 0
Flags: H
LayerCount: 2
Fore
SplineSet
888 78 m 1
 880.66 68 870.327 63 857 63 c 2
 657 63 l 1
 659.667 41.6667 662.5 23.3333 665.5 8 c 0
 668.5 -7.33333 671.333 -20.6667 674 -32 c 0
 677.333 -48 676 -63.1667 670 -77.5 c 0
 664 -91.8333 656.333 -104.667 647 -116 c 0
 637.667 -127.333 628.167 -136.833 618.5 -144.5 c 0
 608.833 -152.167 602 -157.333 598 -160 c 0
 587.333 -166.667 576 -168.333 564 -165 c 1
 552.662 -161 544.329 -153 539 -141 c 2
 448 63 l 1
 356 63 l 2
 344.667 63 335.167 66.8333 327.5 74.5 c 0
 319.833 82.1667 316 91.6667 316 103 c 2
 316 507 l 2
 316 518.333 319.833 527.833 327.5 535.5 c 0
 335.167 543.167 344.667 547 356 547 c 2
 726 547 l 2
 730.672 547 738.339 545.667 749 543 c 0
 759.672 540.333 770.839 535.667 782.5 529 c 0
 794.167 522.333 805.334 513.333 816 502 c 0
 826.667 490.667 834.667 476.333 840 459 c 1
 896 111 l 2
 898 97.6667 895.333 86.6667 888 78 c 1
238 55 m 2
 121 55 l 2
 113 55 106.167 57.8333 100.5 63.5 c 0
 94.8333 69.1667 92 75.6667 92 83 c 2
 92 529 l 2
 92 537 94.8333 543.667 100.5 549 c 0
 106.167 554.333 113 557 121 557 c 2
 238 557 l 2
 246 557 252.833 554.333 258.5 549 c 0
 264.167 543.667 267 537 267 529 c 2
 267 83 l 2
 267 75.6667 264.167 69.1667 258.5 63.5 c 0
 252.833 57.8333 246 55 238 55 c 2
EndSplineSet
EndChar

StartChar: uniF060
Encoding: 61536 61536 96
Width: 1000
VWidth: 0
Flags: H
LayerCount: 2
Fore
SplineSet
130 757 m 0
 206 757 279.167 747.167 349.5 727.5 c 0
 419.834 707.833 485.667 680 547 644 c 0
 608.333 608 664.167 564.833 714.5 514.5 c 0
 764.833 464.167 808 408.333 844 347 c 0
 880 285.667 907.833 219.833 927.5 149.5 c 0
 947.167 79.1667 957 6 957 -70 c 0
 957 -94 948.5 -114.5 931.5 -131.5 c 0
 914.5 -148.5 894 -157 870 -157 c 0
 846 -157 825.5 -148.5 808.5 -131.5 c 0
 791.5 -114.5 783 -94 783 -70 c 0
 783 -10 775.167 47.8333 759.5 103.5 c 0
 743.833 159.167 721.833 211.167 693.5 259.5 c 0
 665.167 307.833 631.167 351.833 591.5 391.5 c 0
 551.833 431.167 507.833 465.167 459.5 493.5 c 0
 411.167 521.833 359.167 543.833 303.5 559.5 c 0
 247.833 575.167 190 583 130 583 c 0
 106 583 85.5 591.5 68.5 608.5 c 0
 51.5 625.5 43 646 43 670 c 0
 43 694 51.5 714.5 68.5 731.5 c 0
 85.5 748.5 106 757 130 757 c 0
130 428 m 0
 198.667 428 263.167 414.833 323.5 388.5 c 0
 383.833 362.167 436.5 326.5 481.5 281.5 c 0
 526.5 236.5 562.167 183.833 588.5 123.5 c 0
 614.833 63.1667 628 -1.33334 628 -70 c 0
 628 -94 619.5 -114.5 602.5 -131.5 c 0
 585.5 -148.5 565 -157 541 -157 c 0
 517 -157 496.5 -148.5 479.5 -131.5 c 0
 462.5 -114.5 454 -94 454 -70 c 0
 454 -25.3333 445.5 16.6667 428.5 56 c 0
 411.5 95.3333 388.333 129.667 359 159 c 0
 329.667 188.333 295.333 211.5 256 228.5 c 0
 216.667 245.5 174.667 254 130 254 c 0
 106 254 85.5 262.5 68.5 279.5 c 0
 51.5 296.5 43 317 43 341 c 0
 43 365 51.5 385.5 68.5 402.5 c 0
 85.5 419.5 106 428 130 428 c 0
290 -29 m 0
 290 -46.3333 286.833 -62.3333 280.5 -77 c 0
 274.167 -91.6667 265.5 -104.5 254.5 -115.5 c 0
 243.5 -126.5 230.5 -135.167 215.5 -141.5 c 0
 200.5 -147.833 184.667 -151 168 -151 c 0
 150.667 -151 134.667 -147.833 120 -141.5 c 0
 105.333 -135.167 92.5 -126.5 81.5 -115.5 c 0
 70.5 -104.5 61.8333 -91.6667 55.5 -77 c 0
 49.1667 -62.3333 46 -46.3333 46 -29 c 0
 46 -12.3333 49.1667 3.5 55.5 18.5 c 0
 61.8333 33.5 70.5 46.5 81.5 57.5 c 0
 92.5 68.5 105.333 77.1667 120 83.5 c 0
 134.667 89.8333 150.667 93 168 93 c 0
 184.667 93 200.5 89.8333 215.5 83.5 c 0
 230.5 77.1667 243.5 68.5 254.5 57.5 c 0
 265.5 46.5 274.167 33.5 280.5 18.5 c 0
 286.833 3.5 290 -12.3333 290 -29 c 0
EndSplineSet
EndChar

StartChar: uniF061
Encoding: 61537 61537 97
Width: 1000
VWidth: 0
Flags: H
LayerCount: 2
Fore
SplineSet
969 750 m 2
 969 -150 l 2
 969 -156.667 966.667 -162.167 962 -166.5 c 0
 957.333 -170.833 951.667 -173 945 -173 c 2
 55 -173 l 2
 48.3333 -173 42.6667 -170.833 38 -166.5 c 0
 33.3333 -162.167 31 -156.667 31 -150 c 2
 31 750 l 2
 31 756.667 33.3333 762.167 38 766.5 c 0
 42.6667 770.833 48.3334 773 55 773 c 2
 945 773 l 2
 951.681 773 957.348 770.833 962 766.5 c 0
 966.667 762.167 969 756.667 969 750 c 2
683 -63 m 1
 683 271 l 1
 805 271 l 1
 810 391 l 1
 683 391 l 1
 683 479 l 2
 683 495.667 685.833 508.833 691.5 518.5 c 0
 697.167 528.167 710.667 532.667 732 532 c 1
 807 532 l 1
 810 644 l 1
 800.667 645.333 791.167 646.167 781.5 646.5 c 0
 771.833 646.833 763 647.333 755 648 c 0
 745.661 648.667 736.328 649 727 649 c 0
 697.667 651 672.5 647.833 651.5 639.5 c 0
 630.5 631.167 613.167 619.5 599.5 604.5 c 0
 585.833 589.5 575.667 572.333 569 553 c 0
 562.333 533.667 559 514 559 494 c 2
 559 391 l 1
 473 391 l 1
 473 271 l 1
 559 271 l 1
 559 -63 l 1
 683 -63 l 1
EndSplineSet
EndChar

StartChar: uniF062
Encoding: 61538 61538 98
Width: 1000
VWidth: 0
Flags: H
LayerCount: 2
Fore
SplineSet
972 595 m 1
 966 582.333 954.833 566.333 938.5 547 c 0
 922.167 527.667 902 510.667 878 496 c 1
 878.667 490.667 879.167 485.667 879.5 481 c 0
 879.833 476.333 880 471.333 880 466 c 0
 880 438 876.833 407.333 870.5 374 c 0
 864.16 340.667 854.327 306.833 841 272.5 c 0
 827.664 238.167 810.83 204.167 790.5 170.5 c 0
 770.167 136.833 746 105.667 718 77 c 0
 690 48.3333 658.167 23 622.5 1 c 0
 586.833 -21 547 -37.3333 503 -48 c 1
 451.667 -59.3333 400.333 -65 349 -65 c 0
 327 -65 304.167 -63.8333 280.5 -61.5 c 0
 256.833 -59.1667 233.167 -54.8333 209.5 -48.5 c 0
 185.833 -42.1667 162.5 -33.6667 139.5 -23 c 0
 116.5 -12.3333 95 1.33333 75 18 c 1
 127 10.6667 176.167 14.8333 222.5 30.5 c 0
 268.833 46.1667 311 68.3333 349 97 c 1
 340.333 97 328.833 97.8333 314.5 99.5 c 0
 300.167 101.167 284.833 106.167 268.5 114.5 c 0
 252.167 122.833 235.667 135.667 219 153 c 0
 202.333 170.333 187.667 194.667 175 226 c 1
 179 224.66 184.5 223.826 191.5 223.5 c 0
 198.5 223.173 206 223.34 214 224 c 0
 222 224.667 229.833 225.5 237.5 226.5 c 0
 245.167 227.5 252 228.667 258 230 c 1
 223.333 240.667 196.167 254.834 176.5 272.5 c 0
 156.833 290.167 142.333 308.333 133 327 c 0
 123.667 345.667 117.833 363.333 115.5 380 c 0
 113.167 396.667 112 409.667 112 419 c 1
 120.667 413.667 133.333 408 150 402 c 0
 166.667 396 181.667 393.333 195 394 c 1
 167.667 416.667 147.833 439.167 135.5 461.5 c 0
 123.167 483.833 115.833 505.5 113.5 526.5 c 0
 111.167 547.5 112.333 568 117 588 c 0
 121.667 608 128 627.333 136 646 c 1
 172.667 604.667 209.167 571.167 245.5 545.5 c 0
 281.833 519.833 316.5 500 349.5 486 c 0
 382.5 472 413.333 462.667 442 458 c 0
 470.667 453.333 495.667 451 517 451 c 1
 513 477.667 512.833 503 516.5 527 c 0
 520.171 551 527.837 573 539.5 593 c 0
 551.167 613 566.667 630.167 586 644.5 c 0
 605.333 658.833 628.333 669.667 655 677 c 0
 687.667 686.333 719 686 749 676 c 0
 779 666 804.667 648.667 826 624 c 1
 835.333 624.667 850 627.667 870 633 c 0
 890 638.333 915 650 945 668 c 1
 943 661.333 939.833 653.167 935.5 643.5 c 0
 931.167 633.833 925.667 624 919 614 c 0
 912.333 604 904.333 594.333 895 585 c 0
 885.667 575.667 875 568 863 562 c 1
 873 564 884 566.333 896 569 c 0
 906 571.667 917.667 575.167 931 579.5 c 0
 944.333 583.833 958 589 972 595 c 1
EndSplineSet
EndChar

StartChar: uniF063
Encoding: 61539 61539 99
Width: 1000
VWidth: 0
Flags: H
LayerCount: 2
Fore
SplineSet
500 763 m 0
 564 763 624.167 750.833 680.5 726.5 c 0
 736.833 702.167 785.833 669.167 827.5 627.5 c 0
 869.167 585.833 902.167 536.833 926.5 480.5 c 0
 950.833 424.167 963 364 963 300 c 0
 963 236 950.833 175.833 926.5 119.5 c 0
 902.167 63.1667 869.167 14.1667 827.5 -27.5 c 0
 785.833 -69.1667 736.833 -102.167 680.5 -126.5 c 0
 624.167 -150.833 564 -163 500 -163 c 0
 476.667 -163 454.167 -161.333 432.5 -158 c 0
 410.833 -154.667 389.666 -150 369 -144 c 1
 377.667 -130 386.333 -114.5 395 -97.5 c 0
 403.667 -80.5 410.333 -63 415 -45 c 0
 416.333 -40.3333 418.333 -32.3333 421 -21 c 0
 423.667 -11.6667 427 1.16667 431 17.5 c 0
 435 33.8333 440.667 55.3333 448 82 c 1
 456 66.6667 470.5 53.3333 491.5 42 c 0
 512.5 30.6667 535.667 25 561 25 c 0
 598.333 25 632.333 33 663 49 c 0
 693.667 65 720 87.1667 742 115.5 c 0
 764 143.833 781 177.333 793 216 c 0
 805 254.667 811 296.667 811 342 c 0
 811 376 804 409 790 441 c 0
 776 473 756.333 501.333 731 526 c 0
 705.665 550.668 674.832 570.334 638.5 585 c 0
 602.167 599.667 562 607 518 607 c 0
 462.667 607 414.333 598.167 373 580.5 c 0
 331.667 562.833 297.333 540 270 512 c 0
 242.667 484 222 452.833 208 418.5 c 0
 194 384.167 187 350.667 187 318 c 0
 187 278 194.667 241.833 210 209.5 c 0
 225.333 177.167 249.333 154.333 282 141 c 0
 287.336 139 292.169 139 296.5 141 c 0
 300.836 143 303.669 147 305 153 c 0
 306.333 157 307.833 163 309.5 171 c 0
 311.167 179 312.667 185.333 314 190 c 0
 315.343 196 315.676 200.5 315 203.5 c 0
 314.333 206.5 312 210.667 308 216 c 0
 298.667 227.333 291.167 240.167 285.5 254.5 c 0
 279.833 268.833 277 286.333 277 307 c 0
 277 336.333 282.333 364.333 293 391 c 0
 303.667 417.667 318.833 441.167 338.5 461.5 c 0
 358.167 481.833 382 498 410 510 c 0
 438 522 469.667 528 505 528 c 0
 535.667 528 563 523.5 587 514.5 c 0
 611 505.5 631.333 493.167 648 477.5 c 0
 664.667 461.832 677.167 443.166 685.5 421.5 c 0
 693.833 399.833 698 376.333 698 351 c 0
 698 317.667 694.5 286 687.5 256 c 0
 680.5 226 670.5 199.833 657.5 177.5 c 0
 644.5 155.167 629 137.5 611 124.5 c 0
 593 111.5 573 105 551 105 c 0
 539 105 527.833 107.333 517.5 112 c 0
 507.167 116.667 498.667 123 492 131 c 0
 485.333 139 480.5 148.5 477.5 159.5 c 0
 474.5 170.5 474.667 182 478 194 c 0
 481.333 208.667 485.333 223.5 490 238.5 c 0
 494.667 253.5 499.167 268 503.5 282 c 0
 507.833 296 511.5 309.5 514.5 322.5 c 0
 517.5 335.5 519 347.333 519 358 c 0
 519 377.333 513.833 393.833 503.5 407.5 c 0
 493.167 421.167 477.333 428 456 428 c 0
 444 428 432.5 425 421.5 419 c 0
 410.5 413 401 404.5 393 393.5 c 0
 385 382.5 378.667 369.667 374 355 c 0
 369.333 340.333 367 324.666 367 308 c 0
 367 299.332 367.667 290.666 369 282 c 0
 370.333 274.667 371.833 266.833 373.5 258.5 c 0
 375.167 250.166 378 242.333 382 235 c 1
 368.667 181 358.333 137.5 351 104.5 c 0
 343.667 71.5 337.667 46 333 28 c 0
 327.667 6.66667 324 -8.66667 322 -18 c 0
 318 -35.3333 315.5 -53.3333 314.5 -72 c 0
 313.5 -90.6667 313.333 -108 314 -124 c 1
 273.333 -106 236 -82.6667 202 -54 c 0
 168 -25.3333 138.833 7.33334 114.5 44 c 0
 90.1667 80.6667 71.1667 120.667 57.5 164 c 0
 43.8333 207.333 37 252.667 37 300 c 0
 37 364 49.1667 424.167 73.5 480.5 c 0
 97.8334 536.833 130.833 585.833 172.5 627.5 c 0
 214.167 669.167 263.167 702.167 319.5 726.5 c 0
 375.833 750.833 436 763 500 763 c 0
EndSplineSet
EndChar

